<mxfile host="Electron" agent="Mozilla/5.0 (Windows NT 10.0; Win64; x64) AppleWebKit/537.36 (KHTML, like Gecko) draw.io/24.7.5 Chrome/126.0.6478.183 Electron/31.3.0 Safari/537.36" version="24.7.5" pages="2">
  <diagram name="Page-1" id="8z-31ZlTekuCkwK8cBSg">
    <mxGraphModel dx="4721" dy="2653" grid="1" gridSize="10" guides="1" tooltips="1" connect="1" arrows="1" fold="1" page="1" pageScale="1" pageWidth="850" pageHeight="1100" math="0" shadow="0">
      <root>
        <mxCell id="0" />
        <mxCell id="1" parent="0" />
        <mxCell id="WoZKyJQna27tw6gWgQqz-2" value="" style="rounded=0;whiteSpace=wrap;html=1;" vertex="1" parent="1">
          <mxGeometry x="-325.09000000000003" y="-170.48" width="140" height="116.43" as="geometry" />
        </mxCell>
        <mxCell id="WoZKyJQna27tw6gWgQqz-3" value="" style="rounded=0;whiteSpace=wrap;html=1;fillColor=default;container=0;" vertex="1" parent="1">
          <mxGeometry x="-495.09000000000003" y="-537.48" width="142.79" height="369.63" as="geometry" />
        </mxCell>
        <mxCell id="WoZKyJQna27tw6gWgQqz-4" style="edgeStyle=orthogonalEdgeStyle;rounded=0;orthogonalLoop=1;jettySize=auto;html=1;entryX=0;entryY=0.5;entryDx=0;entryDy=0;dashed=1;dashPattern=12 12;" edge="1" parent="1" source="WoZKyJQna27tw6gWgQqz-5" target="WoZKyJQna27tw6gWgQqz-7">
          <mxGeometry relative="1" as="geometry">
            <Array as="points">
              <mxPoint x="-1470" y="-390" />
            </Array>
          </mxGeometry>
        </mxCell>
        <mxCell id="WoZKyJQna27tw6gWgQqz-5" value="" style="rounded=0;whiteSpace=wrap;html=1;fillColor=default;container=0;" vertex="1" parent="1">
          <mxGeometry x="-1541.6499999999999" y="-146.83000000000004" width="142.79" height="103.95" as="geometry" />
        </mxCell>
        <mxCell id="WoZKyJQna27tw6gWgQqz-6" value="" style="rounded=0;whiteSpace=wrap;html=1;" vertex="1" parent="1">
          <mxGeometry x="-1320" y="286.28" width="270.57" height="96.5" as="geometry" />
        </mxCell>
        <mxCell id="WoZKyJQna27tw6gWgQqz-7" value="" style="rounded=0;whiteSpace=wrap;html=1;fillColor=default;" vertex="1" parent="1">
          <mxGeometry x="-1210" y="-450" width="350" height="120" as="geometry" />
        </mxCell>
        <mxCell id="WoZKyJQna27tw6gWgQqz-8" value="" style="rounded=0;whiteSpace=wrap;html=1;fillColor=default;container=0;" vertex="1" parent="1">
          <mxGeometry x="-1548.86" y="-653.83" width="330" height="107.37" as="geometry" />
        </mxCell>
        <mxCell id="WoZKyJQna27tw6gWgQqz-9" style="edgeStyle=orthogonalEdgeStyle;rounded=0;orthogonalLoop=1;jettySize=auto;html=1;" edge="1" parent="1" source="WoZKyJQna27tw6gWgQqz-10" target="WoZKyJQna27tw6gWgQqz-60">
          <mxGeometry relative="1" as="geometry" />
        </mxCell>
        <mxCell id="WoZKyJQna27tw6gWgQqz-10" value="" style="image;aspect=fixed;html=1;points=[];align=center;fontSize=12;image=img/lib/azure2/networking/Front_Doors.svg;container=0;" vertex="1" parent="1">
          <mxGeometry x="-1498.86" y="-643.83" width="68" height="60" as="geometry" />
        </mxCell>
        <mxCell id="WoZKyJQna27tw6gWgQqz-11" value="Azure Front Door" style="text;strokeColor=none;align=center;fillColor=none;html=1;verticalAlign=middle;whiteSpace=wrap;rounded=0;container=0;" vertex="1" parent="1">
          <mxGeometry x="-1542.32" y="-579.33" width="154.92" height="13" as="geometry" />
        </mxCell>
        <mxCell id="WoZKyJQna27tw6gWgQqz-12" value="Static Web App" style="text;strokeColor=none;align=center;fillColor=none;html=1;verticalAlign=middle;whiteSpace=wrap;rounded=0;container=0;" vertex="1" parent="1">
          <mxGeometry x="-1368.86" y="-579.33" width="150" height="13" as="geometry" />
        </mxCell>
        <mxCell id="WoZKyJQna27tw6gWgQqz-13" value="" style="shape=image;imageAspect=0;aspect=fixed;verticalLabelPosition=bottom;verticalAlign=top;image=data:image/jpeg,/9j/4AAQSkZJRgABAQEAYABgAAD/4SWyRXhpZgAATU0AKgAAAAgABgALAAIAAAAmAAAIYgESAAMAAAABAAEAAAExAAIAAAAmAAAIiAEyAAIAAAAUAAAIrodpAAQAAAABAAAIwuocAAcAAAgMAAAAVgAAEUYc6gAAAAgAAAAAAAAAAAAAAAAAAAAAAAAAAAAAAAAAAAAAAAAAAAAAAAAAAAAAAAAAAAAAAAAAAAAAAAAAAAAAAAAAAAAAAAAAAAAAAAAAAAAAAAAAAAAAAAAAAAAAAAAAAAAAAAAAAAAAAAAAAAAAAAAAAAAAAAAAAAAAAAAAAAAAAAAAAAAAAAAAAAAAAAAAAAAAAAAAAAAAAAAAAAAAAAAAAAAAAAAAAAAAAAAAAAAAAAAAAAAAAAAAAAAAAAAAAAAAAAAAAAAAAAAAAAAAAAAAAAAAAAAAAAAAAAAAAAAAAAAAAAAAAAAAAAAAAAAAAAAAAAAAAAAAAAAAAAAAAAAAAAAAAAAAAAAAAAAAAAAAAAAAAAAAAAAAAAAAAAAAAAAAAAAAAAAAAAAAAAAAAAAAAAAAAAAAAAAAAAAAAAAAAAAAAAAAAAAAAAAAAAAAAAAAAAAAAAAAAAAAAAAAAAAAAAAAAAAAAAAAAAAAAAAAAAAAAAAAAAAAAAAAAAAAAAAAAAAAAAAAAAAAAAAAAAAAAAAAAAAAAAAAAAAAAAAAAAAAAAAAAAAAAAAAAAAAAAAAAAAAAAAAAAAAAAAAAAAAAAAAAAAAAAAAAAAAAAAAAAAAAAAAAAAAAAAAAAAAAAAAAAAAAAAAAAAAAAAAAAAAAAAAAAAAAAAAAAAAAAAAAAAAAAAAAAAAAAAAAAAAAAAAAAAAAAAAAAAAAAAAAAAAAAAAAAAAAAAAAAAAAAAAAAAAAAAAAAAAAAAAAAAAAAAAAAAAAAAAAAAAAAAAAAAAAAAAAAAAAAAAAAAAAAAAAAAAAAAAAAAAAAAAAAAAAAAAAAAAAAAAAAAAAAAAAAAAAAAAAAAAAAAAAAAAAAAAAAAAAAAAAAAAAAAAAAAAAAAAAAAAAAAAAAAAAAAAAAAAAAAAAAAAAAAAAAAAAAAAAAAAAAAAAAAAAAAAAAAAAAAAAAAAAAAAAAAAAAAAAAAAAAAAAAAAAAAAAAAAAAAAAAAAAAAAAAAAAAAAAAAAAAAAAAAAAAAAAAAAAAAAAAAAAAAAAAAAAAAAAAAAAAAAAAAAAAAAAAAAAAAAAAAAAAAAAAAAAAAAAAAAAAAAAAAAAAAAAAAAAAAAAAAAAAAAAAAAAAAAAAAAAAAAAAAAAAAAAAAAAAAAAAAAAAAAAAAAAAAAAAAAAAAAAAAAAAAAAAAAAAAAAAAAAAAAAAAAAAAAAAAAAAAAAAAAAAAAAAAAAAAAAAAAAAAAAAAAAAAAAAAAAAAAAAAAAAAAAAAAAAAAAAAAAAAAAAAAAAAAAAAAAAAAAAAAAAAAAAAAAAAAAAAAAAAAAAAAAAAAAAAAAAAAAAAAAAAAAAAAAAAAAAAAAAAAAAAAAAAAAAAAAAAAAAAAAAAAAAAAAAAAAAAAAAAAAAAAAAAAAAAAAAAAAAAAAAAAAAAAAAAAAAAAAAAAAAAAAAAAAAAAAAAAAAAAAAAAAAAAAAAAAAAAAAAAAAAAAAAAAAAAAAAAAAAAAAAAAAAAAAAAAAAAAAAAAAAAAAAAAAAAAAAAAAAAAAAAAAAAAAAAAAAAAAAAAAAAAAAAAAAAAAAAAAAAAAAAAAAAAAAAAAAAAAAAAAAAAAAAAAAAAAAAAAAAAAAAAAAAAAAAAAAAAAAAAAAAAAAAAAAAAAAAAAAAAAAAAAAAAAAAAAAAAAAAAAAAAAAAAAAAAAAAAAAAAAAAAAAAAAAAAAAAAAAAAAAAAAAAAAAAAAAAAAAAAAAAAAAAAAAAAAAAAAAAAAAAAAAAAAAAAAAAAAAAAAAAAAAAAAAAAAAAAAAAAAAAAAAAAAAAAAAAAAAAAAAAAAAAAAAAAAAAAAAAAAAAAAAAAAAAAAAAAAAAAAAAAAAAAAAAAAAAAAAAAAAAAAAAAAAAAAAAAAAAAAAAAAAAAAAAAAAAAAAAAAAAAAAAAAAAAAAAAAAAAAAAAAAAAAAAAAAAAAAAAAAAAAAAAAAAAAAAAAAAAAAAAAAAAAAAAAAAAAAAAAAAAAAAAAAAAAAAAAAAAAAAAAAAAAAAAAAAAAAAAAAAAAAAAAAAAAAAAAAAAAAAAAAAAAAAAAAAAAAAAAAAAAAAAAAAAAAAAAAAAAAAAAAAAAAAAAAAAAAAAAAAAAAAAAAAAAAAAAAAAAAAAAAAAAAAAAAAAAAAAAAAAAAAAAAAAAAAAAAAAAAAAAAAAAAAAAAAAAAAAAAAAAAAAAAAAAAAAAAAAAAAAAAAAAAAAAAAAAAAAAAAAAAAAAAAAAAAAAAAAAAAAAAAAAAAAAAAAAAAAAAAAAAAAAAAAAAAAAAAAAAAAAAAAAAAAAAAAAAAAAAAAAAAAAAAAAAAAAAAAAAAAAAAAAAAAAAAAAAAAAAAAAAAAAAAAAAAAAAAAAAAAAAAAAAAAAAAAAAAAAAAAAAAAAAAAAAAAAAAAAAAAAAAAAAAAAAAAAAAAAAAAAAAAAAAAAAAAAAAAAAAAAAAAAAAAAAAAAAAAAAAAAAAAAAAAAAAAAAAAAAAAAAAAAAAAAAAAAAAAAAAAAAAAAAAAAAAAAAAAAAAAAAAAAAAAAAAAAAAAAAAAAAAAAAAAAAAAAAAAAAAAAAAAAAAAAAAAAAAAAAAAAAAAAAAAAAAAAAAAAAAAAAAAAAAAAAAAAAAAAAAAAAAAAAAAAAAAAAAAAAAAAAAAAAAAAAAAAAAAAAAAAAAAAAAAAAAAAAAAAAAAAAAAAAAAAAAAAAAAAAAAAAAAAAAAFdpbmRvd3MgUGhvdG8gRWRpdG9yIDEwLjAuMTAwMTEuMTYzODQAV2luZG93cyBQaG90byBFZGl0b3IgMTAuMC4xMDAxMS4xNjM4NAAyMDIzOjA1OjA4IDEzOjQ3OjM0AAAGkAMAAgAAABQAABEckAQAAgAAABQAABEwkpEAAgAAAAMwMAAAkpIAAgAAAAMwMAAAoAEAAwAAAAEAAQAA6hwABwAACAwAAAkQAAAAABzqAAAACAAAAAAAAAAAAAAAAAAAAAAAAAAAAAAAAAAAAAAAAAAAAAAAAAAAAAAAAAAAAAAAAAAAAAAAAAAAAAAAAAAAAAAAAAAAAAAAAAAAAAAAAAAAAAAAAAAAAAAAAAAAAAAAAAAAAAAAAAAAAAAAAAAAAAAAAAAAAAAAAAAAAAAAAAAAAAAAAAAAAAAAAAAAAAAAAAAAAAAAAAAAAAAAAAAAAAAAAAAAAAAAAAAAAAAAAAAAAAAAAAAAAAAAAAAAAAAAAAAAAAAAAAAAAAAAAAAAAAAAAAAAAAAAAAAAAAAAAAAAAAAAAAAAAAAAAAAAAAAAAAAAAAAAAAAAAAAAAAAAAAAAAAAAAAAAAAAAAAAAAAAAAAAAAAAAAAAAAAAAAAAAAAAAAAAAAAAAAAAAAAAAAAAAAAAAAAAAAAAAAAAAAAAAAAAAAAAAAAAAAAAAAAAAAAAAAAAAAAAAAAAAAAAAAAAAAAAAAAAAAAAAAAAAAAAAAAAAAAAAAAAAAAAAAAAAAAAAAAAAAAAAAAAAAAAAAAAAAAAAAAAAAAAAAAAAAAAAAAAAAAAAAAAAAAAAAAAAAAAAAAAAAAAAAAAAAAAAAAAAAAAAAAAAAAAAAAAAAAAAAAAAAAAAAAAAAAAAAAAAAAAAAAAAAAAAAAAAAAAAAAAAAAAAAAAAAAAAAAAAAAAAAAAAAAAAAAAAAAAAAAAAAAAAAAAAAAAAAAAAAAAAAAAAAAAAAAAAAAAAAAAAAAAAAAAAAAAAAAAAAAAAAAAAAAAAAAAAAAAAAAAAAAAAAAAAAAAAAAAAAAAAAAAAAAAAAAAAAAAAAAAAAAAAAAAAAAAAAAAAAAAAAAAAAAAAAAAAAAAAAAAAAAAAAAAAAAAAAAAAAAAAAAAAAAAAAAAAAAAAAAAAAAAAAAAAAAAAAAAAAAAAAAAAAAAAAAAAAAAAAAAAAAAAAAAAAAAAAAAAAAAAAAAAAAAAAAAAAAAAAAAAAAAAAAAAAAAAAAAAAAAAAAAAAAAAAAAAAAAAAAAAAAAAAAAAAAAAAAAAAAAAAAAAAAAAAAAAAAAAAAAAAAAAAAAAAAAAAAAAAAAAAAAAAAAAAAAAAAAAAAAAAAAAAAAAAAAAAAAAAAAAAAAAAAAAAAAAAAAAAAAAAAAAAAAAAAAAAAAAAAAAAAAAAAAAAAAAAAAAAAAAAAAAAAAAAAAAAAAAAAAAAAAAAAAAAAAAAAAAAAAAAAAAAAAAAAAAAAAAAAAAAAAAAAAAAAAAAAAAAAAAAAAAAAAAAAAAAAAAAAAAAAAAAAAAAAAAAAAAAAAAAAAAAAAAAAAAAAAAAAAAAAAAAAAAAAAAAAAAAAAAAAAAAAAAAAAAAAAAAAAAAAAAAAAAAAAAAAAAAAAAAAAAAAAAAAAAAAAAAAAAAAAAAAAAAAAAAAAAAAAAAAAAAAAAAAAAAAAAAAAAAAAAAAAAAAAAAAAAAAAAAAAAAAAAAAAAAAAAAAAAAAAAAAAAAAAAAAAAAAAAAAAAAAAAAAAAAAAAAAAAAAAAAAAAAAAAAAAAAAAAAAAAAAAAAAAAAAAAAAAAAAAAAAAAAAAAAAAAAAAAAAAAAAAAAAAAAAAAAAAAAAAAAAAAAAAAAAAAAAAAAAAAAAAAAAAAAAAAAAAAAAAAAAAAAAAAAAAAAAAAAAAAAAAAAAAAAAAAAAAAAAAAAAAAAAAAAAAAAAAAAAAAAAAAAAAAAAAAAAAAAAAAAAAAAAAAAAAAAAAAAAAAAAAAAAAAAAAAAAAAAAAAAAAAAAAAAAAAAAAAAAAAAAAAAAAAAAAAAAAAAAAAAAAAAAAAAAAAAAAAAAAAAAAAAAAAAAAAAAAAAAAAAAAAAAAAAAAAAAAAAAAAAAAAAAAAAAAAAAAAAAAAAAAAAAAAAAAAAAAAAAAAAAAAAAAAAAAAAAAAAAAAAAAAAAAAAAAAAAAAAAAAAAAAAAAAAAAAAAAAAAAAAAAAAAAAAAAAAAAAAAAAAAAAAAAAAAAAAAAAAAAAAAAAAAAAAAAAAAAAAAAAAAAAAAAAAAAAAAAAAAAAAAAAAAAAAAAAAAAAAAAAAAAAAAAAAAAAAAAAAAAAAAAAAAAAAAAAAAAAAAAAAAAAAAAAAAAAAAAAAAAAAAAAAAAAAAAAAAAAAAAAAAAAAAAAAAAAAAAAAAAAAAAAAAAAAAAAAAAAAAAAAAAAAAAAAAAAAAAAAAAAAAAAAAAAAAAAAAAAAAAAAAAAAAAAAAAAAAAAAAAAAAAAAAAAAAAAAAAAAAAAAAAAAAAAAAAAAAAAAAAAAAAAAAAAAAAAAAAAAAAAAAAAAAAAAAAAAAAAAAAAAAAAAAAAAAAAAAAAAAAAAAAAAAAAAAAAAAAAAAAAAAAAAAAAAAAAAAAAAAAAAAAAAAAAAAAAAAAAAAAAAAAAAAAAAAAAAAAAAAAAAAAAAAAAAAAAAAAAAAAAAAAAAAAAAAAAAAAAAAAAAAAAAAAAAAAAAAAAAAAAAAAAAAAAAAAAAAAAAAAAAAAAAAAAAAAAAAAAAAAAAAAAAAAAAAAAAAAAAAAAAAAAAAAAAAAAAAAAAAAAAAAAAAAAAAAAAAAAAAAAAAAAAAAAAAAAAAAAAAAAAAAAAAAAAAAAAAAAAAAAAAAAAAAAAAAAAAAAAAAAAAAAAAAAAAAAAAAAAAAAAAAAAAAAAAAAAAAAAAAAAAAAAAAAAAAAAAAAAAAAAAAAAAAAAAAAAAAAAAAAAAAAAAAAAAAAMjAyMzowNTowOCAxMzo0Njo1MAAyMDIzOjA1OjA4IDEzOjQ2OjUwAAAAAAYBAwADAAAAAQAGAAABGgAFAAAAAQAAEZQBGwAFAAAAAQAAEZwBKAADAAAAAQACAAACAQAEAAAAAQAAEaQCAgAEAAAAAQAAFAUAAAAAAAAAYAAAAAEAAABgAAAAAf/Y/9sAQwAIBgYHBgUIBwcHCQkICgwUDQwLCwwZEhMPFB0aHx4dGhwcICQuJyAiLCMcHCg3KSwwMTQ0NB8nOT04MjwuMzQy/9sAQwEJCQkMCwwYDQ0YMiEcITIyMjIyMjIyMjIyMjIyMjIyMjIyMjIyMjIyMjIyMjIyMjIyMjIyMjIyMjIyMjIyMjIy/8AAEQgARwDYAwEhAAIRAQMRAf/EAB8AAAEFAQEBAQEBAAAAAAAAAAABAgMEBQYHCAkKC//EALUQAAIBAwMCBAMFBQQEAAABfQECAwAEEQUSITFBBhNRYQcicRQygZGhCCNCscEVUtHwJDNicoIJChYXGBkaJSYnKCkqNDU2Nzg5OkNERUZHSElKU1RVVldYWVpjZGVmZ2hpanN0dXZ3eHl6g4SFhoeIiYqSk5SVlpeYmZqio6Slpqeoqaqys7S1tre4ubrCw8TFxsfIycrS09TV1tfY2drh4uPk5ebn6Onq8fLz9PX29/j5+v/EAB8BAAMBAQEBAQEBAQEAAAAAAAABAgMEBQYHCAkKC//EALURAAIBAgQEAwQHBQQEAAECdwABAgMRBAUhMQYSQVEHYXETIjKBCBRCkaGxwQkjM1LwFWJy0QoWJDThJfEXGBkaJicoKSo1Njc4OTpDREVGR0hJSlNUVVZXWFlaY2RlZmdoaWpzdHV2d3h5eoKDhIWGh4iJipKTlJWWl5iZmqKjpKWmp6ipqrKztLW2t7i5usLDxMXGx8jJytLT1NXW19jZ2uLj5OXm5+jp6vLz9PX29/j5+v/aAAwDAQACEQMRAD8A9/ooAKKACkz7UAGaWgAooAKKACigAooAKKACigAooAKKACigAooAKKACigBjuERmYhVUZJJwAK5Kx8THxP4iax0gn+zbP57q7H/LQ/wovsSDk98H8emhR54yqS2ivx6L7zGrU5XGC3f9M68daWuY2CigApM0ALSbqAGmVFkVCyh2GQueTTs0BcWigAooAKKACigBpcKCSQABkknpUNve2t2rNbXEM6qcExSBsH8Kai2rpaCuk7E4OTRSGLRQAHpVW+1C106ylu7yZIbeMZZ2PH/16cYuUlGOrYpSUVdniHjLx7d+Jpjp+niSHTi2Ag+/Me2fb/Z/rXqHhnSbfwb4R/0llR442uLt/VsZP5DA/Cvex1FYbCww0d5O7PKwtT21eVZ7JaGd4B8bN4knvrW72pco7Swr6xE9PqP6iu5BzXl47D/V67prY7sLW9rSUxaK5DoEPSvB/Cuv6jpniO1v7u8uJNPluWtZPMkLKucc8/UH8DXsZZSjUpVYtatK3rqefjZuE6bX9bHuV1cxWdnNcztthiQuzegAzXiWg6jqd/8AELS726mmWPUJmnSLedoTLADHp8v6UsspxdKrOS6WX3N/oGNm+eEV3PQ9T07QJvH+nXN1fyx6ukYMNsCdrgbsHp/vd+1dJf6nY6TbG4vrqK3iH8UjYyfQeprjre2q+zg49NPNXOin7OHPK/XUpaV4s0TW7lrfTtQjnmUFigDKcDvggVE/jXw9Hb3E76lGI7d/LlO1shueAMZJ4PTPSj6jiedw5NVb8dh/WqXKpc2n+RoPrOnx6WmpSXUUdk6B1mkbaCCMjr/LrWdZ+N/Dd/dLbW+rQNMxwqtlcn2JABqIYSvOLlGN0txyxFKLSb3Nm6vbayt2uLqeOCFPvPIwUD8TWZp3izQtWu/slhqUM05BIQZBIHpkc1MMPVnB1Ix0W7KlWhGSi3qy1qet6bo0Ky6jeRWyN93e3LfQdT+FVtL8V6HrUph0/UYZpuvl8qx+gYAn8KccLWlTdVR91dROvTU+RvU4f4ra7A9tb6NDeASicG7iXOVXaCM+3OavprXhTwt4Yu7jw/cwLLIpWPl2EsqrkA5+o9OterHDV3haVOK92Tu/wt+BwurTVec29UtP1/E0fA/jCDXdMtYby+ifV38wyQqu0gBjjgcfdxRXmYzDuhWlBqyvp6dDtw9VVaalf19TsaK5jYztb1q00HSptQvSRFGPuryzE9FHua8B8U+LtQ8U3m+4by7VDmK3U/KvufU+9e/kmEUpOvLpojyczr2SpLrudB8K/Df9pay2rXCE21kf3eRw0nb8uv1xXQfFzxD9nsYdDgf95cfvJ8dkB+Ufief+A1tW/wBozSMekf01/Mzp/usE5fzf8MeW6Lqs+h6vbajbE74X3EZ+8O4P1GRX0rpmoQarp1vfWz7oZ0DqfT2+o6Vnn1HWFX5f1+JeVVNJQ+Zcor549cO1eKeHdE/t3wD4hgRN08N350PruVc4/EZH416uXVPZ05z7OH5nBjIc84x8pfkaGoeJ5vEHgTR9Jtn3alqUotZueRsIyT9flP0JqfUrGHTvir4YsrdcQwWiRoPYb/1rtjT9hel5Tf6L9Tmc/a2n/hX6lnXf+S1aH/17D/2rVW+t08T/ABfbTdRJeysYtyQMflb5VPT3Lc+oFZ03yKNRbxp3Xrcua5m4PZz/AEPQ7bQtKs7pLm1062gmRSivFGEO09uPpXmXw/0Cw1jxBrtxqECXCW85CRSDK7mZskjueP1Nc2FxNVUa1S+tlr8zavRp+0pwtpd/kXvE1tDqHxH0Hw7Koj0qKEOIF4QkBzjH0UCtX4g+HtITwZd3MVjbQT2wVonijCEfMBjjtg1tGtUp1MPGL0dm/O71M3SjONVtbaLysjF1HTtX8U/DrQLuBTdzWzF5rdm5mCkqDz1OB+prY8Na94cutXgtG0MaPrCAiOOSAITxyA2ATxnqKdWLnRlChK3I5XXdX/HQUGo1IyqK/MlZ9mZmkW8PiX4p6y2qxrOlgCkEMgyoAbaDg/ifxpnxQ0600eHTNX02GO0vEuNu6FQm7gkEgemP1rSFSccXTop+7ypW6arUmUE8POp9q7d/mJ8UrS1MOj3q2sSXFzOPNfYNzDaOCe+K6nxToelW3gvVPI020j8u2kkTbCo2tt6jjg8D8qw9tUVKglJ7v8Gka+zg51W10X5FL4Y6bZDwjp9+LSAXhMoM+wbyN7D73XpxRXDjpyliZ3ezf5nThYqNGNl0X5Hc0h6VyHQeGfE7xP8A2vrP9m2zk2dkSCQeHk7n8On51xNpazX15DaW6F5pnCIo7k8CvuMDTVDCxT7Xf5nzGJn7Wu2u9j6O0fTrTwp4Yjg3ARWsRkmkA+8cZZq+fNe1abXdbutRmyGmfKqf4VHAH4DFeXkydWtUrvr+up3Zi+SnCkjOr0/4TeJvs9zJoNy/7uUmS2J7P/Ev44z9frXpZpR9rhZLqtfu/wCAceBqclePnoewA0tfEn0oh6VyfgbwzeeGLO+hvJYJGuLjzVMLEgDHfIHNdFOtGNGdN7yt+BjOm5VIz7X/ABM/Qfh//Y/jS61hpYmtMu1rEpO5C3XPGMAEgc+lX9T8L3d74+03X0mgW2tIwjxsTvJ+bpxj+Id67J5gp1faNfZ5fnb/ADOeOEcafIn9q4aj4Xu7z4g6d4gSaBba1h8to2J3k/P04x/EO9V/E/gy8vtbh17Qr1LTVIwFbzPuOAMDPB5xx0NKnjoRnC6ulHlfn6DnhpSjKz1vdGhokPi06gs2uXOnC1VCBDahss3Ykkfyqv4O8LXfh281eW6mgkW9mEieUTlRljzkD1FROvh4wqU6KdpJb+TuVGlVlKE6jV1f8g8YeDpNentdR0+7FnqtoR5Up+6wzkA454PQ+5rFvfCvjXxFCljrerWMViGBkFspLSY9RgZ/P8K2w+Nw8acfaxvKGxlWw1VykqbtGW50Op6VrVhp+nW/hae2hS0Uo8NyPlkXAx0HXg+nWsez8J69qviiz1zxJcWiG0A8qG0B5IORkntk571FLFUIU3UaftHdeWvUqdCrKShdcit66Euu+DdS/wCEi/4SDw3fRWt84xNHNnY/vwD1wOMVU/4QvX/EGqWt14r1C2e2tzlLW2Bw3qDwOuBnrWtPMKEYRm4v2sVZPp6kTwlVycU/cbua3jjwxe+JYdOSzlgj+zTGR/OZhke2Aea6HVbFdU0e7sGcoLiFotw7ZGM1xPEL2dKK3i3+dzpVF8830lb8jmPBmgeJfDxjsLu70+XSoi5UR7vMyee4Axk5opYyrSq1nUpJpPe/ceGhOFNRm9jta5Lx/wCJx4d8PuIXAvrrMcHqv95vwB/MilhKPtq8afd/8OPEVPZ0pSPn0kkkk5ycnNeo/CTw35s0uvXKfLHmK2BH8X8TfgOPxNfWZpV9lhZeen3ng4Gnz115anrbIGRlYBlIwQR1rw/4h+CG0O5Op6fGTpszfMo/5YMe3+6e3/6q8DJ8T7KvyPaX59P8j1Mxo89LmW6OCqW3uJbW5iuIHMc0TB0cHkEHIr65pNWZ4CbTufSPhbXovEeg2+oR4EjDZKg/gcdR/X6EVtV8BXpOlUlTfRn1lKfPBS7hTSOKyLMyx8Q6RqOoS2NpfxTXMWd8ak5GDg1p1dSlOlLlmrMiFSM1eLFxRioLDHvRigAoxQAYoxQAYox70AGKMe9ABj3ooAZLKkMLySsERFLMxPAA6mvnLxh4ifxLr815uYWy/Jbof4UHf6nr+Ne7kVHmqyq9lb7zy80qWgoLqZ2j6XPrWrW2nWw/eTuFz/dHdvoBk/hX0tpmnwaVp1vY2y7YYECL747n3Na59W1hSXr/AF+JGVU9JT+RcqC5tYbu1ktriNZYZFKujDgg188m07rc9ZpNWZ8/+N/CE/hfUsxhpNPnJMEp7eqn3H61y1feYSuq9GNTv+Z8tXpeyqOHY7b4aeJv7D18Wlw+LK9IRsnhH/hb+n4+1e85r5rOqPJiOf8AmX5aHs5bU5qPK+gp6Vi+LNZGheGb6/BAkSMrFk9XPC/qf0rzKFP2lWMO7R21Z8kHLseS2djP4Pj8M+J33Yunb7UPRW6fmhz9RXsupX0tlpU15a2j3siKGSCI8yc9uD616mZctapCpeyba+5/5M4sHenGUd2rP70cVffErUdNh8++8I3tvETtDSy7QT6cpV/VPH0mk+GtP1i50aRWvHKrA0+CowSDnb3HtSeVwvDkqp8ztt5eo1jpWlzQtZX/AK0Ol1jUxpOiXWpGIyi3iMnlhsbsds1jf8Jkp8CHxP8AYW2gZ+z+bz9/Z97H49K4qOF9pBSva8lH7+p0VK/JJxtsmyhpnxDbV7+xgstEuZIZii3FwGJS3Zu2dvOO/SrereNjb6u+k6NpU+rX0QzMsT7Uj+rYPNdEsu5avJKasldvsZLGXhzKPkvMl8NeM4devbjTrmyl0/U7cZe2lOcj1BwM9R2711FcmJoOhU5L37Pujoo1faw5rWCiuc1CigAooA5rxlpOra7o/wDZulzW8KzH/SHmZh8n90YB69//AK9cLB8GLpsfaNZhj/65wFv5kV7OBzOnhaPIotybv2R5uJwU69Tmbsjr/CPw/s/Ct1Ldi6e6uHTYrsm0IO+Bk9ePyrr68/F4l4mq6jVjrw9BUafIhGkVBlmAHuaoT69pFtkT6pZREdnnUH+dYwpTnpBNmkpxirydjnte8TeDdR02aw1DVLeWKQYxGC5B7EEA8ivCL2KCG9mjtbgXFurERyhSu5exweRX1GTUsRRjKNSNo7o8TMalKo1KDuyAdeOtfQPw88Tf8JD4fRJ33XtriObPVh/C34j9Qaed0efDqa+y/wA/6QZZU5arj3OuPSvLvidc3OsaxpnhiwAedz5zqTgZ52g/Qbj+Irw8sS+sKcto3f3Hp41v2Lit3ZDNf0zxzqnh2SwvNP0wWsSBgIW+ddnTbz1wMfjXRfD/AMQRX/gqOS5lCtYKYZmdsYVR8pP/AAHH5GurERoVMJ/s7btLrvqYUXVhXvWsrr8jE09JPiJ4mOqXSlfD9g+LaFv+W7juR/P8B61J8YkJ8P6ewHyrdYyO3yn/AAq6b5MbSoLaGnzauyZpyw9So95fl0Oh8Z31sPAGoTeahjmttsbA/fLYAxXKdPgK3ug/9HissJFqjC6/5eIuu06krfyM63wFBHB4H0sRoF3xb2wOpJJJrgfCNrrs+u69DpuswWF0LktMk0AkaT5m559P61dGcL4h1VzK+3zJqRlaioO3/DHVaP4P1W28Zx67qmsQXU/lsrKkOwuNu0dOOOO1d3Xn4yvCtNOEbJJL7jrw1KVOLUndt3CiuQ6AooAKKAExRigAIyCPX0rPn0W1uT+9kuz7LdyqP0arhUcHdW+5P8yZQUlZmXP4C8O3JzPZySE93uZD/Nqrn4aeEz/zDP8AyPJ/8VXbHNMVFWUvwX+RzPA0G7tfixp+GPhL/oGsPpcSf/FU0/C/wp/z4SD6XD/41f8Aa+M/m/BE/wBn4ft+LGn4W+FT/wAucw/7eH/xrS0TwXo/h6+a705Jo5GQowMrMGHuDUVc0xNWDhNpp+RUMDRhJSitV5nQnpWFD4T0+HxPL4g3zyX0gI+dgVUYA4GOOBiuSlWlSUlH7St8jepTU2r9Hc3MVySfDrR4rS/tIp76O3vmDSxpKAvBJAHHTmtMPip0LqNtbb+WqJq0I1bN9L/iU1+FGgKMLcaio9BOP/ia3B4Q0s+GxoMqyzWYJIMj5cHJOQfXJrorZnXq2vbR30RjTwNKF0r6qxkQfC7QYYJIZJr64RkKoJpgRFnqVAUAH862D4T04+Ff+Ed3T/Ycbc7hvxu3dcevtSrZlWqtOVtGn80Ong6cE0r6qxoaZpsGk6Zb2FuXMMCbE3nJx7msTWvAml6zqI1Hzbmyve89o+wt9eD+fWsaOLqUqrqrre66O5pUw8KkFB9C1oXhOz0G5luo7q9u7mVNjS3c29tuc4HArerOvWlWnzy09C6VNU48q19QorE0CigAooA//9kA//4APENSRUFUT1I6IGdkLWpwZWcgdjEuMCAodXNpbmcgSUpHIEpQRUcgdjYyKSwgcXVhbGl0eSA9IDkwCgD/4THkaHR0cDovL25zLmFkb2JlLmNvbS94YXAvMS4wLwA8P3hwYWNrZXQgYmVnaW49J++7vycgaWQ9J1c1TTBNcENlaGlIenJlU3pOVGN6a2M5ZCc/Pg0KPHg6eG1wbWV0YSB4bWxuczp4PSJhZG9iZTpuczptZXRhLyI+PHJkZjpSREYgeG1sbnM6cmRmPSJodHRwOi8vd3d3LnczLm9yZy8xOTk5LzAyLzIyLXJkZi1zeW50YXgtbnMjIj48cmRmOkRlc2NyaXB0aW9uIHJkZjphYm91dD0idXVpZDpmYWY1YmRkNS1iYTNkLTExZGEtYWQzMS1kMzNkNzUxODJmMWIiIHhtbG5zOnhtcD0iaHR0cDovL25zLmFkb2JlLmNvbS94YXAvMS4wLyI+PHhtcDpDcmVhdG9yVG9vbD5XaW5kb3dzIFBob3RvIEVkaXRvciAxMC4wLjEwMDExLjE2Mzg0PC94bXA6Q3JlYXRvclRvb2w+PHhtcDpDcmVhdGVEYXRlPjIwMjMtMDUtMDhUMTM6NDY6NTA8L3htcDpDcmVhdGVEYXRlPjwvcmRmOkRlc2NyaXB0aW9uPjwvcmRmOlJERj48L3g6eG1wbWV0YT4NCiAgICAgICAgICAgICAgICAgICAgICAgICAgICAgICAgICAgICAgICAgICAgICAgICAgICAgICAgICAgICAgICAgICAgICAgICAgICAgICAgICAgICAgICAgICAgICAgICAgICAKICAgICAgICAgICAgICAgICAgICAgICAgICAgICAgICAgICAgICAgICAgICAgICAgICAgICAgICAgICAgICAgICAgICAgICAgICAgICAgICAgICAgICAgICAgICAgICAgICAgIAogICAgICAgICAgICAgICAgICAgICAgICAgICAgICAgICAgICAgICAgICAgICAgICAgICAgICAgICAgICAgICAgICAgICAgICAgICAgICAgICAgICAgICAgICAgICAgICAgICAgCiAgICAgICAgICAgICAgICAgICAgICAgICAgICAgICAgICAgICAgICAgICAgICAgICAgICAgICAgICAgICAgICAgICAgICAgICAgICAgICAgICAgICAgICAgICAgICAgICAgICAKICAgICAgICAgICAgICAgICAgICAgICAgICAgICAgICAgICAgICAgICAgICAgICAgICAgICAgICAgICAgICAgICAgICAgICAgICAgICAgICAgICAgICAgICAgICAgICAgICAgIAogICAgICAgICAgICAgICAgICAgICAgICAgICAgICAgICAgICAgICAgICAgICAgICAgICAgICAgICAgICAgICAgICAgICAgICAgICAgICAgICAgICAgICAgICAgICAgICAgICAgCiAgICAgICAgICAgICAgICAgICAgICAgICAgICAgICAgICAgICAgICAgICAgICAgICAgICAgICAgICAgICAgICAgICAgICAgICAgICAgICAgICAgICAgICAgICAgICAgICAgICAKICAgICAgICAgICAgICAgICAgICAgICAgICAgICAgICAgICAgICAgICAgICAgICAgICAgICAgICAgICAgICAgICAgICAgICAgICAgICAgICAgICAgICAgICAgICAgICAgICAgIAogICAgICAgICAgICAgICAgICAgICAgICAgICAgICAgICAgICAgICAgICAgICAgICAgICAgICAgICAgICAgICAgICAgICAgICAgICAgICAgICAgICAgICAgICAgICAgICAgICAgCiAgICAgICAgICAgICAgICAgICAgICAgICAgICAgICAgICAgICAgICAgICAgICAgICAgICAgICAgICAgICAgICAgICAgICAgICAgICAgICAgICAgICAgICAgICAgICAgICAgICAKICAgICAgICAgICAgICAgICAgICAgICAgICAgICAgICAgICAgICAgICAgICAgICAgICAgICAgICAgICAgICAgICAgICAgICAgICAgICAgICAgICAgICAgICAgICAgICAgICAgIAogICAgICAgICAgICAgICAgICAgICAgICAgICAgICAgICAgICAgICAgICAgICAgICAgICAgICAgICAgICAgICAgICAgICAgICAgICAgICAgICAgICAgICAgICAgICAgICAgICAgCiAgICAgICAgICAgICAgICAgICAgICAgICAgICAgICAgICAgICAgICAgICAgICAgICAgICAgICAgICAgICAgICAgICAgICAgICAgICAgICAgICAgICAgICAgICAgICAgICAgICAKICAgICAgICAgICAgICAgICAgICAgICAgICAgICAgICAgICAgICAgICAgICAgICAgICAgICAgICAgICAgICAgICAgICAgICAgICAgICAgICAgICAgICAgICAgICAgICAgICAgIAogICAgICAgICAgICAgICAgICAgICAgICAgICAgICAgICAgICAgICAgICAgICAgICAgICAgICAgICAgICAgICAgICAgICAgICAgICAgICAgICAgICAgICAgICAgICAgICAgICAgCiAgICAgICAgICAgICAgICAgICAgICAgICAgICAgICAgICAgICAgICAgICAgICAgICAgICAgICAgICAgICAgICAgICAgICAgICAgICAgICAgICAgICAgICAgICAgICAgICAgICAKICAgICAgICAgICAgICAgICAgICAgICAgICAgICAgICAgICAgICAgICAgICAgICAgICAgICAgICAgICAgICAgICAgICAgICAgICAgICAgICAgICAgICAgICAgICAgICAgICAgIAogICAgICAgICAgICAgICAgICAgICAgICAgICAgICAgICAgICAgICAgICAgICAgICAgICAgICAgICAgICAgICAgICAgICAgICAgICAgICAgICAgICAgICAgICAgICAgICAgICAgCiAgICAgICAgICAgICAgICAgICAgICAgICAgICAgICAgICAgICAgICAgICAgICAgICAgICAgICAgICAgICAgICAgICAgICAgICAgICAgICAgICAgICAgICAgICAgICAgICAgICAKICAgICAgICAgICAgICAgICAgICAgICAgICAgICAgICAgICAgICAgICAgICAgICAgICAgICAgICAgICAgICAgICAgICAgICAgICAgICAgICAgICAgICAgICAgICAgICAgICAgIAogICAgICAgICAgICAgICAgICAgICAgICAgICAgICAgICAgICAgICAgICAgICAgICAgICAgICAgICAgICAgICAgICAgICAgICAgICAgICAgICAgICAgICAgICAgICAgICAgICAgCiAgICAgICAgICAgICAgICAgICAgICAgICAgICAgICAgICAgICAgICAgICAgICAgICAgICAgICAgICAgICAgICAgICAgICAgICAgICAgICAgICAgICAgICAgICAgICAgICAgICAKICAgICAgICAgICAgICAgICAgICAgICAgICAgICAgICAgICAgICAgICAgICAgICAgICAgICAgICAgICAgICAgICAgICAgICAgICAgICAgICAgICAgICAgICAgICAgICAgICAgIAogICAgICAgICAgICAgICAgICAgICAgICAgICAgICAgICAgICAgICAgICAgICAgICAgICAgICAgICAgICAgICAgICAgICAgICAgICAgICAgICAgICAgICAgICAgICAgICAgICAgCiAgICAgICAgICAgICAgICAgICAgICAgICAgICAgICAgICAgICAgICAgICAgICAgICAgICAgICAgICAgICAgICAgICAgICAgICAgICAgICAgICAgICAgICAgICAgICAgICAgICAKICAgICAgICAgICAgICAgICAgICAgICAgICAgICAgICAgICAgICAgICAgICAgICAgICAgICAgICAgICAgICAgICAgICAgICAgICAgICAgICAgICAgICAgICAgICAgICAgICAgIAogICAgICAgICAgICAgICAgICAgICAgICAgICAgICAgICAgICAgICAgICAgICAgICAgICAgICAgICAgICAgICAgICAgICAgICAgICAgICAgICAgICAgICAgICAgICAgICAgICAgCiAgICAgICAgICAgICAgICAgICAgICAgICAgICAgICAgICAgICAgICAgICAgICAgICAgICAgICAgICAgICAgICAgICAgICAgICAgICAgICAgICAgICAgICAgICAgICAgICAgICAKICAgICAgICAgICAgICAgICAgICAgICAgICAgICAgICAgICAgICAgICAgICAgICAgICAgICAgICAgICAgICAgICAgICAgICAgICAgICAgICAgICAgICAgICAgICAgICAgICAgIAogICAgICAgICAgICAgICAgICAgICAgICAgICAgICAgICAgICAgICAgICAgICAgICAgICAgICAgICAgICAgICAgICAgICAgICAgICAgICAgICAgICAgICAgICAgICAgICAgICAgCiAgICAgICAgICAgICAgICAgICAgICAgICAgICAgICAgICAgICAgICAgICAgICAgICAgICAgICAgICAgICAgICAgICAgICAgICAgICAgICAgICAgICAgICAgICAgICAgICAgICAKICAgICAgICAgICAgICAgICAgICAgICAgICAgICAgICAgICAgICAgICAgICAgICAgICAgICAgICAgICAgICAgICAgICAgICAgICAgICAgICAgICAgICAgICAgICAgICAgICAgIAogICAgICAgICAgICAgICAgICAgICAgICAgICAgICAgICAgICAgICAgICAgICAgICAgICAgICAgICAgICAgICAgICAgICAgICAgICAgICAgICAgICAgICAgICAgICAgICAgICAgCiAgICAgICAgICAgICAgICAgICAgICAgICAgICAgICAgICAgICAgICAgICAgICAgICAgICAgICAgICAgICAgICAgICAgICAgICAgICAgICAgICAgICAgICAgICAgICAgICAgICAKICAgICAgICAgICAgICAgICAgICAgICAgICAgICAgICAgICAgICAgICAgICAgICAgICAgICAgICAgICAgICAgICAgICAgICAgICAgICAgICAgICAgICAgICAgICAgICAgICAgIAogICAgICAgICAgICAgICAgICAgICAgICAgICAgICAgICAgICAgICAgICAgICAgICAgICAgICAgICAgICAgICAgICAgICAgICAgICAgICAgICAgICAgICAgICAgICAgICAgICAgCiAgICAgICAgICAgICAgICAgICAgICAgICAgICAgICAgICAgICAgICAgICAgICAgICAgICAgICAgICAgICAgICAgICAgICAgICAgICAgICAgICAgICAgICAgICAgICAgICAgICAKICAgICAgICAgICAgICAgICAgICAgICAgICAgICAgICAgICAgICAgICAgICAgICAgICAgICAgICAgICAgICAgICAgICAgICAgICAgICAgICAgICAgICAgICAgICAgICAgICAgIAogICAgICAgICAgICAgICAgICAgICAgICAgICAgICAgICAgICAgICAgICAgICAgICAgICAgICAgICAgICAgICAgICAgICAgICAgICAgICAgICAgICAgICAgICAgICAgICAgICAgCiAgICAgICAgICAgICAgICAgICAgICAgICAgICAgICAgICAgICAgICAgICAgICAgICAgICAgICAgICAgICAgICAgICAgICAgICAgICAgICAgICAgICAgICAgICAgICAgICAgICAKICAgICAgICAgICAgICAgICAgICAgICAgICAgICAgICAgICAgICAgICAgICAgICAgICAgICAgICAgICAgICAgICAgICAgICAgICAgICAgICAgICAgICAgICAgICAgICAgICAgIAogICAgICAgICAgICAgICAgICAgICAgICAgICAgICAgICAgICAgICAgICAgICAgICAgICAgICAgICAgICAgICAgICAgICAgICAgICAgICAgICAgICAgICAgICAgICAgICAgICAgCiAgICAgICAgICAgICAgICAgICAgICAgICAgICAgICAgICAgICAgICAgICAgICAgICAgICAgICAgICAgICAgICAgICAgICAgICAgICAgICAgICAgICAgICAgICAgICAgICAgICAKICAgICAgICAgICAgICAgICAgICAgICAgICAgICAgICAgICAgICAgICAgICAgICAgICAgICAgICAgICAgICAgICAgICAgICAgICAgICAgICAgICAgICAgICAgICAgICAgICAgIAogICAgICAgICAgICAgICAgICAgICAgICAgICAgICAgICAgICAgICAgICAgICAgICAgICAgICAgICAgICAgICAgICAgICAgICAgICAgICAgICAgICAgICAgICAgICAgICAgICAgCiAgICAgICAgICAgICAgICAgICAgICAgICAgICAgICAgICAgICAgICAgICAgICAgICAgICAgICAgICAgICAgICAgICAgICAgICAgICAgICAgICAgICAgICAgICAgICAgICAgICAKICAgICAgICAgICAgICAgICAgICAgICAgICAgICAgICAgICAgICAgICAgICAgICAgICAgICAgICAgICAgICAgICAgICAgICAgICAgICAgICAgICAgICAgICAgICAgICAgICAgIAogICAgICAgICAgICAgICAgICAgICAgICAgICAgICAgICAgICAgICAgICAgICAgICAgICAgICAgICAgICAgICAgICAgICAgICAgICAgICAgICAgICAgICAgICAgICAgICAgICAgCiAgICAgICAgICAgICAgICAgICAgICAgICAgICAgICAgICAgICAgICAgICAgICAgICAgICAgICAgICAgICAgICAgICAgICAgICAgICAgICAgICAgICAgICAgICAgICAgICAgICAKICAgICAgICAgICAgICAgICAgICAgICAgICAgICAgICAgICAgICAgICAgICAgICAgICAgICAgICAgICAgICAgICAgICAgICAgICAgICAgICAgICAgICAgICAgICAgICAgICAgIAogICAgICAgICAgICAgICAgICAgICAgICAgICAgICAgICAgICAgICAgICAgICAgICAgICAgICAgICAgICAgICAgICAgICAgICAgICAgICAgICAgICAgICAgICAgICAgICAgICAgCiAgICAgICAgICAgICAgICAgICAgICAgICAgICAgICAgICAgICAgICAgICAgICAgICAgICAgICAgICAgICAgICAgICAgICAgICAgICAgICAgICAgICAgICAgICAgICAgICAgICAKICAgICAgICAgICAgICAgICAgICAgICAgICAgICAgICAgICAgICAgICAgICAgICAgICAgICAgICAgICAgICAgICAgICAgICAgICAgICAgICAgICAgICAgICAgICAgICAgICAgIAogICAgICAgICAgICAgICAgICAgICAgICAgICAgICAgICAgICAgICAgICAgICAgICAgICAgICAgICAgICAgICAgICAgICAgICAgICAgICAgICAgICAgICAgICAgICAgICAgICAgCiAgICAgICAgICAgICAgICAgICAgICAgICAgICAgICAgICAgICAgICAgICAgICAgICAgICAgICAgICAgICAgICAgICAgICAgICAgICAgICAgICAgICAgICAgICAgICAgICAgICAKICAgICAgICAgICAgICAgICAgICAgICAgICAgICAgICAgICAgICAgICAgICAgICAgICAgICAgICAgICAgICAgICAgICAgICAgICAgICAgICAgICAgICAgICAgICAgICAgICAgIAogICAgICAgICAgICAgICAgICAgICAgICAgICAgICAgICAgICAgICAgICAgICAgICAgICAgICAgICAgICAgICAgICAgICAgICAgICAgICAgICAgICAgICAgICAgICAgICAgICAgCiAgICAgICAgICAgICAgICAgICAgICAgICAgICAgICAgICAgICAgICAgICAgICAgICAgICAgICAgICAgICAgICAgICAgICAgICAgICAgICAgICAgICAgICAgICAgICAgICAgICAKICAgICAgICAgICAgICAgICAgICAgICAgICAgICAgICAgICAgICAgICAgICAgICAgICAgICAgICAgICAgICAgICAgICAgICAgICAgICAgICAgICAgICAgICAgICAgICAgICAgIAogICAgICAgICAgICAgICAgICAgICAgICAgICAgICAgICAgICAgICAgICAgICAgICAgICAgICAgICAgICAgICAgICAgICAgICAgICAgICAgICAgICAgICAgICAgICAgICAgICAgCiAgICAgICAgICAgICAgICAgICAgICAgICAgICAgICAgICAgICAgICAgICAgICAgICAgICAgICAgICAgICAgICAgICAgICAgICAgICAgICAgICAgICAgICAgICAgICAgICAgICAKICAgICAgICAgICAgICAgICAgICAgICAgICAgICAgICAgICAgICAgICAgICAgICAgICAgICAgICAgICAgICAgICAgICAgICAgICAgICAgICAgICAgICAgICAgICAgICAgICAgIAogICAgICAgICAgICAgICAgICAgICAgICAgICAgICAgICAgICAgICAgICAgICAgICAgICAgICAgICAgICAgICAgICAgICAgICAgICAgICAgICAgICAgICAgICAgICAgICAgICAgCiAgICAgICAgICAgICAgICAgICAgICAgICAgICAgICAgICAgICAgICAgICAgICAgICAgICAgICAgICAgICAgICAgICAgICAgICAgICAgICAgICAgICAgICAgICAgICAgICAgICAKICAgICAgICAgICAgICAgICAgICAgICAgICAgICAgICAgICAgICAgICAgICAgICAgICAgICAgICAgICAgICAgICAgICAgICAgICAgICAgICAgICAgICAgICAgICAgICAgICAgIAogICAgICAgICAgICAgICAgICAgICAgICAgICAgICAgICAgICAgICAgICAgICAgICAgICAgICAgICAgICAgICAgICAgICAgICAgICAgICAgICAgICAgICAgICAgICAgICAgICAgCiAgICAgICAgICAgICAgICAgICAgICAgICAgICAgICAgICAgICAgICAgICAgICAgICAgICAgICAgICAgICAgICAgICAgICAgICAgICAgICAgICAgICAgICAgICAgICAgICAgICAKICAgICAgICAgICAgICAgICAgICAgICAgICAgICAgICAgICAgICAgICAgICAgICAgICAgICAgICAgICAgICAgICAgICAgICAgICAgICAgICAgICAgICAgICAgICAgICAgICAgIAogICAgICAgICAgICAgICAgICAgICAgICAgICAgICAgICAgICAgICAgICAgICAgICAgICAgICAgICAgICAgICAgICAgICAgICAgICAgICAgICAgICAgICAgICAgICAgICAgICAgCiAgICAgICAgICAgICAgICAgICAgICAgICAgICAgICAgICAgICAgICAgICAgICAgICAgICAgICAgICAgICAgICAgICAgICAgICAgICAgICAgICAgICAgICAgICAgICAgICAgICAKICAgICAgICAgICAgICAgICAgICAgICAgICAgICAgICAgICAgICAgICAgICAgICAgICAgICAgICAgICAgICAgICAgICAgICAgICAgICAgICAgICAgICAgICAgICAgICAgICAgIAogICAgICAgICAgICAgICAgICAgICAgICAgICAgICAgICAgICAgICAgICAgICAgICAgICAgICAgICAgICAgICAgICAgICAgICAgICAgICAgICAgICAgICAgICAgICAgICAgICAgCiAgICAgICAgICAgICAgICAgICAgICAgICAgICAgICAgICAgICAgICAgICAgICAgICAgICAgICAgICAgICAgICAgICAgICAgICAgICAgICAgICAgICAgICAgICAgICAgICAgICAKICAgICAgICAgICAgICAgICAgICAgICAgICAgICAgICAgICAgICAgICAgICAgICAgICAgICAgICAgICAgICAgICAgICAgICAgICAgICAgICAgICAgICAgICAgICAgICAgICAgIAogICAgICAgICAgICAgICAgICAgICAgICAgICAgICAgICAgICAgICAgICAgICAgICAgICAgICAgICAgICAgICAgICAgICAgICAgICAgICAgICAgICAgICAgICAgICAgICAgICAgCiAgICAgICAgICAgICAgICAgICAgICAgICAgICAgICAgICAgICAgICAgICAgICAgICAgICAgICAgICAgICAgICAgICAgICAgICAgICAgICAgICAgICAgICAgICAgICAgICAgICAKICAgICAgICAgICAgICAgICAgICAgICAgICAgICAgICAgICAgICAgICAgICAgICAgICAgICAgICAgICAgICAgICAgICAgICAgICAgICAgICAgICAgICAgICAgICAgICAgICAgIAogICAgICAgICAgICAgICAgICAgICAgICAgICAgICAgICAgICAgICAgICAgICAgICAgICAgICAgICAgICAgICAgICAgICAgICAgICAgICAgICAgICAgICAgICAgICAgICAgICAgCiAgICAgICAgICAgICAgICAgICAgICAgICAgICAgICAgICAgICAgICAgICAgICAgICAgICAgICAgICAgICAgICAgICAgICAgICAgICAgICAgICAgICAgICAgICAgICAgICAgICAKICAgICAgICAgICAgICAgICAgICAgICAgICAgICAgICAgICAgICAgICAgICAgICAgICAgICAgICAgICAgICAgICAgICAgICAgICAgICAgICAgICAgICAgICAgICAgICAgICAgIAogICAgICAgICAgICAgICAgICAgICAgICAgICAgICAgICAgICAgICAgICAgICAgICAgICAgICAgICAgICAgICAgICAgICAgICAgICAgICAgICAgICAgICAgICAgICAgICAgICAgCiAgICAgICAgICAgICAgICAgICAgICAgICAgICAgICAgICAgICAgICAgICAgICAgICAgICAgICAgICAgICAgICAgICAgICAgICAgICAgICAgICAgICAgICAgICAgICAgICAgICAKICAgICAgICAgICAgICAgICAgICAgICAgICAgICAgICAgICAgICAgICAgICAgICAgICAgICAgICAgICAgICAgICAgICAgICAgICAgICAgICAgICAgICAgICAgICAgICAgICAgIAogICAgICAgICAgICAgICAgICAgICAgICAgICAgICAgICAgICAgICAgICAgICAgICAgICAgICAgICAgICAgICAgICAgICAgICAgICAgICAgICAgICAgICAgICAgICAgICAgICAgCiAgICAgICAgICAgICAgICAgICAgICAgICAgICAgICAgICAgICAgICAgICAgICAgICAgICAgICAgICAgICAgICAgICAgICAgICAgICAgICAgICAgICAgICAgICAgICAgICAgICAKICAgICAgICAgICAgICAgICAgICAgICAgICAgICAgICAgICAgICAgICAgICAgICAgICAgICAgICAgICAgICAgICAgICAgICAgICAgICAgICAgICAgICAgICAgICAgICAgICAgIAogICAgICAgICAgICAgICAgICAgICAgICAgICAgICAgICAgICAgICAgICAgICAgICAgICAgICAgICAgICAgICAgICAgICAgICAgICAgICAgICAgICAgICAgICAgICAgICAgICAgCiAgICAgICAgICAgICAgICAgICAgICAgICAgICAgICAgICAgICAgICAgICAgICAgICAgICAgICAgICAgICAgICAgICAgICAgICAgICAgICAgICAgICAgICAgICAgICAgICAgICAKICAgICAgICAgICAgICAgICAgICAgICAgICAgICAgICAgICAgICAgICAgICAgICAgICAgICAgICAgICAgICAgICAgICAgICAgICAgICAgICAgICAgICAgICAgICAgICAgICAgIAogICAgICAgICAgICAgICAgICAgICAgICAgICAgICAgICAgICAgICAgICAgICAgICAgICAgICAgICAgICAgICAgICAgICAgICAgICAgICAgICAgICAgICAgICAgICAgICAgICAgCiAgICAgICAgICAgICAgICAgICAgICAgICAgICAgICAgICAgICAgICAgICAgICAgICAgICAgICAgICAgICAgICAgICAgICAgICAgICAgICAgICAgICAgICAgICAgICAgICAgICAKICAgICAgICAgICAgICAgICAgICAgICAgICAgICAgICAgICAgICAgICAgICAgICAgICAgICAgICAgICAgICAgICAgICAgICAgICAgICAgICAgICAgICAgICAgICAgICAgICAgIAogICAgICAgICAgICAgICAgICAgICAgICAgICAgICAgICAgICAgICAgICAgICAgICAgICAgICAgICAgICAgICAgICAgICAgICAgICAgICAgICAgICAgICAgICAgICAgICAgICAgCiAgICAgICAgICAgICAgICAgICAgICAgICAgICAgICAgICAgICAgICAgICAgICAgICAgICAgICAgICAgICAgICAgICAgICAgICAgICAgICAgICAgICAgICAgICAgICAgICAgICAKICAgICAgICAgICAgICAgICAgICAgICAgICAgICAgICAgICAgICAgICAgICAgICAgICAgICAgICAgICAgICAgICAgICAgICAgICAgICAgICAgICAgICAgICAgICAgICAgICAgIAogICAgICAgICAgICAgICAgICAgICAgICAgICAgICAgICAgICAgICAgICAgICAgICAgICAgICAgICAgICAgICAgICAgICAgICAgICAgICAgICAgICAgICAgICAgICAgICAgICAgCiAgICAgICAgICAgICAgICAgICAgICAgICAgICAgICAgICAgICAgICAgICAgICAgICAgICAgICAgICAgICAgICAgICAgICAgICAgICAgICAgICAgICAgICAgICAgICAgICAgICAKICAgICAgICAgICAgICAgICAgICAgICAgICAgICAgICAgICAgICAgICAgICAgICAgICAgICAgICAgICAgICAgICAgICAgICAgICAgICAgICAgICAgICAgICAgICAgICAgICAgIAogICAgICAgICAgICAgICAgICAgICAgICAgICAgICAgICAgICAgICAgICAgICAgICAgICAgICAgICAgICAgICAgICAgICAgICAgICAgICAgICAgICAgICAgICAgICAgICAgICAgCiAgICAgICAgICAgICAgICAgICAgICAgICAgICAgICAgICAgICAgICAgICAgICAgICAgICAgICAgICAgICAgICAgICAgICAgICAgICAgICAgICAgICAgICAgICAgICAgICAgICAKICAgICAgICAgICAgICAgICAgICAgICAgICAgICAgICAgICAgICAgICAgICAgICAgICAgICAgICAgICAgICAgICAgICAgICAgICAgICAgICAgICAgICAgICAgICAgICAgICAgIAogICAgICAgICAgICAgICAgICAgICAgICAgICAgICAgICAgICAgICAgICAgICAgICAgICAgICAgICAgICAgICAgICAgICAgICAgICAgICAgICAgICAgICAgICAgICAgICAgICAgCiAgICAgICAgICAgICAgICAgICAgICAgICAgICAgICAgICAgICAgICAgICAgICAgICAgICAgICAgICAgICAgICAgICAgICAgICAgICAgICAgICAgICAgICAgICAgICAgICAgICAKICAgICAgICAgICAgICAgICAgICAgICAgICAgICAgICAgICAgICAgICAgICAgICAgICAgICAgICAgICAgICAgICAgICAgICAgICAgICAgICAgICAgICAgICAgICAgICAgICAgIAogICAgICAgICAgICAgICAgICAgICAgICAgICAgICAgICAgICAgICAgICAgICAgICAgICAgICAgICAgICAgICAgICAgICAgICAgICAgICAgICAgICAgICAgICAgICAgICAgICAgCiAgICAgICAgICAgICAgICAgICAgICAgICAgICAgICAgICAgICAgICAgICAgICAgICAgICAgICAgICAgICAgICAgICAgICAgICAgICAgICAgICAgICAgICAgICAgICAgICAgICAKICAgICAgICAgICAgICAgICAgICAgICAgICAgICAgICAgICAgICAgICAgICAgICAgICAgICAgICAgICAgICAgICAgICAgICAgICAgICAgICAgICAgICAgICAgICAgICAgICAgIAogICAgICAgICAgICAgICAgICAgICAgICAgICAgICAgICAgICAgICAgICAgICAgICAgICAgICAgICAgICAgICAgICAgICAgICAgICAgICAgICAgICAgICAgICAgICAgICAgICAgCiAgICAgICAgICAgICAgICAgICAgICAgICAgICAgICAgICAgICAgICAgICAgICAgICAgICAgICAgICAgICAgICAgICAgICAgICAgICAgICAgICAgICAgICAgICAgICAgICAgICAKICAgICAgICAgICAgICAgICAgICAgICAgICAgICAgICAgICAgICAgICAgICAgICAgICAgICAgICAgICAgICAgICAgICAgICAgICAgICAgICAgICAgICAgICAgICAgICAgICAgIAogICAgICAgICAgICAgICAgICAgICAgICAgICAgICAgICAgICAgICAgICAgICAgICAgICAgICAgICAgICAgICAgICAgICAgICAgICAgICAgICAgICAgICAgICAgICAgICAgICAgCiAgICAgICAgICAgICAgICAgICAgICAgICAgICAgICAgICAgICAgICAgICAgICAgICAgICAgICAgICAgICAgICAgICAgICAgICAgICAgICAgICAgICAgICAgICAgICAgICAgICAKICAgICAgICAgICAgICAgICAgICAgICAgICAgICAgICAgICAgICAgICAgICAgICAgICAgICAgICAgICAgICAgICAgICAgICAgICAgICAgICAgICAgICAgICAgICAgICAgICAgIAogICAgICAgICAgICAgICAgICAgICAgICAgICAgICAgICAgICAgICAgICAgICAgICAgICAgICAgICAgICAgICAgICAgICAgICAgICAgICAgICAgICAgICAgICAgICAgICAgICAgCiAgICAgICAgICAgICAgICAgICAgICAgICAgICAgICAgICAgICAgICAgICAgICAgICAgICAgICAgICAgICAgICAgICAgICAgICAgICAgICAgICAgICAgICAgICAgICAgICAgICAKICAgICAgICAgICAgICAgICAgICAgICAgICAgICAgICAgICAgICAgICAgICAgICAgICAgICAgICAgICAgICAgICAgICAgICAgICAgICAgICAgICAgICAgICAgICAgICAgICAgIAogICAgICAgICAgICAgICAgICAgICAgICAgICAgICAgICAgICAgICAgICAgICAgICAgICAgICAgICAgICAgICAgICAgICAgICAgICAgICAgICAgICAgICAgICAgICAgICAgICAgCiAgICAgICAgICAgICAgICAgICAgICAgICAgICAgICAgICAgICAgICAgICAgICAgICAgICAgICAgICAgICAgICAgICAgICAgICAgICAgICAgICAgICAgICAgICAgICAgICAgICAKICAgICAgICAgICAgICAgICAgICAgICAgICAgICAgICAgICAgICAgICAgICAgICAgICAgICAgICAgICAgICAgICAgICAgICAgICAgICAgICAgICAgICAgICAgICAgICAgICAgIAogICAgICAgICAgICAgICAgICAgICAgICAgICAgICAgICAgICAgICAgICAgICAgICAgICAgICAgICAgICAgICAgICAgICAgICAgICAgICAgICAgICAgICAgICAgICAgICAgICAgCiAgICAgICAgICAgICAgICAgICAgICAgICAgICAgICAgICAgICAgICAgICAgICAgICAgICAgICAgICAgICAgICAgICAgICAgICAgICAgICAgICAgICAgICAgICAgICAgICAgICAKICAgICAgICAgICAgICAgICAgICAgICAgICAgICAgICAgICAgICAgICAgICAgICAgICAgICAgICAgICAgICAgICAgIDw/eHBhY2tldCBlbmQ9J3cnPz7/2wBDAAMCAgMCAgMDAwMEAwMEBQgFBQQEBQoHBwYIDAoMDAsKCwsNDhIQDQ4RDgsLEBYQERMUFRUVDA8XGBYUGBIUFRT/2wBDAQMEBAUEBQkFBQkUDQsNFBQUFBQUFBQUFBQUFBQUFBQUFBQUFBQUFBQUFBQUFBQUFBQUFBQUFBQUFBQUFBQUFBT/wAARCABHANgDASIAAhEBAxEB/8QAHwAAAQUBAQEBAQEAAAAAAAAAAAECAwQFBgcICQoL/8QAtRAAAgEDAwIEAwUFBAQAAAF9AQIDAAQRBRIhMUEGE1FhByJxFDKBkaEII0KxwRVS0fAkM2JyggkKFhcYGRolJicoKSo0NTY3ODk6Q0RFRkdISUpTVFVWV1hZWmNkZWZnaGlqc3R1dnd4eXqDhIWGh4iJipKTlJWWl5iZmqKjpKWmp6ipqrKztLW2t7i5usLDxMXGx8jJytLT1NXW19jZ2uHi4+Tl5ufo6erx8vP09fb3+Pn6/8QAHwEAAwEBAQEBAQEBAQAAAAAAAAECAwQFBgcICQoL/8QAtREAAgECBAQDBAcFBAQAAQJ3AAECAxEEBSExBhJBUQdhcRMiMoEIFEKRobHBCSMzUvAVYnLRChYkNOEl8RcYGRomJygpKjU2Nzg5OkNERUZHSElKU1RVVldYWVpjZGVmZ2hpanN0dXZ3eHl6goOEhYaHiImKkpOUlZaXmJmaoqOkpaanqKmqsrO0tba3uLm6wsPExcbHyMnK0tPU1dbX2Nna4uPk5ebn6Onq8vP09fb3+Pn6/9oADAMBAAIRAxEAPwD9U6KKKACiikJwKABjgU3zO+2orq6S2t5JZWWGKNS7yOwCqAMkknoMDqa8H8KfHJ/jp8VJfD/glz/wiGggT6vryjH2pyT5VvD6KxVizH7wQ44wT24fB1sTGdSC9yCvJ9F/wW9EurOWtiKdGUYSfvS0S6v/AIC6voe/K27/APXTqjXO6pK4TqCiiimAUUjHaM03f7UAPopN1M80elAElFVZNQhiuYrdpI1nkBZYy4DEDrgdT1qwrE44oFcdRRRQMKKKKACiiigAoopCcDNAC0VFJcJDG7uyoiAszMcAAdyfSs/R/FGkeIopZdJ1Oy1SOJtjtZXKTBW9CVJwfaqUW05JaInmSdr6mrRTFk3NjFFSUPoopKABm2rnGaxPFfjDSPBfh+81nXb6HTNLtU3zXE7YUD0A6knoAMkkgDNZnxS+J2jfCTwVqHiXXXZLG1AAjiG6SaRjhI0Hdif6k8Cvyw+Pn7RniX4+a752pSfY9Et3LWekRMfJi7B26b3wcFj7gYFfY8PcN4jPanN8NJPWX6Lz/Bfg/nc2zmllkOXeo9l+r8vzO8/aW/a41v45ahJ4Z8NJcad4TaURrbIP9I1Bs/KZMc4zjEY74zk4x9q/A34d6b+zP8DB/a0kVvcW1tJqmtXOesu3cwz32qAgx128ck18ifsB/BP/AITXx9L401K3ZtH8PNm28xflmuyMrj/rmDv4HUp716r/AMFE/jF/YvhzTvh7p0+LrUyLvUdp5S3Rv3af8DcZ/wC2fvX2mbYajiMZQ4Zy1ctOLvNr9X1aWuvVpdD5rAVqlHD1c6xjvNq0f+B5X/C/c7f9kX9qST426h4k0fWjHb6xb3El7YxDjdZs3C+5jJAPqCD2NfTStur8Uvhl8QNR+FfjnSPE+lMRcafMJGjzgTR9Hjb2ZSVP1r9j/A3jDTvH3hTSfEGkzefp+oW6zxN3GRyp9GU5BHqDXzvGORRyrExr4aNqU/wa3Xz3+89jh3NHjqLpVnepH8V3+W33HQUUUV+eH142T7p5xX5f/AH4veJ/A/xY0XxFrOu6jeeFb3VptEuxeXcksMe4KQxDEgYLK2fRHr9QW+6a/OP4MfC0fFb9mP4s6fBD5uqWOsnULEAfN5sceSo/3lLr/wACr9D4Xlh4YXFrEpckvZxb7KTlG69L3Pkc8VWVeh7F+8ueS8+Wzt89j9Cde1y08N6Df6tfzCCwsbeS4mkPaNVLE/kK/N74S+NPFni39qTwVr+sX17Ba+J7+bUYLH7Q/lLblpkVducbQYyOnRR616H4w+Ol98Yv2a/h94L0ubzvF/iy7TRL4BssggdA7vjkB8xMf9ln9K0vG3hax8G/tqfBfQNNj2WGm6LBawr32p9pAJ9zjJ9z716WT4H+yqOJo4iP72pGqvSNNNXX+KW3+E4cwxX16pRqUn7kXD5uTWnyX5nrvjjwX8N9S/ae8Jarq/iO8tPHsNqpsNHjdhFcIvmlXzs4HEmRuGdv5+w+LvHXh74faQ2qeItXtNHsVOBNeShAx/uqDyx9hk18tfFjj/goV8NB/wBQkfyvKxPFmj2/x1/bum8LeKHa48O+HLPzbfTJGPlykRRyEbf9ppMt/eVADkV5EsrWKWHeIqy9nGh7R7NpKTXLHb8fM9BY50HVVKC55VeVdm7LV/8AAPp3wB+0H8P/AIo6tLpnhjxLa6pqESGRrZUkjk2g4LAOq5AJHTPWqN1+098MrHS9V1CfxXax2ul3AtLtvKlLJMSwCBAm5z8jcKD0J6V0eifCnwd4b1iDVNI8MaVpOowwtbx3FhapA3ltjKnYBkcDrnpXxj+yB8IfDnxI+KHxM1LxNp8Os2+l6i629jdKHg8ySWXdIyHhmATAz/ePrXDhMDlWKp4jFN1I06Si7e65O7s1tbtZ207M6q+Kx1GdGhaLnNy720V+9/66H2vcfErw3Z+DbfxXdaxaWXh24gjuYtQupPJRo3UMh+cA5II+XGe2M8VyHhn9qb4V+Ltai0nS/Geny38r7I4pt8IduwVpFUMT2APPavnz46aLYeMP2sPhd8L72NbTwPZ2KzppcZ2QOyrOwUKPUQpH9CQOtdz+2J8G/BVt8Ade1Sz8PaZpOpaOkMtnc2NskDIfORCuVAypDEYPrnrWtLKcBGWGo4iU+bEWcbctoqUnGN7/ABPva1iJ4/FtVqlKMeWlo73u2ld27eV7n0Zr3ibS/C+lz6lrF/baXYQjMlzeTLFGo92PFcd4M/aE+HnxC1waN4d8U2Op6mys6W0e9WcAZJXco3ADnjPFfL3jPwb42+Pn7KXws1nT4X8Q3+kyNPfaVLIA1+kbNErfNw7hUx6kO2Mnr6B8D/i18LfEHjjTNEl+HqfDbx/bo629rdacls7ZQhkSQKrMSu7hwPbJqZZHSpYSrUvKpUg5pqHLaHK7JyT95p73Vkl5jjmdSpXhDSEJKLTlf3r9E9rrs+p7346+KXhX4Z2Ed54o12z0WCU4i+0yYeQ8Z2oMs2M84Bx3rG8CftBfD34n3zWHhnxTZalfgbvsh3QzMB1KxyKrMB6gGvmn4c6PYfHD9tD4hy+MbaLVrfw0j22naddDfCqxzCNW2HgjG5sEYzJn6wft4eDNE+G1j4M8b+FbG18O+IbfVBCJdOiW38wBDIrMq45UoBn0cg8V0UcjwcsRSy6pOXt6kU7q3Im48yVt35u616GVTNMSqM8ZCK9lBtW15mk7N9l6WLH/AAUC+LGnXGk6T4FsNdWO9XUkbWrKDcHiiMYePccfd+cMMZ6A9q6m1+J3wb+Afwd17VPhrqmnxXlzHJHbZM8y3d9FCCqtu74dSeg5rjP29vDujyaf8Ptej0i0ttV1bUFF7ci3QTTL5cYCyNjLYAxg9MV7Z8evhX4N0P8AZ98bGw8LaNZ/ZNLuruDybCJfKm8oDzF+X5WwijI7KK9SMsFHLcvw81PlnKXMk1aTUknzK2qv8PZHDJYmWMxdWPLeMVZ2d0rO1u2m/mUv2Vv2j9P+K3hDRbDXPEFnc+PZ/tMlzp8EXlsEWV9uAo2gCPb3orL/AGFfBWgR/A3wr4jXRbBdfc3kbamLdftDL9plXHmY3Y2gD6ACivjs+p4ajmVenhYuMVKSs7bpva1vd7H0WVzrVMHSnXabaT67WW9+vc+mKa3CnNKx2jNeEftffHZfgz8L7hbCZU8S6wGtNOA5MfA8yb/gCnj/AGmX3rzsFhKuPxEMLRV5Sdl/n6LdnZicRTwtGVaq9Iq58hft2fHX/hY3j4eFNKuC+geH3aN2Q5We66O3HULyoz/tdjXzf4d8P3vizXrDRtMtzdahfzpbwQr/ABOx2gfTP8j2qhI5kZmclixLEsc5J7n1r7Z/4J3fBH+0NQvfiPqsGYLYvZ6Usg6yEYlmH0B2A+7+lf0tXqYbhXJ/c2grL+9J/wCb1fl6H4vSjWzzMPe+07vyX/AWn3H1j8N/Bmjfs/8AwfttP8xUstHs3u766UEmVwpeWX1OSDj2AFflD8WfiJe/Fb4ha34pvyyy305aOJv+WUQG2OMf7qhR9c+tftDPbpNDJHKqyxuu10dchgeCCPSvzS/bJ/ZZk+FOrSeLfDNqzeEL6X99CnP9nyn+E/8ATNj909iMHHy5/M+B8xw/9oVvrb/fVdpPrrdr1b187W3PtOJsHW+qU1QX7uG6/BP0X6ny96V9pf8ABPP45f2Nq118ONWuB9kvWa60pnP3JsZkiz6MBuA9Qeu6viz19Ku6PrF54f1az1PT7h7S/s5lngnjOGSRW3KQfriv2DOMtp5tgp4Sp12fZrZ/10uj8+y/Gzy/Exrx6b+a6n7jK+44xT684+Afxas/jT8M9J8S221LmRfIvbdf+WNwgAkXHYZIYezLXo9fyfXoVMLVlQrK0ouzXmj95pVYVqcatN3TV0Nc4U14R+yr8Ddd+BeheJrHXLvT72TVNS+2Qtp8kjqqbQMNuRecjtmveDzUbRgKea1p4urRw9XDR+Gpa/8A267r8zOeHhUqwrS3he3z3PmL4S/sgD4cftBa344ku7ObQd08uj2MRbzbd5uH3gqFCqrOowTxt6V0/jr4C6z4o/ac8HfEi3v7CHSNFtBBNayl/tEjDzslQFK4/eL1PY16F4W+Mngrxp4nvfD2ieIrPUdZsg5ns4WO5NjBW7AEAnsTXaBd3HSvXxObZlHEe1xN1Nw5NVb3Wrde+9++p51HAYN0eSjrHm5tH1T/AK0PCfGnwF1rxN+1F4S+JcF9YQ6Ro9iLWa1mZ/tDtiflQFK4/fL1I6Gsn46/sz654q+IenfEf4ea7D4d8a2qrHJ9sB8idVBUE4Vvm2/KcqwIx0xX0cI8d6PLrnpZ1jKM6c4SXuR5LWVnHVtNdU7m08tw9SM4yXxS5t9VLuux458LdN+NT+KI774g6p4Zj0WG3eNdP0JJC8spxh3Z14AweFPOenArK/Zr+Aut/BnXfHt5q19p93H4gvlurcWTuWjAaU4fcowcSDpmvedp9aAu3vWdTNK04VaUYxjGokmoxSXuu6/EuGBpxlCcm5ShezbvurM8G/aP/ZtuPi5qWieKPDOtDw5430UgWl62fLkUNuVXKgkFWJIYA9SMHPHnPif4BfHv40WFt4f8f+M9AsPDEcqPcpo8bNLclTkEr5ahucEZIAODtyK+vyvY80nliurDZ7i8LThTiovk+FyinKN/5W/vMK2V4evOU3dc3xJNpS9UeMeOvAPj7wn4Y8Jab8H7/StNt9Fhe2m0/WFJjuo8IE5VD84Ksc/Lncea4Dw3+z18RfH3xk0D4hfFTU9Ftn0ML9i03QQ3zFWLqHZuihiT1YnpxX1N5fSjyx61lRzjE0KcoQjHmaac7e/aV7+9539fMupltGpNSk3yqz5b+7ptofM/xY/Zn8Vj4rf8LK+FXiK10DxJcIUvrTUAfs9xwAW4VvvBVypXqAcisFv2Y/iT8YvGWjax8ZPE2lXGj6U++HRdFVtkmSCysSqgbiBk/MSBgYr628v3o8v3OK6KfEGOpU4xjy80VyqfKudLspb9bd/MynlOGqTcnezd3G75W+9jwT9qn4E698cNP8JwaFd6fZnSL83U39oSSIGUgDC7EbnjvivWPH/hWLx54C13w3NO1smq2Mtn5yjJTehUNjvgnp3ro/LHFBjz3Iry3j8Q6VGjfSk24+TbTf4o7lhKSnUqW1nZP5Kx85/sz/CL4r/BtrPw3rWteG77wPZtcPGlmJjeFpCWABaMKF3ksRk8nr6lfRoUg5zmiljsbUzCu8RVSUnvZWu+7831Y8LhoYSkqNNtpbXd7eXoVtQv4NOsLm6u5Ut7aCNpZZZGwqIBksT6AZr8hv2kPjPcfHD4nX+uCSRdHh/0bTLd/wDlnbr0bHYscsfdsdhX6RftMfD3xp8VvAX/AAivhG+03TItQfGpXOoSyoTAMHy0CI2dx65I4BHfj5j0r/gmXrE23+0vHVlaHOT9k095v1aRK/QuD8TlOVRnjsdWSqPRKzbS6vRPV/l6nyXENHH45xw2GptwWreiu/m+n9bHyZ8N/AeofE7xxpHhjS1Ju9QnWLeBkRJ1eQ47KoZj7Ka/ZHwL4P07wD4T0nw7pUXlWGnW628Qxy2Byx/2ick+5NePfs6/sf6J+z/rV7rSaxNr+r3EH2aO4mtxCIEJy+1QzcsQuTnoPc179wprzuL+IKecV4UsLK9KHyu31s+2339zr4fymWXUpVK6tUl87Lt+v3DmG4YrO1zQbDxFo95pep2sd9p93E0M9vKuUdCMEEVcnu4rVC8siRqO7sAP1rmNW+LPgnRNy6h4v0KxYdVn1KFCPwLV8LSp1ZyTpJtrtf8AQ+oqTpxX7xpLzPzF/ak/Zxv/AIC+Lt1sJLvwpqDs2n3jclO5hc/317f3hyO4HiP8q/U74tfHT4E+M/Ceo+HfEvi7TdQsbpMFbRXuHRh910KK2GU8gj+tfmJ4nsNO0zxBqFtpGpjWdLimYWt+sTxGaPPDFHAKnGMg98iv6V4XzTF5hhvZ46lKNSP2nFpSXe/fuvn6fjGd4HD4Wtz4WacJdE02n29Ox77+w/8AHL/hVfxOXRNSn8vw74hZLeUu3yQ3HIik9uTsPqGBJ+UV+oatnGRivwsX7wI+97V+q/7Gvxy/4XH8LreHUJ/N8SaKFtL4ufmlXB8ub/gSjn/aVq+J48yXlcc0oreyn+j/AEfyPpuFcyungaj84/qv1+899Ztqk15z+0H8Sl+FPwg8SeIgypdw2zRWgY/euH+SMD15bP0Br0Vvumvib9unWtU+JXj3wX8I/DaLc6lO51CeFn2oXIYRKx7YUSMc9mWvznIsDHH5hTp1PgXvS7csdXf8vmfYZpiZYXCTnD4novV6I8l8M+FdQ/ZutPg38W5/OKaxNN/bCnJ2wzE+X9S0DF8f3lr9DvHHim88L+C9Q1zSNGn8T3dvCssGm2THzLrJAAQhW7HPQ9K+Qvi94H/aE8efCu78Oa34Z8KLolnCkyLp8p8+MQAlfLBc87QVxjkEjvXrn7IHxgtPF37Pdnc6repBN4ajawv5riQKEjiXMcjE9vL25Pcq1fW59F4/D08yk41JQm4yUZX92TcoJ226x+48DK5LC1p4OKlCMo3Tkre8laT136M5LxV+3B4o8D6eL/xB8E9d0ayZ/KWe+vTEhcjIXLQYyefyrqfHn7XVx8PPhD4V8b6r4GuIJdfnaOPS5NQCvEm1mSQt5ZzuUA42jANeeeD7a4/bN+LzeL9YjeH4V+GZzHpWnzZA1GcEHe6ngg9T6Dan941Y/wCCk1uzfC/wtKi5jj1faWUcDML4Ht0/T2q4YHLKmYYTLqmHUakneolKbS0bUNZb7N9np3JlisbHCV8XCs3FL3Lxjd6q8ttu339j6d+JHjpfh58O9c8VNZNfrpdm12bVZPLMmBnbuwcfXBrzxf2mIW/Ztk+Lf/CPyeSqB/7J+1jcc3Igx5mz33fd9vem/tMeKtLX9mHxXffbIWs7/ShFazK4ImaXaEC+ucg8e/pXhzDb/wAEz5AeAbdTzx/zE16/WvEyzLKFfC0ataGssRCm917rWq/4O6PSxuOq0q9SFOWipSl03T0f9aHpXgf9sqT4jeJfDOn6B4A1S90+/aGLVNVjkZrfTJZP4CwiIcqMZyUxnFbvxE/akfRfHNx4L8DeDr/4heJrNQ99DZTCGC0HHDSlWG7kcYwCcZzkVpfskaTbaX+zn4JS1hWET2f2iQqoG+R2Ysx98/pXyv8As7aD8RNW+JXxRsPCvjqw8I60uqySX1vf6dHczXIEkg3jeCcKSc/749RXo0sBltevi5RpqEKGlpSnaTcrc0nG8kl2j5Xe7OSeKxtOlQTm5Sq66KN17t7K9k7935n1L8D/ANpiy+LXiDVfC+qaBd+D/GWmKZLjR7595ZAQCyPtXOCVyCo+8CMjmvaq+Yvhv+zf4x0P9oC0+Ini7xvp+v6n9mkimhtrIW7zJ5RiU4XA+XK549K+na+WzingqeIX1CScXFN2u0pdUnJJtdrnuZdPEzov60rSTaV7Xa6N2ur+gUUUV4Z6gUUUUAFFFFADPL5zml28g0UUAEieYjKSQDx8pwa5TVvhjo+uMTd3OtMD1WPW7yNfyWUAfhRRWtOrUpO9OTT8iJU41FaaucVqn7JPww1uQvqGhXN656tcardyE/i0prJb9h34Mt/zKRH01C5H/tSiivTjnOZQVo4ma/7el/mcMsuwUnd0Y/8AgK/yIm/YV+C7dPCki/7up3X/AMdqFv2D/g02APDlwo9F1K4/q5oorT+3c1/6Cqn/AIHL/Mn+y8D/AM+I/wDgK/yIn/YJ+DjZA0K8Uf8AYSn/APiq6/4W/sxeB/g34il1rwtBfWV3NC0EqyXskkciEg4ZScHBAIPb8aKKzq5zmVem6VXETlF7pybTKp5dg6UlOnRimuqSPWGG5SK8x0v9nvwzpvxivviWZtQu/Et0jR/6TMrQwgoE/dqFBGEXaOTwTRRXn0cRVoKSpSa5lZ26p7r0OupRp1XF1Ffld15PuemGPOea8Gtf2L/A2n6J4o0az1DXrLSfEU0c17Z296iR5R2ZQoCcL82MHPAHpRRWuGxuIwd1Qm43te3k7r7nqiK2Go4hp1Yp2v8Ajo/vRgRf8E+/hvbpsi1TxPEvPypqKgc4/wCmftXpa/s5+EJPhInw5vI7zUvD6FnR7ufdcI5cuHEgAwwLHHHTg5FFFdtbOsxxHL7WvJ8rutdmuvqc1PLcHRuoUkrqz06djgNJ/YN+HWm6fdWVxfeINXgkhaGBdRvUdbPd95oVWNVViMjJB9q9Bb9nrww3wW/4Vf5t+PDewR+Z5y/advned9/bj74/u9KKKmtnGYYhxlVrSdmpLXZrZ+o6eX4SkmoU0rqz80+h1ngXwPYfD3wjpfhvS3mbT9NgFvCbhg0m0dNxAGT+FebfE79k3wf8TPFS+Jxd6r4Z8Scb9S0G4FvJLgYy2VPOONwwfc8UUVy0cdicPWliKVRqbvd9773738zephaFamqVSCcVsu1uxtfCf9nvQ/hLrF9rFtrGveINZvIRby3+vX32mQR7g21cKoAyB2zwOa9RoorLEYmtiqjq15c0n1ZpSo06EeSmrIKKKK5jYKKKKACiiigD/9k=;" vertex="1" parent="1">
          <mxGeometry x="-332.66" y="-720" width="155.15" height="51" as="geometry" />
        </mxCell>
        <mxCell id="WoZKyJQna27tw6gWgQqz-14" value="" style="group" vertex="1" connectable="0" parent="1">
          <mxGeometry x="-1200.0045714285714" y="-420" width="96.98742857142861" height="71.5" as="geometry" />
        </mxCell>
        <mxCell id="WoZKyJQna27tw6gWgQqz-15" value="" style="image;aspect=fixed;html=1;points=[];align=center;fontSize=12;image=img/lib/azure2/analytics/Log_Analytics_Workspaces.svg;" vertex="1" parent="WoZKyJQna27tw6gWgQqz-14">
          <mxGeometry x="34.16514285714282" width="43.15384615384615" height="43.15384615384615" as="geometry" />
        </mxCell>
        <mxCell id="WoZKyJQna27tw6gWgQqz-16" value="Log Analytics Workspace" style="text;strokeColor=none;align=center;fillColor=default;html=1;verticalAlign=middle;whiteSpace=wrap;rounded=0;" vertex="1" parent="WoZKyJQna27tw6gWgQqz-14">
          <mxGeometry x="3.8857142857142857" y="58.5" width="96.98742857142858" height="13" as="geometry" />
        </mxCell>
        <mxCell id="WoZKyJQna27tw6gWgQqz-17" value="" style="group" vertex="1" connectable="0" parent="1">
          <mxGeometry x="-959.9997142857142" y="-420" width="94.31600000000003" height="65.25" as="geometry" />
        </mxCell>
        <mxCell id="WoZKyJQna27tw6gWgQqz-18" value="Azure Monitor" style="text;strokeColor=none;align=center;fillColor=default;html=1;verticalAlign=middle;whiteSpace=wrap;rounded=0;" vertex="1" parent="WoZKyJQna27tw6gWgQqz-17">
          <mxGeometry y="52.25" width="94.316" height="13" as="geometry" />
        </mxCell>
        <mxCell id="WoZKyJQna27tw6gWgQqz-19" value="" style="image;aspect=fixed;html=1;points=[];align=center;fontSize=12;image=img/lib/azure2/management_governance/Monitor.svg;" vertex="1" parent="WoZKyJQna27tw6gWgQqz-17">
          <mxGeometry x="20.43885714285711" width="41.84615384615385" height="41.84615384615385" as="geometry" />
        </mxCell>
        <mxCell id="WoZKyJQna27tw6gWgQqz-20" value="" style="group" vertex="1" connectable="0" parent="1">
          <mxGeometry x="-1090" y="-424.75" width="120" height="70" as="geometry" />
        </mxCell>
        <mxCell id="WoZKyJQna27tw6gWgQqz-21" value="" style="image;aspect=fixed;html=1;points=[];align=center;fontSize=12;image=img/lib/azure2/management_governance/Application_Insights.svg;" vertex="1" parent="WoZKyJQna27tw6gWgQqz-20">
          <mxGeometry x="47.45421343873517" y="10" width="25.094180602006684" height="35.92581331711766" as="geometry" />
        </mxCell>
        <mxCell id="WoZKyJQna27tw6gWgQqz-22" value="Application Insights" style="text;strokeColor=none;align=center;fillColor=default;html=1;verticalAlign=middle;whiteSpace=wrap;rounded=0;" vertex="1" parent="WoZKyJQna27tw6gWgQqz-20">
          <mxGeometry y="56.212121212121225" width="120.00000000000001" height="13.787878787878787" as="geometry" />
        </mxCell>
        <mxCell id="WoZKyJQna27tw6gWgQqz-23" value="" style="endArrow=classic;html=1;rounded=0;dashed=1;entryX=0;entryY=0.5;entryDx=0;entryDy=0;dashPattern=12 12;exitX=0.5;exitY=1;exitDx=0;exitDy=0;" edge="1" parent="1" source="WoZKyJQna27tw6gWgQqz-8" target="WoZKyJQna27tw6gWgQqz-7">
          <mxGeometry width="50" height="50" relative="1" as="geometry">
            <mxPoint x="-1105" y="-670" as="sourcePoint" />
            <mxPoint x="-1170" y="-760" as="targetPoint" />
            <Array as="points">
              <mxPoint x="-1384" y="-390" />
            </Array>
          </mxGeometry>
        </mxCell>
        <mxCell id="WoZKyJQna27tw6gWgQqz-24" value="" style="group" vertex="1" connectable="0" parent="1">
          <mxGeometry x="-1522.83" y="304.27" width="190.76000000000005" height="80.31" as="geometry" />
        </mxCell>
        <mxCell id="WoZKyJQna27tw6gWgQqz-25" value="" style="rounded=0;whiteSpace=wrap;html=1;" vertex="1" parent="WoZKyJQna27tw6gWgQqz-24">
          <mxGeometry x="-20" y="-16.19" width="160" height="96.5" as="geometry" />
        </mxCell>
        <mxCell id="WoZKyJQna27tw6gWgQqz-26" value="" style="image;aspect=fixed;html=1;points=[];align=center;fontSize=12;image=img/lib/azure2/networking/NAT.svg;" vertex="1" parent="WoZKyJQna27tw6gWgQqz-24">
          <mxGeometry x="36.28" y="1.6" width="38.4" height="38.4" as="geometry" />
        </mxCell>
        <mxCell id="WoZKyJQna27tw6gWgQqz-27" value="Azure Active Directory" style="text;strokeColor=none;align=center;fillColor=none;html=1;verticalAlign=middle;whiteSpace=wrap;rounded=0;" vertex="1" parent="WoZKyJQna27tw6gWgQqz-24">
          <mxGeometry y="43.45650781692898" width="122.83" height="20.673492183071005" as="geometry" />
        </mxCell>
        <mxCell id="WoZKyJQna27tw6gWgQqz-28" value="" style="endArrow=classic;html=1;rounded=0;dashed=1;entryX=0.16;entryY=-0.04;entryDx=0;entryDy=0;dashPattern=12 12;entryPerimeter=0;exitX=0.5;exitY=1;exitDx=0;exitDy=0;" edge="1" parent="1" source="WoZKyJQna27tw6gWgQqz-47" target="WoZKyJQna27tw6gWgQqz-7">
          <mxGeometry width="50" height="50" relative="1" as="geometry">
            <mxPoint x="-630" y="-650" as="sourcePoint" />
            <mxPoint x="-990" y="-820" as="targetPoint" />
            <Array as="points">
              <mxPoint x="-837" y="-540" />
              <mxPoint x="-1154" y="-540" />
            </Array>
          </mxGeometry>
        </mxCell>
        <mxCell id="WoZKyJQna27tw6gWgQqz-29" value="" style="image;aspect=fixed;html=1;points=[];align=center;fontSize=12;image=img/lib/azure2/databases/Cache_Redis.svg;" vertex="1" parent="1">
          <mxGeometry x="-453.3399999999999" y="-457.85" width="49.23" height="40" as="geometry" />
        </mxCell>
        <mxCell id="WoZKyJQna27tw6gWgQqz-30" value="Redis Cache" style="text;strokeColor=none;align=center;fillColor=none;html=1;verticalAlign=middle;whiteSpace=wrap;rounded=0;" vertex="1" parent="1">
          <mxGeometry x="-487.72" y="-405.35" width="117.99" height="13" as="geometry" />
        </mxCell>
        <mxCell id="WoZKyJQna27tw6gWgQqz-31" value="" style="image;aspect=fixed;html=1;points=[];align=center;fontSize=12;image=img/lib/azure2/databases/Azure_Database_MySQL_Server.svg;movable=1;resizable=1;rotatable=1;deletable=1;editable=1;locked=0;connectable=1;" vertex="1" parent="1">
          <mxGeometry x="-443.73" y="-317.85" width="30" height="40" as="geometry" />
        </mxCell>
        <mxCell id="WoZKyJQna27tw6gWgQqz-32" value="Azure MySQL Database" style="text;html=1;strokeColor=none;fillColor=none;align=center;verticalAlign=middle;whiteSpace=wrap;rounded=0;movable=1;resizable=1;rotatable=1;deletable=1;editable=1;locked=0;connectable=1;" vertex="1" parent="1">
          <mxGeometry x="-493.6700000000002" y="-275.35" width="139.96" height="30" as="geometry" />
        </mxCell>
        <mxCell id="WoZKyJQna27tw6gWgQqz-33" style="edgeStyle=orthogonalEdgeStyle;rounded=0;orthogonalLoop=1;jettySize=auto;html=1;entryX=0;entryY=0.5;entryDx=0;entryDy=0;" edge="1" parent="1" source="WoZKyJQna27tw6gWgQqz-34" target="WoZKyJQna27tw6gWgQqz-2">
          <mxGeometry relative="1" as="geometry" />
        </mxCell>
        <mxCell id="WoZKyJQna27tw6gWgQqz-34" value="" style="image;aspect=fixed;html=1;points=[];align=center;fontSize=12;image=img/lib/azure2/compute/App_Services.svg;" vertex="1" parent="1">
          <mxGeometry x="-953" y="94.07" width="64" height="64" as="geometry" />
        </mxCell>
        <mxCell id="WoZKyJQna27tw6gWgQqz-35" value="Azure App Service" style="text;html=1;strokeColor=none;fillColor=none;align=center;verticalAlign=middle;whiteSpace=wrap;rounded=0;" vertex="1" parent="1">
          <mxGeometry x="-949" y="158.07" width="60" height="30" as="geometry" />
        </mxCell>
        <mxCell id="WoZKyJQna27tw6gWgQqz-36" style="edgeStyle=orthogonalEdgeStyle;rounded=0;orthogonalLoop=1;jettySize=auto;html=1;entryX=-0.01;entryY=0.536;entryDx=0;entryDy=0;entryPerimeter=0;exitX=0.5;exitY=1;exitDx=0;exitDy=0;" edge="1" parent="1" source="WoZKyJQna27tw6gWgQqz-59" target="WoZKyJQna27tw6gWgQqz-34">
          <mxGeometry relative="1" as="geometry">
            <Array as="points">
              <mxPoint x="-1245" y="-26.300000000000004" />
              <mxPoint x="-1246" y="-26.300000000000004" />
              <mxPoint x="-1246" y="128.7" />
            </Array>
            <mxPoint x="-1186" y="-96.30000000000001" as="sourcePoint" />
          </mxGeometry>
        </mxCell>
        <mxCell id="WoZKyJQna27tw6gWgQqz-37" style="edgeStyle=orthogonalEdgeStyle;rounded=0;orthogonalLoop=1;jettySize=auto;html=1;" edge="1" parent="1" source="WoZKyJQna27tw6gWgQqz-38" target="WoZKyJQna27tw6gWgQqz-41">
          <mxGeometry relative="1" as="geometry" />
        </mxCell>
        <mxCell id="WoZKyJQna27tw6gWgQqz-38" value="Internet" style="ellipse;shape=cloud;whiteSpace=wrap;html=1;" vertex="1" parent="1">
          <mxGeometry x="-2160" y="-417.84999999999997" width="120" height="80" as="geometry" />
        </mxCell>
        <mxCell id="WoZKyJQna27tw6gWgQqz-39" style="edgeStyle=orthogonalEdgeStyle;rounded=0;orthogonalLoop=1;jettySize=auto;html=1;entryX=0;entryY=0.5;entryDx=0;entryDy=0;" edge="1" parent="1" source="WoZKyJQna27tw6gWgQqz-41" target="WoZKyJQna27tw6gWgQqz-8">
          <mxGeometry relative="1" as="geometry">
            <Array as="points">
              <mxPoint x="-1785.11" y="-376.83" />
              <mxPoint x="-1785.11" y="-599.83" />
            </Array>
          </mxGeometry>
        </mxCell>
        <mxCell id="WoZKyJQna27tw6gWgQqz-40" style="edgeStyle=orthogonalEdgeStyle;rounded=0;orthogonalLoop=1;jettySize=auto;html=1;entryX=0;entryY=0.5;entryDx=0;entryDy=0;" edge="1" parent="1" source="WoZKyJQna27tw6gWgQqz-41" target="WoZKyJQna27tw6gWgQqz-5">
          <mxGeometry relative="1" as="geometry">
            <Array as="points">
              <mxPoint x="-1785.11" y="-376.83" />
              <mxPoint x="-1785.11" y="-94.83" />
            </Array>
          </mxGeometry>
        </mxCell>
        <mxCell id="WoZKyJQna27tw6gWgQqz-41" value="Azure Firewall" style="image;aspect=fixed;html=1;points=[];align=center;fontSize=12;image=img/lib/azure2/networking/Firewalls.svg;" vertex="1" parent="1">
          <mxGeometry x="-1896.1899999999998" y="-406.83" width="71" height="60" as="geometry" />
        </mxCell>
        <mxCell id="WoZKyJQna27tw6gWgQqz-42" style="edgeStyle=orthogonalEdgeStyle;rounded=0;orthogonalLoop=1;jettySize=auto;html=1;entryX=0;entryY=0.5;entryDx=0;entryDy=0;" edge="1" parent="1" source="WoZKyJQna27tw6gWgQqz-43" target="WoZKyJQna27tw6gWgQqz-3">
          <mxGeometry relative="1" as="geometry" />
        </mxCell>
        <mxCell id="WoZKyJQna27tw6gWgQqz-43" value="" style="image;aspect=fixed;html=1;points=[];align=center;fontSize=12;image=img/lib/azure2/compute/Kubernetes_Services.svg;" vertex="1" parent="1">
          <mxGeometry x="-867.4100000000001" y="-691.69" width="60.85" height="53.69" as="geometry" />
        </mxCell>
        <mxCell id="WoZKyJQna27tw6gWgQqz-44" style="edgeStyle=orthogonalEdgeStyle;rounded=0;orthogonalLoop=1;jettySize=auto;html=1;entryX=-0.003;entryY=0.503;entryDx=0;entryDy=0;entryPerimeter=0;" edge="1" parent="1" source="WoZKyJQna27tw6gWgQqz-45" target="WoZKyJQna27tw6gWgQqz-43">
          <mxGeometry relative="1" as="geometry">
            <mxPoint x="-729.9999999999998" y="-660.63" as="targetPoint" />
          </mxGeometry>
        </mxCell>
        <mxCell id="WoZKyJQna27tw6gWgQqz-45" value="" style="image;aspect=fixed;html=1;points=[];align=center;fontSize=12;image=img/lib/azure2/networking/Application_Gateways.svg;" vertex="1" parent="1">
          <mxGeometry x="-1174.9999999999998" y="-690" width="52" height="52" as="geometry" />
        </mxCell>
        <mxCell id="WoZKyJQna27tw6gWgQqz-46" value="Application Gateway" style="text;strokeColor=none;align=center;fillColor=none;html=1;verticalAlign=middle;whiteSpace=wrap;rounded=0;" vertex="1" parent="1">
          <mxGeometry x="-1210" y="-644.0835494994438" width="122" height="24.38242491657397" as="geometry" />
        </mxCell>
        <mxCell id="WoZKyJQna27tw6gWgQqz-47" value="Kubernetes Cluster" style="text;strokeColor=#6c8ebf;align=center;fillColor=#dae8fc;html=1;verticalAlign=middle;whiteSpace=wrap;rounded=0;" vertex="1" parent="1">
          <mxGeometry x="-906.94" y="-637.63" width="139.91" height="11.47" as="geometry" />
        </mxCell>
        <mxCell id="WoZKyJQna27tw6gWgQqz-48" value="" style="dashed=0;outlineConnect=0;html=1;align=center;labelPosition=center;verticalLabelPosition=bottom;verticalAlign=top;shape=mxgraph.webicons.mongodb;gradientColor=#DFDEDE" vertex="1" parent="1">
          <mxGeometry x="-277.8900000000001" y="-154.48" width="55.6" height="67.5" as="geometry" />
        </mxCell>
        <mxCell id="WoZKyJQna27tw6gWgQqz-49" value="MongoDB" style="text;html=1;strokeColor=none;fillColor=none;align=center;verticalAlign=middle;whiteSpace=wrap;rounded=0;" vertex="1" parent="1">
          <mxGeometry x="-280.0899999999999" y="-86.97999999999999" width="60" height="30" as="geometry" />
        </mxCell>
        <mxCell id="WoZKyJQna27tw6gWgQqz-50" value="" style="image;aspect=fixed;html=1;points=[];align=center;fontSize=12;image=img/lib/azure2/networking/Load_Balancers.svg;" vertex="1" parent="1">
          <mxGeometry x="-1269.888" y="-139.93" width="51.0316966379984" height="51.0316966379984" as="geometry" />
        </mxCell>
        <mxCell id="WoZKyJQna27tw6gWgQqz-51" value="Azure Container App" style="text;html=1;strokeColor=none;fillColor=none;align=center;verticalAlign=middle;whiteSpace=wrap;rounded=0;" vertex="1" parent="1">
          <mxGeometry x="-981.9899999999999" y="-162.11000000000013" width="98" height="30" as="geometry" />
        </mxCell>
        <mxCell id="WoZKyJQna27tw6gWgQqz-52" style="edgeStyle=orthogonalEdgeStyle;rounded=0;orthogonalLoop=1;jettySize=auto;html=1;entryX=-0.039;entryY=0.388;entryDx=0;entryDy=0;entryPerimeter=0;" edge="1" parent="1" source="WoZKyJQna27tw6gWgQqz-50" target="WoZKyJQna27tw6gWgQqz-56">
          <mxGeometry relative="1" as="geometry">
            <Array as="points" />
            <mxPoint x="-976.1499999999997" y="-52.62599999999991" as="targetPoint" />
          </mxGeometry>
        </mxCell>
        <mxCell id="WoZKyJQna27tw6gWgQqz-53" style="edgeStyle=orthogonalEdgeStyle;rounded=0;orthogonalLoop=1;jettySize=auto;html=1;entryX=0;entryY=0.5;entryDx=0;entryDy=0;" edge="1" parent="1" target="WoZKyJQna27tw6gWgQqz-3">
          <mxGeometry relative="1" as="geometry">
            <mxPoint x="-929.9999999999998" y="-202.75333333333293" as="sourcePoint" />
            <mxPoint x="-524.1000000000001" y="-352.4850000000004" as="targetPoint" />
            <Array as="points">
              <mxPoint x="-589" y="-203" />
              <mxPoint x="-589" y="-353" />
              <mxPoint x="-495" y="-353" />
            </Array>
          </mxGeometry>
        </mxCell>
        <mxCell id="WoZKyJQna27tw6gWgQqz-54" value="" style="image;aspect=fixed;html=1;points=[];align=center;fontSize=12;image=img/lib/azure2/other/Worker_Container_App.svg;" vertex="1" parent="1">
          <mxGeometry x="-968.9899999999999" y="-236.00000000000006" width="68" height="66" as="geometry" />
        </mxCell>
        <mxCell id="WoZKyJQna27tw6gWgQqz-55" style="edgeStyle=orthogonalEdgeStyle;rounded=0;orthogonalLoop=1;jettySize=auto;html=1;dashed=1;dashPattern=12 12;endArrow=none;endFill=0;" edge="1" parent="1" source="WoZKyJQna27tw6gWgQqz-56">
          <mxGeometry relative="1" as="geometry">
            <mxPoint x="-843.9699999999998" y="-210" as="targetPoint" />
          </mxGeometry>
        </mxCell>
        <mxCell id="WoZKyJQna27tw6gWgQqz-56" value="" style="image;aspect=fixed;html=1;points=[];align=center;fontSize=12;image=img/lib/azure2/other/Worker_Container_App.svg;" vertex="1" parent="1">
          <mxGeometry x="-877.9699999999999" y="-139.93" width="68" height="66" as="geometry" />
        </mxCell>
        <mxCell id="WoZKyJQna27tw6gWgQqz-57" value="Azure Container App" style="text;html=1;strokeColor=none;fillColor=none;align=center;verticalAlign=middle;whiteSpace=wrap;rounded=0;" vertex="1" parent="1">
          <mxGeometry x="-892.9699999999999" y="-68.99000000000001" width="98" height="26.11" as="geometry" />
        </mxCell>
        <mxCell id="WoZKyJQna27tw6gWgQqz-58" style="edgeStyle=orthogonalEdgeStyle;rounded=0;orthogonalLoop=1;jettySize=auto;html=1;entryX=-0.022;entryY=0.463;entryDx=0;entryDy=0;entryPerimeter=0;" edge="1" parent="1" source="WoZKyJQna27tw6gWgQqz-50" target="WoZKyJQna27tw6gWgQqz-54">
          <mxGeometry relative="1" as="geometry">
            <Array as="points">
              <mxPoint x="-1244" y="-205.3" />
            </Array>
          </mxGeometry>
        </mxCell>
        <mxCell id="WoZKyJQna27tw6gWgQqz-59" value="Load Balancer" style="text;strokeColor=#6c8ebf;align=center;fillColor=#dae8fc;html=1;verticalAlign=middle;whiteSpace=wrap;rounded=0;" vertex="1" parent="1">
          <mxGeometry x="-1300" y="-86.29549648162629" width="110.00000000000001" height="13.835496481626262" as="geometry" />
        </mxCell>
        <mxCell id="WoZKyJQna27tw6gWgQqz-60" value="" style="image;aspect=fixed;html=1;points=[];align=center;fontSize=12;image=img/lib/azure2/preview/Static_Apps.svg;container=0;" vertex="1" parent="1">
          <mxGeometry x="-1318.86" y="-633.8300000000002" width="50" height="40" as="geometry" />
        </mxCell>
        <mxCell id="WoZKyJQna27tw6gWgQqz-61" value="" style="endArrow=classic;html=1;rounded=0;dashed=1;entryX=0.171;entryY=1.005;entryDx=0;entryDy=0;dashPattern=12 12;entryPerimeter=0;exitX=1.046;exitY=0.434;exitDx=0;exitDy=0;exitPerimeter=0;" edge="1" parent="1" source="WoZKyJQna27tw6gWgQqz-54" target="WoZKyJQna27tw6gWgQqz-7">
          <mxGeometry width="50" height="50" relative="1" as="geometry">
            <mxPoint x="-690" y="-620" as="sourcePoint" />
            <mxPoint x="-940" y="-770" as="targetPoint" />
            <Array as="points">
              <mxPoint x="-800" y="-207" />
              <mxPoint x="-800" y="-280" />
              <mxPoint x="-990" y="-280" />
              <mxPoint x="-1070" y="-280" />
              <mxPoint x="-1150" y="-280" />
            </Array>
          </mxGeometry>
        </mxCell>
        <mxCell id="WoZKyJQna27tw6gWgQqz-62" value="" style="endArrow=classic;html=1;rounded=0;dashed=1;entryX=0.241;entryY=1.01;entryDx=0;entryDy=0;dashPattern=12 12;entryPerimeter=0;exitX=1.046;exitY=0.529;exitDx=0;exitDy=0;exitPerimeter=0;" edge="1" parent="1" source="WoZKyJQna27tw6gWgQqz-34" target="WoZKyJQna27tw6gWgQqz-7">
          <mxGeometry width="50" height="50" relative="1" as="geometry">
            <mxPoint x="-740" y="-230" as="sourcePoint" />
            <mxPoint x="-938.99" y="-770" as="targetPoint" />
            <Array as="points">
              <mxPoint x="-690" y="126" />
              <mxPoint x="-690" y="-300" />
              <mxPoint x="-1126" y="-300" />
            </Array>
          </mxGeometry>
        </mxCell>
        <mxCell id="WoZKyJQna27tw6gWgQqz-63" value="Static Web App" style="text;strokeColor=none;align=center;fillColor=none;html=1;verticalAlign=middle;whiteSpace=wrap;rounded=0;container=0;" vertex="1" parent="1">
          <mxGeometry x="-1548.86" y="-72.33000000000003" width="150" height="13" as="geometry" />
        </mxCell>
        <mxCell id="WoZKyJQna27tw6gWgQqz-64" value="" style="image;aspect=fixed;html=1;points=[];align=center;fontSize=12;image=img/lib/azure2/preview/Static_Apps.svg;container=0;" vertex="1" parent="1">
          <mxGeometry x="-1498.86" y="-126.83000000000014" width="50" height="40" as="geometry" />
        </mxCell>
        <mxCell id="WoZKyJQna27tw6gWgQqz-65" style="edgeStyle=orthogonalEdgeStyle;rounded=0;orthogonalLoop=1;jettySize=auto;html=1;entryX=0.004;entryY=0.164;entryDx=0;entryDy=0;entryPerimeter=0;" edge="1" parent="1" source="WoZKyJQna27tw6gWgQqz-43" target="WoZKyJQna27tw6gWgQqz-3">
          <mxGeometry relative="1" as="geometry" />
        </mxCell>
        <mxCell id="WoZKyJQna27tw6gWgQqz-66" value="" style="rounded=0;whiteSpace=wrap;html=1;" vertex="1" parent="1">
          <mxGeometry x="-665" y="212.15" width="123.7" height="96.5" as="geometry" />
        </mxCell>
        <mxCell id="WoZKyJQna27tw6gWgQqz-67" value="" style="image;aspect=fixed;html=1;points=[];align=center;fontSize=12;image=img/lib/azure2/containers/Container_Registries.svg;" vertex="1" parent="1">
          <mxGeometry x="-629.166" y="222.15" width="52.024" height="46.666666666666664" as="geometry" />
        </mxCell>
        <mxCell id="WoZKyJQna27tw6gWgQqz-68" value="Containers Registry" style="text;strokeColor=none;align=center;fillColor=default;html=1;verticalAlign=middle;whiteSpace=wrap;rounded=0;" vertex="1" parent="1">
          <mxGeometry x="-663.15" y="272.14" width="120" height="14.14" as="geometry" />
        </mxCell>
        <mxCell id="WoZKyJQna27tw6gWgQqz-69" style="edgeStyle=orthogonalEdgeStyle;rounded=0;orthogonalLoop=1;jettySize=auto;html=1;entryX=1;entryY=0.605;entryDx=0;entryDy=0;entryPerimeter=0;strokeColor=#3333FF;" edge="1" parent="1" source="WoZKyJQna27tw6gWgQqz-66" target="WoZKyJQna27tw6gWgQqz-56">
          <mxGeometry relative="1" as="geometry" />
        </mxCell>
        <mxCell id="WoZKyJQna27tw6gWgQqz-70" style="edgeStyle=orthogonalEdgeStyle;rounded=0;orthogonalLoop=1;jettySize=auto;html=1;entryX=0.97;entryY=0.484;entryDx=0;entryDy=0;entryPerimeter=0;strokeColor=#3333FF;" edge="1" parent="1" source="WoZKyJQna27tw6gWgQqz-66" target="WoZKyJQna27tw6gWgQqz-43">
          <mxGeometry relative="1" as="geometry">
            <Array as="points">
              <mxPoint x="-448" y="160" />
              <mxPoint x="-620" y="160" />
              <mxPoint x="-620" y="-666" />
            </Array>
          </mxGeometry>
        </mxCell>
        <mxCell id="WoZKyJQna27tw6gWgQqz-71" style="edgeStyle=orthogonalEdgeStyle;rounded=0;orthogonalLoop=1;jettySize=auto;html=1;entryX=0.5;entryY=1;entryDx=0;entryDy=0;strokeColor=#00FF00;" edge="1" parent="1" source="WoZKyJQna27tw6gWgQqz-74" target="WoZKyJQna27tw6gWgQqz-5">
          <mxGeometry relative="1" as="geometry">
            <Array as="points">
              <mxPoint x="-1135" y="260" />
              <mxPoint x="-1470" y="260" />
            </Array>
          </mxGeometry>
        </mxCell>
        <mxCell id="WoZKyJQna27tw6gWgQqz-72" style="edgeStyle=orthogonalEdgeStyle;rounded=0;orthogonalLoop=1;jettySize=auto;html=1;entryX=0.75;entryY=1;entryDx=0;entryDy=0;strokeColor=#00FF00;" edge="1" parent="1" source="WoZKyJQna27tw6gWgQqz-74" target="WoZKyJQna27tw6gWgQqz-8">
          <mxGeometry relative="1" as="geometry">
            <Array as="points">
              <mxPoint x="-1135" y="240" />
              <mxPoint x="-1301" y="240" />
            </Array>
          </mxGeometry>
        </mxCell>
        <mxCell id="WoZKyJQna27tw6gWgQqz-73" style="edgeStyle=orthogonalEdgeStyle;rounded=0;orthogonalLoop=1;jettySize=auto;html=1;entryX=0;entryY=0.5;entryDx=0;entryDy=0;strokeColor=#00FF00;" edge="1" parent="1" source="WoZKyJQna27tw6gWgQqz-74" target="WoZKyJQna27tw6gWgQqz-66">
          <mxGeometry relative="1" as="geometry" />
        </mxCell>
        <mxCell id="WoZKyJQna27tw6gWgQqz-74" value="Azure Pipelines" style="image;sketch=0;aspect=fixed;html=1;points=[];align=center;fontSize=12;image=img/lib/mscae/Azure_Pipelines.svg;" vertex="1" parent="1">
          <mxGeometry x="-1160" y="300.65" width="50" height="50" as="geometry" />
        </mxCell>
        <mxCell id="WoZKyJQna27tw6gWgQqz-75" style="edgeStyle=orthogonalEdgeStyle;rounded=0;orthogonalLoop=1;jettySize=auto;html=1;entryX=0.017;entryY=0.474;entryDx=0;entryDy=0;entryPerimeter=0;" edge="1" parent="1" source="WoZKyJQna27tw6gWgQqz-5" target="WoZKyJQna27tw6gWgQqz-50">
          <mxGeometry relative="1" as="geometry" />
        </mxCell>
        <mxCell id="WoZKyJQna27tw6gWgQqz-76" style="edgeStyle=orthogonalEdgeStyle;rounded=0;orthogonalLoop=1;jettySize=auto;html=1;entryX=0.018;entryY=0.529;entryDx=0;entryDy=0;entryPerimeter=0;" edge="1" parent="1" source="WoZKyJQna27tw6gWgQqz-8" target="WoZKyJQna27tw6gWgQqz-45">
          <mxGeometry relative="1" as="geometry">
            <Array as="points">
              <mxPoint x="-1210" y="-600" />
              <mxPoint x="-1210" y="-663" />
            </Array>
          </mxGeometry>
        </mxCell>
        <mxCell id="WoZKyJQna27tw6gWgQqz-77" style="edgeStyle=orthogonalEdgeStyle;rounded=0;orthogonalLoop=1;jettySize=auto;html=1;entryX=0.01;entryY=0.399;entryDx=0;entryDy=0;entryPerimeter=0;startArrow=classic;startFill=1;endArrow=none;endFill=0;dashed=1;dashPattern=12 12;" edge="1" parent="1" source="WoZKyJQna27tw6gWgQqz-7" target="WoZKyJQna27tw6gWgQqz-3">
          <mxGeometry relative="1" as="geometry" />
        </mxCell>
        <mxCell id="WoZKyJQna27tw6gWgQqz-78" style="edgeStyle=orthogonalEdgeStyle;rounded=0;orthogonalLoop=1;jettySize=auto;html=1;entryX=0.5;entryY=1;entryDx=0;entryDy=0;startArrow=classic;startFill=1;" edge="1" parent="1" source="WoZKyJQna27tw6gWgQqz-79" target="WoZKyJQna27tw6gWgQqz-25">
          <mxGeometry relative="1" as="geometry" />
        </mxCell>
        <mxCell id="WoZKyJQna27tw6gWgQqz-79" value="Developer" style="image;sketch=0;aspect=fixed;html=1;points=[];align=center;fontSize=12;image=img/lib/mscae/Person.svg;" vertex="1" parent="1">
          <mxGeometry x="-1481.33" y="440.65" width="37" height="50" as="geometry" />
        </mxCell>
        <mxCell id="WoZKyJQna27tw6gWgQqz-80" value="" style="group" vertex="1" connectable="0" parent="1">
          <mxGeometry x="-1334.9988517264721" y="300.65000000000003" width="119.66" height="67.75" as="geometry" />
        </mxCell>
        <mxCell id="WoZKyJQna27tw6gWgQqz-81" value="" style="image;aspect=fixed;html=1;points=[];align=center;fontSize=12;image=img/lib/azure2/devops/Azure_DevOps.svg;" vertex="1" parent="WoZKyJQna27tw6gWgQqz-80">
          <mxGeometry x="35.54056601218677" width="43.58974358974359" height="43.58974358974359" as="geometry" />
        </mxCell>
        <mxCell id="WoZKyJQna27tw6gWgQqz-82" value="Azure DevOps" style="text;strokeColor=none;align=center;fillColor=default;html=1;verticalAlign=middle;whiteSpace=wrap;rounded=0;" vertex="1" parent="WoZKyJQna27tw6gWgQqz-80">
          <mxGeometry x="22.5" y="54.75" width="74.66" height="13" as="geometry" />
        </mxCell>
        <mxCell id="WoZKyJQna27tw6gWgQqz-83" style="edgeStyle=orthogonalEdgeStyle;rounded=0;orthogonalLoop=1;jettySize=auto;html=1;entryX=0;entryY=0.436;entryDx=0;entryDy=0;entryPerimeter=0;" edge="1" parent="1" source="WoZKyJQna27tw6gWgQqz-81" target="WoZKyJQna27tw6gWgQqz-74">
          <mxGeometry relative="1" as="geometry" />
        </mxCell>
        <mxCell id="WoZKyJQna27tw6gWgQqz-84" style="edgeStyle=orthogonalEdgeStyle;rounded=0;orthogonalLoop=1;jettySize=auto;html=1;entryX=0.01;entryY=0.837;entryDx=0;entryDy=0;entryPerimeter=0;strokeColor=#00FF00;" edge="1" parent="1" source="WoZKyJQna27tw6gWgQqz-74" target="WoZKyJQna27tw6gWgQqz-34">
          <mxGeometry relative="1" as="geometry" />
        </mxCell>
        <mxCell id="WoZKyJQna27tw6gWgQqz-85" style="edgeStyle=orthogonalEdgeStyle;rounded=0;orthogonalLoop=1;jettySize=auto;html=1;entryX=0.148;entryY=0.978;entryDx=0;entryDy=0;entryPerimeter=0;" edge="1" parent="1" source="WoZKyJQna27tw6gWgQqz-79" target="WoZKyJQna27tw6gWgQqz-6">
          <mxGeometry relative="1" as="geometry" />
        </mxCell>
      </root>
    </mxGraphModel>
  </diagram>
  <diagram id="6XoIgKQR4N7zmKcws_JA" name="Architecture">
    <mxGraphModel dx="4387" dy="2414" grid="1" gridSize="10" guides="1" tooltips="1" connect="1" arrows="1" fold="1" page="1" pageScale="1" pageWidth="850" pageHeight="1100" math="0" shadow="0">
      <root>
        <mxCell id="0" />
        <mxCell id="1" parent="0" />
        <mxCell id="F3c17p0CJjYHj5Mvr0EK-2" value="" style="rounded=0;whiteSpace=wrap;html=1;fillColor=default;container=0;" vertex="1" parent="1">
          <mxGeometry x="-470.00000000000006" y="-411.58000000000004" width="142.79" height="369.63" as="geometry" />
        </mxCell>
        <mxCell id="F3c17p0CJjYHj5Mvr0EK-5" value="" style="rounded=0;whiteSpace=wrap;html=1;" vertex="1" parent="1">
          <mxGeometry x="-1320" y="286.28" width="270.57" height="96.5" as="geometry" />
        </mxCell>
        <mxCell id="F3c17p0CJjYHj5Mvr0EK-6" value="" style="rounded=0;whiteSpace=wrap;html=1;fillColor=default;" vertex="1" parent="1">
          <mxGeometry x="-1240" y="-100" width="350" height="120" as="geometry" />
        </mxCell>
        <mxCell id="F3c17p0CJjYHj5Mvr0EK-7" value="" style="rounded=0;whiteSpace=wrap;html=1;fillColor=default;container=0;" vertex="1" parent="1">
          <mxGeometry x="-1580" y="-411.58000000000004" width="330" height="107.37" as="geometry" />
        </mxCell>
        <mxCell id="F3c17p0CJjYHj5Mvr0EK-8" style="edgeStyle=orthogonalEdgeStyle;rounded=0;orthogonalLoop=1;jettySize=auto;html=1;" edge="1" parent="1" source="F3c17p0CJjYHj5Mvr0EK-9" target="F3c17p0CJjYHj5Mvr0EK-59">
          <mxGeometry relative="1" as="geometry" />
        </mxCell>
        <mxCell id="F3c17p0CJjYHj5Mvr0EK-9" value="" style="image;aspect=fixed;html=1;points=[];align=center;fontSize=12;image=img/lib/azure2/networking/Front_Doors.svg;container=0;" vertex="1" parent="1">
          <mxGeometry x="-1530" y="-401.58000000000004" width="68" height="60" as="geometry" />
        </mxCell>
        <mxCell id="F3c17p0CJjYHj5Mvr0EK-10" value="Azure Front Door" style="text;strokeColor=none;align=center;fillColor=none;html=1;verticalAlign=middle;whiteSpace=wrap;rounded=0;container=0;" vertex="1" parent="1">
          <mxGeometry x="-1573.46" y="-337.08000000000004" width="154.92" height="13" as="geometry" />
        </mxCell>
        <mxCell id="F3c17p0CJjYHj5Mvr0EK-11" value="Static Web App" style="text;strokeColor=none;align=center;fillColor=none;html=1;verticalAlign=middle;whiteSpace=wrap;rounded=0;container=0;" vertex="1" parent="1">
          <mxGeometry x="-1400" y="-337.08000000000004" width="150" height="13" as="geometry" />
        </mxCell>
        <mxCell id="F3c17p0CJjYHj5Mvr0EK-12" value="" style="shape=image;imageAspect=0;aspect=fixed;verticalLabelPosition=bottom;verticalAlign=top;image=data:image/jpeg,/9j/4AAQSkZJRgABAQEAYABgAAD/4SWyRXhpZgAATU0AKgAAAAgABgALAAIAAAAmAAAIYgESAAMAAAABAAEAAAExAAIAAAAmAAAIiAEyAAIAAAAUAAAIrodpAAQAAAABAAAIwuocAAcAAAgMAAAAVgAAEUYc6gAAAAgAAAAAAAAAAAAAAAAAAAAAAAAAAAAAAAAAAAAAAAAAAAAAAAAAAAAAAAAAAAAAAAAAAAAAAAAAAAAAAAAAAAAAAAAAAAAAAAAAAAAAAAAAAAAAAAAAAAAAAAAAAAAAAAAAAAAAAAAAAAAAAAAAAAAAAAAAAAAAAAAAAAAAAAAAAAAAAAAAAAAAAAAAAAAAAAAAAAAAAAAAAAAAAAAAAAAAAAAAAAAAAAAAAAAAAAAAAAAAAAAAAAAAAAAAAAAAAAAAAAAAAAAAAAAAAAAAAAAAAAAAAAAAAAAAAAAAAAAAAAAAAAAAAAAAAAAAAAAAAAAAAAAAAAAAAAAAAAAAAAAAAAAAAAAAAAAAAAAAAAAAAAAAAAAAAAAAAAAAAAAAAAAAAAAAAAAAAAAAAAAAAAAAAAAAAAAAAAAAAAAAAAAAAAAAAAAAAAAAAAAAAAAAAAAAAAAAAAAAAAAAAAAAAAAAAAAAAAAAAAAAAAAAAAAAAAAAAAAAAAAAAAAAAAAAAAAAAAAAAAAAAAAAAAAAAAAAAAAAAAAAAAAAAAAAAAAAAAAAAAAAAAAAAAAAAAAAAAAAAAAAAAAAAAAAAAAAAAAAAAAAAAAAAAAAAAAAAAAAAAAAAAAAAAAAAAAAAAAAAAAAAAAAAAAAAAAAAAAAAAAAAAAAAAAAAAAAAAAAAAAAAAAAAAAAAAAAAAAAAAAAAAAAAAAAAAAAAAAAAAAAAAAAAAAAAAAAAAAAAAAAAAAAAAAAAAAAAAAAAAAAAAAAAAAAAAAAAAAAAAAAAAAAAAAAAAAAAAAAAAAAAAAAAAAAAAAAAAAAAAAAAAAAAAAAAAAAAAAAAAAAAAAAAAAAAAAAAAAAAAAAAAAAAAAAAAAAAAAAAAAAAAAAAAAAAAAAAAAAAAAAAAAAAAAAAAAAAAAAAAAAAAAAAAAAAAAAAAAAAAAAAAAAAAAAAAAAAAAAAAAAAAAAAAAAAAAAAAAAAAAAAAAAAAAAAAAAAAAAAAAAAAAAAAAAAAAAAAAAAAAAAAAAAAAAAAAAAAAAAAAAAAAAAAAAAAAAAAAAAAAAAAAAAAAAAAAAAAAAAAAAAAAAAAAAAAAAAAAAAAAAAAAAAAAAAAAAAAAAAAAAAAAAAAAAAAAAAAAAAAAAAAAAAAAAAAAAAAAAAAAAAAAAAAAAAAAAAAAAAAAAAAAAAAAAAAAAAAAAAAAAAAAAAAAAAAAAAAAAAAAAAAAAAAAAAAAAAAAAAAAAAAAAAAAAAAAAAAAAAAAAAAAAAAAAAAAAAAAAAAAAAAAAAAAAAAAAAAAAAAAAAAAAAAAAAAAAAAAAAAAAAAAAAAAAAAAAAAAAAAAAAAAAAAAAAAAAAAAAAAAAAAAAAAAAAAAAAAAAAAAAAAAAAAAAAAAAAAAAAAAAAAAAAAAAAAAAAAAAAAAAAAAAAAAAAAAAAAAAAAAAAAAAAAAAAAAAAAAAAAAAAAAAAAAAAAAAAAAAAAAAAAAAAAAAAAAAAAAAAAAAAAAAAAAAAAAAAAAAAAAAAAAAAAAAAAAAAAAAAAAAAAAAAAAAAAAAAAAAAAAAAAAAAAAAAAAAAAAAAAAAAAAAAAAAAAAAAAAAAAAAAAAAAAAAAAAAAAAAAAAAAAAAAAAAAAAAAAAAAAAAAAAAAAAAAAAAAAAAAAAAAAAAAAAAAAAAAAAAAAAAAAAAAAAAAAAAAAAAAAAAAAAAAAAAAAAAAAAAAAAAAAAAAAAAAAAAAAAAAAAAAAAAAAAAAAAAAAAAAAAAAAAAAAAAAAAAAAAAAAAAAAAAAAAAAAAAAAAAAAAAAAAAAAAAAAAAAAAAAAAAAAAAAAAAAAAAAAAAAAAAAAAAAAAAAAAAAAAAAAAAAAAAAAAAAAAAAAAAAAAAAAAAAAAAAAAAAAAAAAAAAAAAAAAAAAAAAAAAAAAAAAAAAAAAAAAAAAAAAAAAAAAAAAAAAAAAAAAAAAAAAAAAAAAAAAAAAAAAAAAAAAAAAAAAAAAAAAAAAAAAAAAAAAAAAAAAAAAAAAAAAAAAAAAAAAAAAAAAAAAAAAAAAAAAAAAAAAAAAAAAAAAAAAAAAAAAAAAAAAAAAAAAAAAAAAAAAAAAAAAAAAAAAAAAAAAAAAAAAAAAAAAAAAAAAAAAAAAAAAAAAAAAAAAAAAAAAAAAAAAAAAAAAAAAAAAAAAAAAAAAAAAAAAAAAAAAAAAAAAAAAAAAAAAAAAAAAAAAAAAAAAAAAAAAAAAAAAAAAAAAAAAAAAAAAAAAAAAAAAAAAAAAAAAAAAAAAAAAAAAAAAAAAAAAAAAAAAAAAAAAAAAAAAAAAAAAAAAAAAAAAAAAAAAAAAAAAAAAAAAAAAAAAAAAAAAAAAAAAAAAAAAAAAAAAAAAAAAAAAAAAAAAAAAAAAAAAAAAAAAAAAAAAAAAAAAAAAAAAAAAAAAAAAAAAAAAAAAAAAAAAAAAAAAAAAAAAAAAAAAAAAAAAAAAAAAAAAAAAAAAAAAAAAAAAAAAAAAAAAAAAAAAAAAAAAAAAAAAAAAAAAAAAAAAAAAAAAAAAAAAAAAAAAAAAAAAAAAAAAAAAAAAAAAAAAAAAAAAAAAAAAAAAAAAAAAAAAAAAAAAAAAAAAAAAAAAAAAAAAAAAAAAAAAAAAAAAAAAAAAAAAAAAAAAAAAAAAAAAAAAAAAAAAAAAAAAAAAAAAAAAAAAAAAAAAAAAAAAAAAAAAAAAAAAAAAAAAAAAAAAAAAAAAAAAAAAAAAAAFdpbmRvd3MgUGhvdG8gRWRpdG9yIDEwLjAuMTAwMTEuMTYzODQAV2luZG93cyBQaG90byBFZGl0b3IgMTAuMC4xMDAxMS4xNjM4NAAyMDIzOjA1OjA4IDEzOjQ3OjM0AAAGkAMAAgAAABQAABEckAQAAgAAABQAABEwkpEAAgAAAAMwMAAAkpIAAgAAAAMwMAAAoAEAAwAAAAEAAQAA6hwABwAACAwAAAkQAAAAABzqAAAACAAAAAAAAAAAAAAAAAAAAAAAAAAAAAAAAAAAAAAAAAAAAAAAAAAAAAAAAAAAAAAAAAAAAAAAAAAAAAAAAAAAAAAAAAAAAAAAAAAAAAAAAAAAAAAAAAAAAAAAAAAAAAAAAAAAAAAAAAAAAAAAAAAAAAAAAAAAAAAAAAAAAAAAAAAAAAAAAAAAAAAAAAAAAAAAAAAAAAAAAAAAAAAAAAAAAAAAAAAAAAAAAAAAAAAAAAAAAAAAAAAAAAAAAAAAAAAAAAAAAAAAAAAAAAAAAAAAAAAAAAAAAAAAAAAAAAAAAAAAAAAAAAAAAAAAAAAAAAAAAAAAAAAAAAAAAAAAAAAAAAAAAAAAAAAAAAAAAAAAAAAAAAAAAAAAAAAAAAAAAAAAAAAAAAAAAAAAAAAAAAAAAAAAAAAAAAAAAAAAAAAAAAAAAAAAAAAAAAAAAAAAAAAAAAAAAAAAAAAAAAAAAAAAAAAAAAAAAAAAAAAAAAAAAAAAAAAAAAAAAAAAAAAAAAAAAAAAAAAAAAAAAAAAAAAAAAAAAAAAAAAAAAAAAAAAAAAAAAAAAAAAAAAAAAAAAAAAAAAAAAAAAAAAAAAAAAAAAAAAAAAAAAAAAAAAAAAAAAAAAAAAAAAAAAAAAAAAAAAAAAAAAAAAAAAAAAAAAAAAAAAAAAAAAAAAAAAAAAAAAAAAAAAAAAAAAAAAAAAAAAAAAAAAAAAAAAAAAAAAAAAAAAAAAAAAAAAAAAAAAAAAAAAAAAAAAAAAAAAAAAAAAAAAAAAAAAAAAAAAAAAAAAAAAAAAAAAAAAAAAAAAAAAAAAAAAAAAAAAAAAAAAAAAAAAAAAAAAAAAAAAAAAAAAAAAAAAAAAAAAAAAAAAAAAAAAAAAAAAAAAAAAAAAAAAAAAAAAAAAAAAAAAAAAAAAAAAAAAAAAAAAAAAAAAAAAAAAAAAAAAAAAAAAAAAAAAAAAAAAAAAAAAAAAAAAAAAAAAAAAAAAAAAAAAAAAAAAAAAAAAAAAAAAAAAAAAAAAAAAAAAAAAAAAAAAAAAAAAAAAAAAAAAAAAAAAAAAAAAAAAAAAAAAAAAAAAAAAAAAAAAAAAAAAAAAAAAAAAAAAAAAAAAAAAAAAAAAAAAAAAAAAAAAAAAAAAAAAAAAAAAAAAAAAAAAAAAAAAAAAAAAAAAAAAAAAAAAAAAAAAAAAAAAAAAAAAAAAAAAAAAAAAAAAAAAAAAAAAAAAAAAAAAAAAAAAAAAAAAAAAAAAAAAAAAAAAAAAAAAAAAAAAAAAAAAAAAAAAAAAAAAAAAAAAAAAAAAAAAAAAAAAAAAAAAAAAAAAAAAAAAAAAAAAAAAAAAAAAAAAAAAAAAAAAAAAAAAAAAAAAAAAAAAAAAAAAAAAAAAAAAAAAAAAAAAAAAAAAAAAAAAAAAAAAAAAAAAAAAAAAAAAAAAAAAAAAAAAAAAAAAAAAAAAAAAAAAAAAAAAAAAAAAAAAAAAAAAAAAAAAAAAAAAAAAAAAAAAAAAAAAAAAAAAAAAAAAAAAAAAAAAAAAAAAAAAAAAAAAAAAAAAAAAAAAAAAAAAAAAAAAAAAAAAAAAAAAAAAAAAAAAAAAAAAAAAAAAAAAAAAAAAAAAAAAAAAAAAAAAAAAAAAAAAAAAAAAAAAAAAAAAAAAAAAAAAAAAAAAAAAAAAAAAAAAAAAAAAAAAAAAAAAAAAAAAAAAAAAAAAAAAAAAAAAAAAAAAAAAAAAAAAAAAAAAAAAAAAAAAAAAAAAAAAAAAAAAAAAAAAAAAAAAAAAAAAAAAAAAAAAAAAAAAAAAAAAAAAAAAAAAAAAAAAAAAAAAAAAAAAAAAAAAAAAAAAAAAAAAAAAAAAAAAAAAAAAAAAAAAAAAAAAAAAAAAAAAAAAAAAAAAAAAAAAAAAAAAAAAAAAAAAAAAAAAAAAAAAAAAAAAAAAAAAAAAAAAAAAAAAAAAAAAAAAAAAAAAAAAAAAAAAAAAAAAAAAAAAAAAAAAAAAAAAAAAAAAAAAAAAAAAAAAAAAAAAAAAAAAAAAAAAAAAAAAAAAAAAAAAAAAAAAAAAAAAAAAAAAAAAAAAAAAAAAAAAAAAAAAAAAAAAAAAAAAAAAAAAAAAAAAAAAAAAAAAAAAAAAAAAAAAAAAAAAAAAAAAAAAAAAAAAAAAAAAAAAAAAAAAAAAAAAAAAAAAAAAAAAAAAAAAAAAAAAAAAAAAAAAAAAAAAAAAAAAAAAAAAAAAAAAAAAAAAAAAAAAAAAAAAAAAAAAAAAAAAAAAAAAAAAAAAAAAAAAAAAAAAAAAAAAAAAAAAAAAAAAAAAAAAAAAAAAAAAAAAAAAAAAAAAAAAAAAAAAAAAAAAAAAAAAAAAAAAAAAAAAAAAAAAAAAAAAAAAAAAAAAAAAAAAAAAAAAAAAAAAAAAAAAAAAAAAAAAAAAAAAAAAAAAAAAAAAAAAAAAAAAAAAAAAAAAAAAAAAAAAAAAAAAAAAAAAAAAAAAAAAAAAAAAAAAAAAAAAAAAAAAAAAAAAAAAAAAAAAAAAAAAAAAAAAAAAAAAAAAAAAAAAAAAAAAAAAAAAAAAAAAAAAAAAAAAAAAAAAAAAAAAAAAAAAAAAAAAAAAAAAAAAAAAAAAAAAAAAAAAAAAAAAAAAAAAAAAAAAAAAAAAAAAAAAAAAAAAAAAAAAAAAAAAAAAAAAAAAAAAAAAAAAAAAAAAAAAAAAAAAAAAAAAAAAAAAAAAAAAAAAAAAAAAAAAAAAAAAAAAAAAAAAAMjAyMzowNTowOCAxMzo0Njo1MAAyMDIzOjA1OjA4IDEzOjQ2OjUwAAAAAAYBAwADAAAAAQAGAAABGgAFAAAAAQAAEZQBGwAFAAAAAQAAEZwBKAADAAAAAQACAAACAQAEAAAAAQAAEaQCAgAEAAAAAQAAFAUAAAAAAAAAYAAAAAEAAABgAAAAAf/Y/9sAQwAIBgYHBgUIBwcHCQkICgwUDQwLCwwZEhMPFB0aHx4dGhwcICQuJyAiLCMcHCg3KSwwMTQ0NB8nOT04MjwuMzQy/9sAQwEJCQkMCwwYDQ0YMiEcITIyMjIyMjIyMjIyMjIyMjIyMjIyMjIyMjIyMjIyMjIyMjIyMjIyMjIyMjIyMjIyMjIy/8AAEQgARwDYAwEhAAIRAQMRAf/EAB8AAAEFAQEBAQEBAAAAAAAAAAABAgMEBQYHCAkKC//EALUQAAIBAwMCBAMFBQQEAAABfQECAwAEEQUSITFBBhNRYQcicRQygZGhCCNCscEVUtHwJDNicoIJChYXGBkaJSYnKCkqNDU2Nzg5OkNERUZHSElKU1RVVldYWVpjZGVmZ2hpanN0dXZ3eHl6g4SFhoeIiYqSk5SVlpeYmZqio6Slpqeoqaqys7S1tre4ubrCw8TFxsfIycrS09TV1tfY2drh4uPk5ebn6Onq8fLz9PX29/j5+v/EAB8BAAMBAQEBAQEBAQEAAAAAAAABAgMEBQYHCAkKC//EALURAAIBAgQEAwQHBQQEAAECdwABAgMRBAUhMQYSQVEHYXETIjKBCBRCkaGxwQkjM1LwFWJy0QoWJDThJfEXGBkaJicoKSo1Njc4OTpDREVGR0hJSlNUVVZXWFlaY2RlZmdoaWpzdHV2d3h5eoKDhIWGh4iJipKTlJWWl5iZmqKjpKWmp6ipqrKztLW2t7i5usLDxMXGx8jJytLT1NXW19jZ2uLj5OXm5+jp6vLz9PX29/j5+v/aAAwDAQACEQMRAD8A9/ooAKKACkz7UAGaWgAooAKKACigAooAKKACigAooAKKACigAooAKKACigBjuERmYhVUZJJwAK5Kx8THxP4iax0gn+zbP57q7H/LQ/wovsSDk98H8emhR54yqS2ivx6L7zGrU5XGC3f9M68daWuY2CigApM0ALSbqAGmVFkVCyh2GQueTTs0BcWigAooAKKACigBpcKCSQABkknpUNve2t2rNbXEM6qcExSBsH8Kai2rpaCuk7E4OTRSGLRQAHpVW+1C106ylu7yZIbeMZZ2PH/16cYuUlGOrYpSUVdniHjLx7d+Jpjp+niSHTi2Ag+/Me2fb/Z/rXqHhnSbfwb4R/0llR442uLt/VsZP5DA/Cvex1FYbCww0d5O7PKwtT21eVZ7JaGd4B8bN4knvrW72pco7Swr6xE9PqP6iu5BzXl47D/V67prY7sLW9rSUxaK5DoEPSvB/Cuv6jpniO1v7u8uJNPluWtZPMkLKucc8/UH8DXsZZSjUpVYtatK3rqefjZuE6bX9bHuV1cxWdnNcztthiQuzegAzXiWg6jqd/8AELS726mmWPUJmnSLedoTLADHp8v6UsspxdKrOS6WX3N/oGNm+eEV3PQ9T07QJvH+nXN1fyx6ukYMNsCdrgbsHp/vd+1dJf6nY6TbG4vrqK3iH8UjYyfQeprjre2q+zg49NPNXOin7OHPK/XUpaV4s0TW7lrfTtQjnmUFigDKcDvggVE/jXw9Hb3E76lGI7d/LlO1shueAMZJ4PTPSj6jiedw5NVb8dh/WqXKpc2n+RoPrOnx6WmpSXUUdk6B1mkbaCCMjr/LrWdZ+N/Dd/dLbW+rQNMxwqtlcn2JABqIYSvOLlGN0txyxFKLSb3Nm6vbayt2uLqeOCFPvPIwUD8TWZp3izQtWu/slhqUM05BIQZBIHpkc1MMPVnB1Ix0W7KlWhGSi3qy1qet6bo0Ky6jeRWyN93e3LfQdT+FVtL8V6HrUph0/UYZpuvl8qx+gYAn8KccLWlTdVR91dROvTU+RvU4f4ra7A9tb6NDeASicG7iXOVXaCM+3OavprXhTwt4Yu7jw/cwLLIpWPl2EsqrkA5+o9OterHDV3haVOK92Tu/wt+BwurTVec29UtP1/E0fA/jCDXdMtYby+ifV38wyQqu0gBjjgcfdxRXmYzDuhWlBqyvp6dDtw9VVaalf19TsaK5jYztb1q00HSptQvSRFGPuryzE9FHua8B8U+LtQ8U3m+4by7VDmK3U/KvufU+9e/kmEUpOvLpojyczr2SpLrudB8K/Df9pay2rXCE21kf3eRw0nb8uv1xXQfFzxD9nsYdDgf95cfvJ8dkB+Ufief+A1tW/wBozSMekf01/Mzp/usE5fzf8MeW6Lqs+h6vbajbE74X3EZ+8O4P1GRX0rpmoQarp1vfWz7oZ0DqfT2+o6Vnn1HWFX5f1+JeVVNJQ+Zcor549cO1eKeHdE/t3wD4hgRN08N350PruVc4/EZH416uXVPZ05z7OH5nBjIc84x8pfkaGoeJ5vEHgTR9Jtn3alqUotZueRsIyT9flP0JqfUrGHTvir4YsrdcQwWiRoPYb/1rtjT9hel5Tf6L9Tmc/a2n/hX6lnXf+S1aH/17D/2rVW+t08T/ABfbTdRJeysYtyQMflb5VPT3Lc+oFZ03yKNRbxp3Xrcua5m4PZz/AEPQ7bQtKs7pLm1062gmRSivFGEO09uPpXmXw/0Cw1jxBrtxqECXCW85CRSDK7mZskjueP1Nc2FxNVUa1S+tlr8zavRp+0pwtpd/kXvE1tDqHxH0Hw7Koj0qKEOIF4QkBzjH0UCtX4g+HtITwZd3MVjbQT2wVonijCEfMBjjtg1tGtUp1MPGL0dm/O71M3SjONVtbaLysjF1HTtX8U/DrQLuBTdzWzF5rdm5mCkqDz1OB+prY8Na94cutXgtG0MaPrCAiOOSAITxyA2ATxnqKdWLnRlChK3I5XXdX/HQUGo1IyqK/MlZ9mZmkW8PiX4p6y2qxrOlgCkEMgyoAbaDg/ifxpnxQ0600eHTNX02GO0vEuNu6FQm7gkEgemP1rSFSccXTop+7ypW6arUmUE8POp9q7d/mJ8UrS1MOj3q2sSXFzOPNfYNzDaOCe+K6nxToelW3gvVPI020j8u2kkTbCo2tt6jjg8D8qw9tUVKglJ7v8Gka+zg51W10X5FL4Y6bZDwjp9+LSAXhMoM+wbyN7D73XpxRXDjpyliZ3ezf5nThYqNGNl0X5Hc0h6VyHQeGfE7xP8A2vrP9m2zk2dkSCQeHk7n8On51xNpazX15DaW6F5pnCIo7k8CvuMDTVDCxT7Xf5nzGJn7Wu2u9j6O0fTrTwp4Yjg3ARWsRkmkA+8cZZq+fNe1abXdbutRmyGmfKqf4VHAH4DFeXkydWtUrvr+up3Zi+SnCkjOr0/4TeJvs9zJoNy/7uUmS2J7P/Ev44z9frXpZpR9rhZLqtfu/wCAceBqclePnoewA0tfEn0oh6VyfgbwzeeGLO+hvJYJGuLjzVMLEgDHfIHNdFOtGNGdN7yt+BjOm5VIz7X/ABM/Qfh//Y/jS61hpYmtMu1rEpO5C3XPGMAEgc+lX9T8L3d74+03X0mgW2tIwjxsTvJ+bpxj+Id67J5gp1faNfZ5fnb/ADOeOEcafIn9q4aj4Xu7z4g6d4gSaBba1h8to2J3k/P04x/EO9V/E/gy8vtbh17Qr1LTVIwFbzPuOAMDPB5xx0NKnjoRnC6ulHlfn6DnhpSjKz1vdGhokPi06gs2uXOnC1VCBDahss3Ykkfyqv4O8LXfh281eW6mgkW9mEieUTlRljzkD1FROvh4wqU6KdpJb+TuVGlVlKE6jV1f8g8YeDpNentdR0+7FnqtoR5Up+6wzkA454PQ+5rFvfCvjXxFCljrerWMViGBkFspLSY9RgZ/P8K2w+Nw8acfaxvKGxlWw1VykqbtGW50Op6VrVhp+nW/hae2hS0Uo8NyPlkXAx0HXg+nWsez8J69qviiz1zxJcWiG0A8qG0B5IORkntk571FLFUIU3UaftHdeWvUqdCrKShdcit66Euu+DdS/wCEi/4SDw3fRWt84xNHNnY/vwD1wOMVU/4QvX/EGqWt14r1C2e2tzlLW2Bw3qDwOuBnrWtPMKEYRm4v2sVZPp6kTwlVycU/cbua3jjwxe+JYdOSzlgj+zTGR/OZhke2Aea6HVbFdU0e7sGcoLiFotw7ZGM1xPEL2dKK3i3+dzpVF8830lb8jmPBmgeJfDxjsLu70+XSoi5UR7vMyee4Axk5opYyrSq1nUpJpPe/ceGhOFNRm9jta5Lx/wCJx4d8PuIXAvrrMcHqv95vwB/MilhKPtq8afd/8OPEVPZ0pSPn0kkkk5ycnNeo/CTw35s0uvXKfLHmK2BH8X8TfgOPxNfWZpV9lhZeen3ng4Gnz115anrbIGRlYBlIwQR1rw/4h+CG0O5Op6fGTpszfMo/5YMe3+6e3/6q8DJ8T7KvyPaX59P8j1Mxo89LmW6OCqW3uJbW5iuIHMc0TB0cHkEHIr65pNWZ4CbTufSPhbXovEeg2+oR4EjDZKg/gcdR/X6EVtV8BXpOlUlTfRn1lKfPBS7hTSOKyLMyx8Q6RqOoS2NpfxTXMWd8ak5GDg1p1dSlOlLlmrMiFSM1eLFxRioLDHvRigAoxQAYoxQAYox70AGKMe9ABj3ooAZLKkMLySsERFLMxPAA6mvnLxh4ifxLr815uYWy/Jbof4UHf6nr+Ne7kVHmqyq9lb7zy80qWgoLqZ2j6XPrWrW2nWw/eTuFz/dHdvoBk/hX0tpmnwaVp1vY2y7YYECL747n3Na59W1hSXr/AF+JGVU9JT+RcqC5tYbu1ktriNZYZFKujDgg188m07rc9ZpNWZ8/+N/CE/hfUsxhpNPnJMEp7eqn3H61y1feYSuq9GNTv+Z8tXpeyqOHY7b4aeJv7D18Wlw+LK9IRsnhH/hb+n4+1e85r5rOqPJiOf8AmX5aHs5bU5qPK+gp6Vi+LNZGheGb6/BAkSMrFk9XPC/qf0rzKFP2lWMO7R21Z8kHLseS2djP4Pj8M+J33Yunb7UPRW6fmhz9RXsupX0tlpU15a2j3siKGSCI8yc9uD616mZctapCpeyba+5/5M4sHenGUd2rP70cVffErUdNh8++8I3tvETtDSy7QT6cpV/VPH0mk+GtP1i50aRWvHKrA0+CowSDnb3HtSeVwvDkqp8ztt5eo1jpWlzQtZX/AK0Ol1jUxpOiXWpGIyi3iMnlhsbsds1jf8Jkp8CHxP8AYW2gZ+z+bz9/Z97H49K4qOF9pBSva8lH7+p0VK/JJxtsmyhpnxDbV7+xgstEuZIZii3FwGJS3Zu2dvOO/SrereNjb6u+k6NpU+rX0QzMsT7Uj+rYPNdEsu5avJKasldvsZLGXhzKPkvMl8NeM4devbjTrmyl0/U7cZe2lOcj1BwM9R2711FcmJoOhU5L37Pujoo1faw5rWCiuc1CigAooA5rxlpOra7o/wDZulzW8KzH/SHmZh8n90YB69//AK9cLB8GLpsfaNZhj/65wFv5kV7OBzOnhaPIotybv2R5uJwU69Tmbsjr/CPw/s/Ct1Ldi6e6uHTYrsm0IO+Bk9ePyrr68/F4l4mq6jVjrw9BUafIhGkVBlmAHuaoT69pFtkT6pZREdnnUH+dYwpTnpBNmkpxirydjnte8TeDdR02aw1DVLeWKQYxGC5B7EEA8ivCL2KCG9mjtbgXFurERyhSu5exweRX1GTUsRRjKNSNo7o8TMalKo1KDuyAdeOtfQPw88Tf8JD4fRJ33XtriObPVh/C34j9Qaed0efDqa+y/wA/6QZZU5arj3OuPSvLvidc3OsaxpnhiwAedz5zqTgZ52g/Qbj+Irw8sS+sKcto3f3Hp41v2Lit3ZDNf0zxzqnh2SwvNP0wWsSBgIW+ddnTbz1wMfjXRfD/AMQRX/gqOS5lCtYKYZmdsYVR8pP/AAHH5GurERoVMJ/s7btLrvqYUXVhXvWsrr8jE09JPiJ4mOqXSlfD9g+LaFv+W7juR/P8B61J8YkJ8P6ewHyrdYyO3yn/AAq6b5MbSoLaGnzauyZpyw9So95fl0Oh8Z31sPAGoTeahjmttsbA/fLYAxXKdPgK3ug/9HissJFqjC6/5eIuu06krfyM63wFBHB4H0sRoF3xb2wOpJJJrgfCNrrs+u69DpuswWF0LktMk0AkaT5m559P61dGcL4h1VzK+3zJqRlaioO3/DHVaP4P1W28Zx67qmsQXU/lsrKkOwuNu0dOOOO1d3Xn4yvCtNOEbJJL7jrw1KVOLUndt3CiuQ6AooAKKAExRigAIyCPX0rPn0W1uT+9kuz7LdyqP0arhUcHdW+5P8yZQUlZmXP4C8O3JzPZySE93uZD/Nqrn4aeEz/zDP8AyPJ/8VXbHNMVFWUvwX+RzPA0G7tfixp+GPhL/oGsPpcSf/FU0/C/wp/z4SD6XD/41f8Aa+M/m/BE/wBn4ft+LGn4W+FT/wAucw/7eH/xrS0TwXo/h6+a705Jo5GQowMrMGHuDUVc0xNWDhNpp+RUMDRhJSitV5nQnpWFD4T0+HxPL4g3zyX0gI+dgVUYA4GOOBiuSlWlSUlH7St8jepTU2r9Hc3MVySfDrR4rS/tIp76O3vmDSxpKAvBJAHHTmtMPip0LqNtbb+WqJq0I1bN9L/iU1+FGgKMLcaio9BOP/ia3B4Q0s+GxoMqyzWYJIMj5cHJOQfXJrorZnXq2vbR30RjTwNKF0r6qxkQfC7QYYJIZJr64RkKoJpgRFnqVAUAH862D4T04+Ff+Ed3T/Ycbc7hvxu3dcevtSrZlWqtOVtGn80Ong6cE0r6qxoaZpsGk6Zb2FuXMMCbE3nJx7msTWvAml6zqI1Hzbmyve89o+wt9eD+fWsaOLqUqrqrre66O5pUw8KkFB9C1oXhOz0G5luo7q9u7mVNjS3c29tuc4HArerOvWlWnzy09C6VNU48q19QorE0CigAooA//9kA//4APENSRUFUT1I6IGdkLWpwZWcgdjEuMCAodXNpbmcgSUpHIEpQRUcgdjYyKSwgcXVhbGl0eSA9IDkwCgD/4THkaHR0cDovL25zLmFkb2JlLmNvbS94YXAvMS4wLwA8P3hwYWNrZXQgYmVnaW49J++7vycgaWQ9J1c1TTBNcENlaGlIenJlU3pOVGN6a2M5ZCc/Pg0KPHg6eG1wbWV0YSB4bWxuczp4PSJhZG9iZTpuczptZXRhLyI+PHJkZjpSREYgeG1sbnM6cmRmPSJodHRwOi8vd3d3LnczLm9yZy8xOTk5LzAyLzIyLXJkZi1zeW50YXgtbnMjIj48cmRmOkRlc2NyaXB0aW9uIHJkZjphYm91dD0idXVpZDpmYWY1YmRkNS1iYTNkLTExZGEtYWQzMS1kMzNkNzUxODJmMWIiIHhtbG5zOnhtcD0iaHR0cDovL25zLmFkb2JlLmNvbS94YXAvMS4wLyI+PHhtcDpDcmVhdG9yVG9vbD5XaW5kb3dzIFBob3RvIEVkaXRvciAxMC4wLjEwMDExLjE2Mzg0PC94bXA6Q3JlYXRvclRvb2w+PHhtcDpDcmVhdGVEYXRlPjIwMjMtMDUtMDhUMTM6NDY6NTA8L3htcDpDcmVhdGVEYXRlPjwvcmRmOkRlc2NyaXB0aW9uPjwvcmRmOlJERj48L3g6eG1wbWV0YT4NCiAgICAgICAgICAgICAgICAgICAgICAgICAgICAgICAgICAgICAgICAgICAgICAgICAgICAgICAgICAgICAgICAgICAgICAgICAgICAgICAgICAgICAgICAgICAgICAgICAgICAKICAgICAgICAgICAgICAgICAgICAgICAgICAgICAgICAgICAgICAgICAgICAgICAgICAgICAgICAgICAgICAgICAgICAgICAgICAgICAgICAgICAgICAgICAgICAgICAgICAgIAogICAgICAgICAgICAgICAgICAgICAgICAgICAgICAgICAgICAgICAgICAgICAgICAgICAgICAgICAgICAgICAgICAgICAgICAgICAgICAgICAgICAgICAgICAgICAgICAgICAgCiAgICAgICAgICAgICAgICAgICAgICAgICAgICAgICAgICAgICAgICAgICAgICAgICAgICAgICAgICAgICAgICAgICAgICAgICAgICAgICAgICAgICAgICAgICAgICAgICAgICAKICAgICAgICAgICAgICAgICAgICAgICAgICAgICAgICAgICAgICAgICAgICAgICAgICAgICAgICAgICAgICAgICAgICAgICAgICAgICAgICAgICAgICAgICAgICAgICAgICAgIAogICAgICAgICAgICAgICAgICAgICAgICAgICAgICAgICAgICAgICAgICAgICAgICAgICAgICAgICAgICAgICAgICAgICAgICAgICAgICAgICAgICAgICAgICAgICAgICAgICAgCiAgICAgICAgICAgICAgICAgICAgICAgICAgICAgICAgICAgICAgICAgICAgICAgICAgICAgICAgICAgICAgICAgICAgICAgICAgICAgICAgICAgICAgICAgICAgICAgICAgICAKICAgICAgICAgICAgICAgICAgICAgICAgICAgICAgICAgICAgICAgICAgICAgICAgICAgICAgICAgICAgICAgICAgICAgICAgICAgICAgICAgICAgICAgICAgICAgICAgICAgIAogICAgICAgICAgICAgICAgICAgICAgICAgICAgICAgICAgICAgICAgICAgICAgICAgICAgICAgICAgICAgICAgICAgICAgICAgICAgICAgICAgICAgICAgICAgICAgICAgICAgCiAgICAgICAgICAgICAgICAgICAgICAgICAgICAgICAgICAgICAgICAgICAgICAgICAgICAgICAgICAgICAgICAgICAgICAgICAgICAgICAgICAgICAgICAgICAgICAgICAgICAKICAgICAgICAgICAgICAgICAgICAgICAgICAgICAgICAgICAgICAgICAgICAgICAgICAgICAgICAgICAgICAgICAgICAgICAgICAgICAgICAgICAgICAgICAgICAgICAgICAgIAogICAgICAgICAgICAgICAgICAgICAgICAgICAgICAgICAgICAgICAgICAgICAgICAgICAgICAgICAgICAgICAgICAgICAgICAgICAgICAgICAgICAgICAgICAgICAgICAgICAgCiAgICAgICAgICAgICAgICAgICAgICAgICAgICAgICAgICAgICAgICAgICAgICAgICAgICAgICAgICAgICAgICAgICAgICAgICAgICAgICAgICAgICAgICAgICAgICAgICAgICAKICAgICAgICAgICAgICAgICAgICAgICAgICAgICAgICAgICAgICAgICAgICAgICAgICAgICAgICAgICAgICAgICAgICAgICAgICAgICAgICAgICAgICAgICAgICAgICAgICAgIAogICAgICAgICAgICAgICAgICAgICAgICAgICAgICAgICAgICAgICAgICAgICAgICAgICAgICAgICAgICAgICAgICAgICAgICAgICAgICAgICAgICAgICAgICAgICAgICAgICAgCiAgICAgICAgICAgICAgICAgICAgICAgICAgICAgICAgICAgICAgICAgICAgICAgICAgICAgICAgICAgICAgICAgICAgICAgICAgICAgICAgICAgICAgICAgICAgICAgICAgICAKICAgICAgICAgICAgICAgICAgICAgICAgICAgICAgICAgICAgICAgICAgICAgICAgICAgICAgICAgICAgICAgICAgICAgICAgICAgICAgICAgICAgICAgICAgICAgICAgICAgIAogICAgICAgICAgICAgICAgICAgICAgICAgICAgICAgICAgICAgICAgICAgICAgICAgICAgICAgICAgICAgICAgICAgICAgICAgICAgICAgICAgICAgICAgICAgICAgICAgICAgCiAgICAgICAgICAgICAgICAgICAgICAgICAgICAgICAgICAgICAgICAgICAgICAgICAgICAgICAgICAgICAgICAgICAgICAgICAgICAgICAgICAgICAgICAgICAgICAgICAgICAKICAgICAgICAgICAgICAgICAgICAgICAgICAgICAgICAgICAgICAgICAgICAgICAgICAgICAgICAgICAgICAgICAgICAgICAgICAgICAgICAgICAgICAgICAgICAgICAgICAgIAogICAgICAgICAgICAgICAgICAgICAgICAgICAgICAgICAgICAgICAgICAgICAgICAgICAgICAgICAgICAgICAgICAgICAgICAgICAgICAgICAgICAgICAgICAgICAgICAgICAgCiAgICAgICAgICAgICAgICAgICAgICAgICAgICAgICAgICAgICAgICAgICAgICAgICAgICAgICAgICAgICAgICAgICAgICAgICAgICAgICAgICAgICAgICAgICAgICAgICAgICAKICAgICAgICAgICAgICAgICAgICAgICAgICAgICAgICAgICAgICAgICAgICAgICAgICAgICAgICAgICAgICAgICAgICAgICAgICAgICAgICAgICAgICAgICAgICAgICAgICAgIAogICAgICAgICAgICAgICAgICAgICAgICAgICAgICAgICAgICAgICAgICAgICAgICAgICAgICAgICAgICAgICAgICAgICAgICAgICAgICAgICAgICAgICAgICAgICAgICAgICAgCiAgICAgICAgICAgICAgICAgICAgICAgICAgICAgICAgICAgICAgICAgICAgICAgICAgICAgICAgICAgICAgICAgICAgICAgICAgICAgICAgICAgICAgICAgICAgICAgICAgICAKICAgICAgICAgICAgICAgICAgICAgICAgICAgICAgICAgICAgICAgICAgICAgICAgICAgICAgICAgICAgICAgICAgICAgICAgICAgICAgICAgICAgICAgICAgICAgICAgICAgIAogICAgICAgICAgICAgICAgICAgICAgICAgICAgICAgICAgICAgICAgICAgICAgICAgICAgICAgICAgICAgICAgICAgICAgICAgICAgICAgICAgICAgICAgICAgICAgICAgICAgCiAgICAgICAgICAgICAgICAgICAgICAgICAgICAgICAgICAgICAgICAgICAgICAgICAgICAgICAgICAgICAgICAgICAgICAgICAgICAgICAgICAgICAgICAgICAgICAgICAgICAKICAgICAgICAgICAgICAgICAgICAgICAgICAgICAgICAgICAgICAgICAgICAgICAgICAgICAgICAgICAgICAgICAgICAgICAgICAgICAgICAgICAgICAgICAgICAgICAgICAgIAogICAgICAgICAgICAgICAgICAgICAgICAgICAgICAgICAgICAgICAgICAgICAgICAgICAgICAgICAgICAgICAgICAgICAgICAgICAgICAgICAgICAgICAgICAgICAgICAgICAgCiAgICAgICAgICAgICAgICAgICAgICAgICAgICAgICAgICAgICAgICAgICAgICAgICAgICAgICAgICAgICAgICAgICAgICAgICAgICAgICAgICAgICAgICAgICAgICAgICAgICAKICAgICAgICAgICAgICAgICAgICAgICAgICAgICAgICAgICAgICAgICAgICAgICAgICAgICAgICAgICAgICAgICAgICAgICAgICAgICAgICAgICAgICAgICAgICAgICAgICAgIAogICAgICAgICAgICAgICAgICAgICAgICAgICAgICAgICAgICAgICAgICAgICAgICAgICAgICAgICAgICAgICAgICAgICAgICAgICAgICAgICAgICAgICAgICAgICAgICAgICAgCiAgICAgICAgICAgICAgICAgICAgICAgICAgICAgICAgICAgICAgICAgICAgICAgICAgICAgICAgICAgICAgICAgICAgICAgICAgICAgICAgICAgICAgICAgICAgICAgICAgICAKICAgICAgICAgICAgICAgICAgICAgICAgICAgICAgICAgICAgICAgICAgICAgICAgICAgICAgICAgICAgICAgICAgICAgICAgICAgICAgICAgICAgICAgICAgICAgICAgICAgIAogICAgICAgICAgICAgICAgICAgICAgICAgICAgICAgICAgICAgICAgICAgICAgICAgICAgICAgICAgICAgICAgICAgICAgICAgICAgICAgICAgICAgICAgICAgICAgICAgICAgCiAgICAgICAgICAgICAgICAgICAgICAgICAgICAgICAgICAgICAgICAgICAgICAgICAgICAgICAgICAgICAgICAgICAgICAgICAgICAgICAgICAgICAgICAgICAgICAgICAgICAKICAgICAgICAgICAgICAgICAgICAgICAgICAgICAgICAgICAgICAgICAgICAgICAgICAgICAgICAgICAgICAgICAgICAgICAgICAgICAgICAgICAgICAgICAgICAgICAgICAgIAogICAgICAgICAgICAgICAgICAgICAgICAgICAgICAgICAgICAgICAgICAgICAgICAgICAgICAgICAgICAgICAgICAgICAgICAgICAgICAgICAgICAgICAgICAgICAgICAgICAgCiAgICAgICAgICAgICAgICAgICAgICAgICAgICAgICAgICAgICAgICAgICAgICAgICAgICAgICAgICAgICAgICAgICAgICAgICAgICAgICAgICAgICAgICAgICAgICAgICAgICAKICAgICAgICAgICAgICAgICAgICAgICAgICAgICAgICAgICAgICAgICAgICAgICAgICAgICAgICAgICAgICAgICAgICAgICAgICAgICAgICAgICAgICAgICAgICAgICAgICAgIAogICAgICAgICAgICAgICAgICAgICAgICAgICAgICAgICAgICAgICAgICAgICAgICAgICAgICAgICAgICAgICAgICAgICAgICAgICAgICAgICAgICAgICAgICAgICAgICAgICAgCiAgICAgICAgICAgICAgICAgICAgICAgICAgICAgICAgICAgICAgICAgICAgICAgICAgICAgICAgICAgICAgICAgICAgICAgICAgICAgICAgICAgICAgICAgICAgICAgICAgICAKICAgICAgICAgICAgICAgICAgICAgICAgICAgICAgICAgICAgICAgICAgICAgICAgICAgICAgICAgICAgICAgICAgICAgICAgICAgICAgICAgICAgICAgICAgICAgICAgICAgIAogICAgICAgICAgICAgICAgICAgICAgICAgICAgICAgICAgICAgICAgICAgICAgICAgICAgICAgICAgICAgICAgICAgICAgICAgICAgICAgICAgICAgICAgICAgICAgICAgICAgCiAgICAgICAgICAgICAgICAgICAgICAgICAgICAgICAgICAgICAgICAgICAgICAgICAgICAgICAgICAgICAgICAgICAgICAgICAgICAgICAgICAgICAgICAgICAgICAgICAgICAKICAgICAgICAgICAgICAgICAgICAgICAgICAgICAgICAgICAgICAgICAgICAgICAgICAgICAgICAgICAgICAgICAgICAgICAgICAgICAgICAgICAgICAgICAgICAgICAgICAgIAogICAgICAgICAgICAgICAgICAgICAgICAgICAgICAgICAgICAgICAgICAgICAgICAgICAgICAgICAgICAgICAgICAgICAgICAgICAgICAgICAgICAgICAgICAgICAgICAgICAgCiAgICAgICAgICAgICAgICAgICAgICAgICAgICAgICAgICAgICAgICAgICAgICAgICAgICAgICAgICAgICAgICAgICAgICAgICAgICAgICAgICAgICAgICAgICAgICAgICAgICAKICAgICAgICAgICAgICAgICAgICAgICAgICAgICAgICAgICAgICAgICAgICAgICAgICAgICAgICAgICAgICAgICAgICAgICAgICAgICAgICAgICAgICAgICAgICAgICAgICAgIAogICAgICAgICAgICAgICAgICAgICAgICAgICAgICAgICAgICAgICAgICAgICAgICAgICAgICAgICAgICAgICAgICAgICAgICAgICAgICAgICAgICAgICAgICAgICAgICAgICAgCiAgICAgICAgICAgICAgICAgICAgICAgICAgICAgICAgICAgICAgICAgICAgICAgICAgICAgICAgICAgICAgICAgICAgICAgICAgICAgICAgICAgICAgICAgICAgICAgICAgICAKICAgICAgICAgICAgICAgICAgICAgICAgICAgICAgICAgICAgICAgICAgICAgICAgICAgICAgICAgICAgICAgICAgICAgICAgICAgICAgICAgICAgICAgICAgICAgICAgICAgIAogICAgICAgICAgICAgICAgICAgICAgICAgICAgICAgICAgICAgICAgICAgICAgICAgICAgICAgICAgICAgICAgICAgICAgICAgICAgICAgICAgICAgICAgICAgICAgICAgICAgCiAgICAgICAgICAgICAgICAgICAgICAgICAgICAgICAgICAgICAgICAgICAgICAgICAgICAgICAgICAgICAgICAgICAgICAgICAgICAgICAgICAgICAgICAgICAgICAgICAgICAKICAgICAgICAgICAgICAgICAgICAgICAgICAgICAgICAgICAgICAgICAgICAgICAgICAgICAgICAgICAgICAgICAgICAgICAgICAgICAgICAgICAgICAgICAgICAgICAgICAgIAogICAgICAgICAgICAgICAgICAgICAgICAgICAgICAgICAgICAgICAgICAgICAgICAgICAgICAgICAgICAgICAgICAgICAgICAgICAgICAgICAgICAgICAgICAgICAgICAgICAgCiAgICAgICAgICAgICAgICAgICAgICAgICAgICAgICAgICAgICAgICAgICAgICAgICAgICAgICAgICAgICAgICAgICAgICAgICAgICAgICAgICAgICAgICAgICAgICAgICAgICAKICAgICAgICAgICAgICAgICAgICAgICAgICAgICAgICAgICAgICAgICAgICAgICAgICAgICAgICAgICAgICAgICAgICAgICAgICAgICAgICAgICAgICAgICAgICAgICAgICAgIAogICAgICAgICAgICAgICAgICAgICAgICAgICAgICAgICAgICAgICAgICAgICAgICAgICAgICAgICAgICAgICAgICAgICAgICAgICAgICAgICAgICAgICAgICAgICAgICAgICAgCiAgICAgICAgICAgICAgICAgICAgICAgICAgICAgICAgICAgICAgICAgICAgICAgICAgICAgICAgICAgICAgICAgICAgICAgICAgICAgICAgICAgICAgICAgICAgICAgICAgICAKICAgICAgICAgICAgICAgICAgICAgICAgICAgICAgICAgICAgICAgICAgICAgICAgICAgICAgICAgICAgICAgICAgICAgICAgICAgICAgICAgICAgICAgICAgICAgICAgICAgIAogICAgICAgICAgICAgICAgICAgICAgICAgICAgICAgICAgICAgICAgICAgICAgICAgICAgICAgICAgICAgICAgICAgICAgICAgICAgICAgICAgICAgICAgICAgICAgICAgICAgCiAgICAgICAgICAgICAgICAgICAgICAgICAgICAgICAgICAgICAgICAgICAgICAgICAgICAgICAgICAgICAgICAgICAgICAgICAgICAgICAgICAgICAgICAgICAgICAgICAgICAKICAgICAgICAgICAgICAgICAgICAgICAgICAgICAgICAgICAgICAgICAgICAgICAgICAgICAgICAgICAgICAgICAgICAgICAgICAgICAgICAgICAgICAgICAgICAgICAgICAgIAogICAgICAgICAgICAgICAgICAgICAgICAgICAgICAgICAgICAgICAgICAgICAgICAgICAgICAgICAgICAgICAgICAgICAgICAgICAgICAgICAgICAgICAgICAgICAgICAgICAgCiAgICAgICAgICAgICAgICAgICAgICAgICAgICAgICAgICAgICAgICAgICAgICAgICAgICAgICAgICAgICAgICAgICAgICAgICAgICAgICAgICAgICAgICAgICAgICAgICAgICAKICAgICAgICAgICAgICAgICAgICAgICAgICAgICAgICAgICAgICAgICAgICAgICAgICAgICAgICAgICAgICAgICAgICAgICAgICAgICAgICAgICAgICAgICAgICAgICAgICAgIAogICAgICAgICAgICAgICAgICAgICAgICAgICAgICAgICAgICAgICAgICAgICAgICAgICAgICAgICAgICAgICAgICAgICAgICAgICAgICAgICAgICAgICAgICAgICAgICAgICAgCiAgICAgICAgICAgICAgICAgICAgICAgICAgICAgICAgICAgICAgICAgICAgICAgICAgICAgICAgICAgICAgICAgICAgICAgICAgICAgICAgICAgICAgICAgICAgICAgICAgICAKICAgICAgICAgICAgICAgICAgICAgICAgICAgICAgICAgICAgICAgICAgICAgICAgICAgICAgICAgICAgICAgICAgICAgICAgICAgICAgICAgICAgICAgICAgICAgICAgICAgIAogICAgICAgICAgICAgICAgICAgICAgICAgICAgICAgICAgICAgICAgICAgICAgICAgICAgICAgICAgICAgICAgICAgICAgICAgICAgICAgICAgICAgICAgICAgICAgICAgICAgCiAgICAgICAgICAgICAgICAgICAgICAgICAgICAgICAgICAgICAgICAgICAgICAgICAgICAgICAgICAgICAgICAgICAgICAgICAgICAgICAgICAgICAgICAgICAgICAgICAgICAKICAgICAgICAgICAgICAgICAgICAgICAgICAgICAgICAgICAgICAgICAgICAgICAgICAgICAgICAgICAgICAgICAgICAgICAgICAgICAgICAgICAgICAgICAgICAgICAgICAgIAogICAgICAgICAgICAgICAgICAgICAgICAgICAgICAgICAgICAgICAgICAgICAgICAgICAgICAgICAgICAgICAgICAgICAgICAgICAgICAgICAgICAgICAgICAgICAgICAgICAgCiAgICAgICAgICAgICAgICAgICAgICAgICAgICAgICAgICAgICAgICAgICAgICAgICAgICAgICAgICAgICAgICAgICAgICAgICAgICAgICAgICAgICAgICAgICAgICAgICAgICAKICAgICAgICAgICAgICAgICAgICAgICAgICAgICAgICAgICAgICAgICAgICAgICAgICAgICAgICAgICAgICAgICAgICAgICAgICAgICAgICAgICAgICAgICAgICAgICAgICAgIAogICAgICAgICAgICAgICAgICAgICAgICAgICAgICAgICAgICAgICAgICAgICAgICAgICAgICAgICAgICAgICAgICAgICAgICAgICAgICAgICAgICAgICAgICAgICAgICAgICAgCiAgICAgICAgICAgICAgICAgICAgICAgICAgICAgICAgICAgICAgICAgICAgICAgICAgICAgICAgICAgICAgICAgICAgICAgICAgICAgICAgICAgICAgICAgICAgICAgICAgICAKICAgICAgICAgICAgICAgICAgICAgICAgICAgICAgICAgICAgICAgICAgICAgICAgICAgICAgICAgICAgICAgICAgICAgICAgICAgICAgICAgICAgICAgICAgICAgICAgICAgIAogICAgICAgICAgICAgICAgICAgICAgICAgICAgICAgICAgICAgICAgICAgICAgICAgICAgICAgICAgICAgICAgICAgICAgICAgICAgICAgICAgICAgICAgICAgICAgICAgICAgCiAgICAgICAgICAgICAgICAgICAgICAgICAgICAgICAgICAgICAgICAgICAgICAgICAgICAgICAgICAgICAgICAgICAgICAgICAgICAgICAgICAgICAgICAgICAgICAgICAgICAKICAgICAgICAgICAgICAgICAgICAgICAgICAgICAgICAgICAgICAgICAgICAgICAgICAgICAgICAgICAgICAgICAgICAgICAgICAgICAgICAgICAgICAgICAgICAgICAgICAgIAogICAgICAgICAgICAgICAgICAgICAgICAgICAgICAgICAgICAgICAgICAgICAgICAgICAgICAgICAgICAgICAgICAgICAgICAgICAgICAgICAgICAgICAgICAgICAgICAgICAgCiAgICAgICAgICAgICAgICAgICAgICAgICAgICAgICAgICAgICAgICAgICAgICAgICAgICAgICAgICAgICAgICAgICAgICAgICAgICAgICAgICAgICAgICAgICAgICAgICAgICAKICAgICAgICAgICAgICAgICAgICAgICAgICAgICAgICAgICAgICAgICAgICAgICAgICAgICAgICAgICAgICAgICAgICAgICAgICAgICAgICAgICAgICAgICAgICAgICAgICAgIAogICAgICAgICAgICAgICAgICAgICAgICAgICAgICAgICAgICAgICAgICAgICAgICAgICAgICAgICAgICAgICAgICAgICAgICAgICAgICAgICAgICAgICAgICAgICAgICAgICAgCiAgICAgICAgICAgICAgICAgICAgICAgICAgICAgICAgICAgICAgICAgICAgICAgICAgICAgICAgICAgICAgICAgICAgICAgICAgICAgICAgICAgICAgICAgICAgICAgICAgICAKICAgICAgICAgICAgICAgICAgICAgICAgICAgICAgICAgICAgICAgICAgICAgICAgICAgICAgICAgICAgICAgICAgICAgICAgICAgICAgICAgICAgICAgICAgICAgICAgICAgIAogICAgICAgICAgICAgICAgICAgICAgICAgICAgICAgICAgICAgICAgICAgICAgICAgICAgICAgICAgICAgICAgICAgICAgICAgICAgICAgICAgICAgICAgICAgICAgICAgICAgCiAgICAgICAgICAgICAgICAgICAgICAgICAgICAgICAgICAgICAgICAgICAgICAgICAgICAgICAgICAgICAgICAgICAgICAgICAgICAgICAgICAgICAgICAgICAgICAgICAgICAKICAgICAgICAgICAgICAgICAgICAgICAgICAgICAgICAgICAgICAgICAgICAgICAgICAgICAgICAgICAgICAgICAgICAgICAgICAgICAgICAgICAgICAgICAgICAgICAgICAgIAogICAgICAgICAgICAgICAgICAgICAgICAgICAgICAgICAgICAgICAgICAgICAgICAgICAgICAgICAgICAgICAgICAgICAgICAgICAgICAgICAgICAgICAgICAgICAgICAgICAgCiAgICAgICAgICAgICAgICAgICAgICAgICAgICAgICAgICAgICAgICAgICAgICAgICAgICAgICAgICAgICAgICAgICAgICAgICAgICAgICAgICAgICAgICAgICAgICAgICAgICAKICAgICAgICAgICAgICAgICAgICAgICAgICAgICAgICAgICAgICAgICAgICAgICAgICAgICAgICAgICAgICAgICAgICAgICAgICAgICAgICAgICAgICAgICAgICAgICAgICAgIAogICAgICAgICAgICAgICAgICAgICAgICAgICAgICAgICAgICAgICAgICAgICAgICAgICAgICAgICAgICAgICAgICAgICAgICAgICAgICAgICAgICAgICAgICAgICAgICAgICAgCiAgICAgICAgICAgICAgICAgICAgICAgICAgICAgICAgICAgICAgICAgICAgICAgICAgICAgICAgICAgICAgICAgICAgICAgICAgICAgICAgICAgICAgICAgICAgICAgICAgICAKICAgICAgICAgICAgICAgICAgICAgICAgICAgICAgICAgICAgICAgICAgICAgICAgICAgICAgICAgICAgICAgICAgICAgICAgICAgICAgICAgICAgICAgICAgICAgICAgICAgIAogICAgICAgICAgICAgICAgICAgICAgICAgICAgICAgICAgICAgICAgICAgICAgICAgICAgICAgICAgICAgICAgICAgICAgICAgICAgICAgICAgICAgICAgICAgICAgICAgICAgCiAgICAgICAgICAgICAgICAgICAgICAgICAgICAgICAgICAgICAgICAgICAgICAgICAgICAgICAgICAgICAgICAgICAgICAgICAgICAgICAgICAgICAgICAgICAgICAgICAgICAKICAgICAgICAgICAgICAgICAgICAgICAgICAgICAgICAgICAgICAgICAgICAgICAgICAgICAgICAgICAgICAgICAgICAgICAgICAgICAgICAgICAgICAgICAgICAgICAgICAgIAogICAgICAgICAgICAgICAgICAgICAgICAgICAgICAgICAgICAgICAgICAgICAgICAgICAgICAgICAgICAgICAgICAgICAgICAgICAgICAgICAgICAgICAgICAgICAgICAgICAgCiAgICAgICAgICAgICAgICAgICAgICAgICAgICAgICAgICAgICAgICAgICAgICAgICAgICAgICAgICAgICAgICAgICAgICAgICAgICAgICAgICAgICAgICAgICAgICAgICAgICAKICAgICAgICAgICAgICAgICAgICAgICAgICAgICAgICAgICAgICAgICAgICAgICAgICAgICAgICAgICAgICAgICAgICAgICAgICAgICAgICAgICAgICAgICAgICAgICAgICAgIAogICAgICAgICAgICAgICAgICAgICAgICAgICAgICAgICAgICAgICAgICAgICAgICAgICAgICAgICAgICAgICAgICAgICAgICAgICAgICAgICAgICAgICAgICAgICAgICAgICAgCiAgICAgICAgICAgICAgICAgICAgICAgICAgICAgICAgICAgICAgICAgICAgICAgICAgICAgICAgICAgICAgICAgICAgICAgICAgICAgICAgICAgICAgICAgICAgICAgICAgICAKICAgICAgICAgICAgICAgICAgICAgICAgICAgICAgICAgICAgICAgICAgICAgICAgICAgICAgICAgICAgICAgICAgICAgICAgICAgICAgICAgICAgICAgICAgICAgICAgICAgIAogICAgICAgICAgICAgICAgICAgICAgICAgICAgICAgICAgICAgICAgICAgICAgICAgICAgICAgICAgICAgICAgICAgICAgICAgICAgICAgICAgICAgICAgICAgICAgICAgICAgCiAgICAgICAgICAgICAgICAgICAgICAgICAgICAgICAgICAgICAgICAgICAgICAgICAgICAgICAgICAgICAgICAgICAgICAgICAgICAgICAgICAgICAgICAgICAgICAgICAgICAKICAgICAgICAgICAgICAgICAgICAgICAgICAgICAgICAgICAgICAgICAgICAgICAgICAgICAgICAgICAgICAgICAgICAgICAgICAgICAgICAgICAgICAgICAgICAgICAgICAgIAogICAgICAgICAgICAgICAgICAgICAgICAgICAgICAgICAgICAgICAgICAgICAgICAgICAgICAgICAgICAgICAgICAgICAgICAgICAgICAgICAgICAgICAgICAgICAgICAgICAgCiAgICAgICAgICAgICAgICAgICAgICAgICAgICAgICAgICAgICAgICAgICAgICAgICAgICAgICAgICAgICAgICAgICAgICAgICAgICAgICAgICAgICAgICAgICAgICAgICAgICAKICAgICAgICAgICAgICAgICAgICAgICAgICAgICAgICAgICAgICAgICAgICAgICAgICAgICAgICAgICAgICAgICAgICAgICAgICAgICAgICAgICAgICAgICAgICAgICAgICAgIAogICAgICAgICAgICAgICAgICAgICAgICAgICAgICAgICAgICAgICAgICAgICAgICAgICAgICAgICAgICAgICAgICAgICAgICAgICAgICAgICAgICAgICAgICAgICAgICAgICAgCiAgICAgICAgICAgICAgICAgICAgICAgICAgICAgICAgICAgICAgICAgICAgICAgICAgICAgICAgICAgICAgICAgICAgICAgICAgICAgICAgICAgICAgICAgICAgICAgICAgICAKICAgICAgICAgICAgICAgICAgICAgICAgICAgICAgICAgICAgICAgICAgICAgICAgICAgICAgICAgICAgICAgICAgICAgICAgICAgICAgICAgICAgICAgICAgICAgICAgICAgIAogICAgICAgICAgICAgICAgICAgICAgICAgICAgICAgICAgICAgICAgICAgICAgICAgICAgICAgICAgICAgICAgICAgICAgICAgICAgICAgICAgICAgICAgICAgICAgICAgICAgCiAgICAgICAgICAgICAgICAgICAgICAgICAgICAgICAgICAgICAgICAgICAgICAgICAgICAgICAgICAgICAgICAgICAgICAgICAgICAgICAgICAgICAgICAgICAgICAgICAgICAKICAgICAgICAgICAgICAgICAgICAgICAgICAgICAgICAgICAgICAgICAgICAgICAgICAgICAgICAgICAgICAgICAgICAgICAgICAgICAgICAgICAgICAgICAgICAgICAgICAgIAogICAgICAgICAgICAgICAgICAgICAgICAgICAgICAgICAgICAgICAgICAgICAgICAgICAgICAgICAgICAgICAgICAgICAgICAgICAgICAgICAgICAgICAgICAgICAgICAgICAgCiAgICAgICAgICAgICAgICAgICAgICAgICAgICAgICAgICAgICAgICAgICAgICAgICAgICAgICAgICAgICAgICAgICAgICAgICAgICAgICAgICAgICAgICAgICAgICAgICAgICAKICAgICAgICAgICAgICAgICAgICAgICAgICAgICAgICAgICAgICAgICAgICAgICAgICAgICAgICAgICAgICAgICAgIDw/eHBhY2tldCBlbmQ9J3cnPz7/2wBDAAMCAgMCAgMDAwMEAwMEBQgFBQQEBQoHBwYIDAoMDAsKCwsNDhIQDQ4RDgsLEBYQERMUFRUVDA8XGBYUGBIUFRT/2wBDAQMEBAUEBQkFBQkUDQsNFBQUFBQUFBQUFBQUFBQUFBQUFBQUFBQUFBQUFBQUFBQUFBQUFBQUFBQUFBQUFBQUFBT/wAARCABHANgDASIAAhEBAxEB/8QAHwAAAQUBAQEBAQEAAAAAAAAAAAECAwQFBgcICQoL/8QAtRAAAgEDAwIEAwUFBAQAAAF9AQIDAAQRBRIhMUEGE1FhByJxFDKBkaEII0KxwRVS0fAkM2JyggkKFhcYGRolJicoKSo0NTY3ODk6Q0RFRkdISUpTVFVWV1hZWmNkZWZnaGlqc3R1dnd4eXqDhIWGh4iJipKTlJWWl5iZmqKjpKWmp6ipqrKztLW2t7i5usLDxMXGx8jJytLT1NXW19jZ2uHi4+Tl5ufo6erx8vP09fb3+Pn6/8QAHwEAAwEBAQEBAQEBAQAAAAAAAAECAwQFBgcICQoL/8QAtREAAgECBAQDBAcFBAQAAQJ3AAECAxEEBSExBhJBUQdhcRMiMoEIFEKRobHBCSMzUvAVYnLRChYkNOEl8RcYGRomJygpKjU2Nzg5OkNERUZHSElKU1RVVldYWVpjZGVmZ2hpanN0dXZ3eHl6goOEhYaHiImKkpOUlZaXmJmaoqOkpaanqKmqsrO0tba3uLm6wsPExcbHyMnK0tPU1dbX2Nna4uPk5ebn6Onq8vP09fb3+Pn6/9oADAMBAAIRAxEAPwD9U6KKKACiikJwKABjgU3zO+2orq6S2t5JZWWGKNS7yOwCqAMkknoMDqa8H8KfHJ/jp8VJfD/glz/wiGggT6vryjH2pyT5VvD6KxVizH7wQ44wT24fB1sTGdSC9yCvJ9F/wW9EurOWtiKdGUYSfvS0S6v/AIC6voe/K27/APXTqjXO6pK4TqCiiimAUUjHaM03f7UAPopN1M80elAElFVZNQhiuYrdpI1nkBZYy4DEDrgdT1qwrE44oFcdRRRQMKKKKACiiigAoopCcDNAC0VFJcJDG7uyoiAszMcAAdyfSs/R/FGkeIopZdJ1Oy1SOJtjtZXKTBW9CVJwfaqUW05JaInmSdr6mrRTFk3NjFFSUPoopKABm2rnGaxPFfjDSPBfh+81nXb6HTNLtU3zXE7YUD0A6knoAMkkgDNZnxS+J2jfCTwVqHiXXXZLG1AAjiG6SaRjhI0Hdif6k8Cvyw+Pn7RniX4+a752pSfY9Et3LWekRMfJi7B26b3wcFj7gYFfY8PcN4jPanN8NJPWX6Lz/Bfg/nc2zmllkOXeo9l+r8vzO8/aW/a41v45ahJ4Z8NJcad4TaURrbIP9I1Bs/KZMc4zjEY74zk4x9q/A34d6b+zP8DB/a0kVvcW1tJqmtXOesu3cwz32qAgx128ck18ifsB/BP/AITXx9L401K3ZtH8PNm28xflmuyMrj/rmDv4HUp716r/AMFE/jF/YvhzTvh7p0+LrUyLvUdp5S3Rv3af8DcZ/wC2fvX2mbYajiMZQ4Zy1ctOLvNr9X1aWuvVpdD5rAVqlHD1c6xjvNq0f+B5X/C/c7f9kX9qST426h4k0fWjHb6xb3El7YxDjdZs3C+5jJAPqCD2NfTStur8Uvhl8QNR+FfjnSPE+lMRcafMJGjzgTR9Hjb2ZSVP1r9j/A3jDTvH3hTSfEGkzefp+oW6zxN3GRyp9GU5BHqDXzvGORRyrExr4aNqU/wa3Xz3+89jh3NHjqLpVnepH8V3+W33HQUUUV+eH142T7p5xX5f/AH4veJ/A/xY0XxFrOu6jeeFb3VptEuxeXcksMe4KQxDEgYLK2fRHr9QW+6a/OP4MfC0fFb9mP4s6fBD5uqWOsnULEAfN5sceSo/3lLr/wACr9D4Xlh4YXFrEpckvZxb7KTlG69L3Pkc8VWVeh7F+8ueS8+Wzt89j9Cde1y08N6Df6tfzCCwsbeS4mkPaNVLE/kK/N74S+NPFni39qTwVr+sX17Ba+J7+bUYLH7Q/lLblpkVducbQYyOnRR616H4w+Ol98Yv2a/h94L0ubzvF/iy7TRL4BssggdA7vjkB8xMf9ln9K0vG3hax8G/tqfBfQNNj2WGm6LBawr32p9pAJ9zjJ9z716WT4H+yqOJo4iP72pGqvSNNNXX+KW3+E4cwxX16pRqUn7kXD5uTWnyX5nrvjjwX8N9S/ae8Jarq/iO8tPHsNqpsNHjdhFcIvmlXzs4HEmRuGdv5+w+LvHXh74faQ2qeItXtNHsVOBNeShAx/uqDyx9hk18tfFjj/goV8NB/wBQkfyvKxPFmj2/x1/bum8LeKHa48O+HLPzbfTJGPlykRRyEbf9ppMt/eVADkV5EsrWKWHeIqy9nGh7R7NpKTXLHb8fM9BY50HVVKC55VeVdm7LV/8AAPp3wB+0H8P/AIo6tLpnhjxLa6pqESGRrZUkjk2g4LAOq5AJHTPWqN1+098MrHS9V1CfxXax2ul3AtLtvKlLJMSwCBAm5z8jcKD0J6V0eifCnwd4b1iDVNI8MaVpOowwtbx3FhapA3ltjKnYBkcDrnpXxj+yB8IfDnxI+KHxM1LxNp8Os2+l6i629jdKHg8ySWXdIyHhmATAz/ePrXDhMDlWKp4jFN1I06Si7e65O7s1tbtZ207M6q+Kx1GdGhaLnNy720V+9/66H2vcfErw3Z+DbfxXdaxaWXh24gjuYtQupPJRo3UMh+cA5II+XGe2M8VyHhn9qb4V+Ltai0nS/Geny38r7I4pt8IduwVpFUMT2APPavnz46aLYeMP2sPhd8L72NbTwPZ2KzppcZ2QOyrOwUKPUQpH9CQOtdz+2J8G/BVt8Ade1Sz8PaZpOpaOkMtnc2NskDIfORCuVAypDEYPrnrWtLKcBGWGo4iU+bEWcbctoqUnGN7/ABPva1iJ4/FtVqlKMeWlo73u2ld27eV7n0Zr3ibS/C+lz6lrF/baXYQjMlzeTLFGo92PFcd4M/aE+HnxC1waN4d8U2Op6mys6W0e9WcAZJXco3ADnjPFfL3jPwb42+Pn7KXws1nT4X8Q3+kyNPfaVLIA1+kbNErfNw7hUx6kO2Mnr6B8D/i18LfEHjjTNEl+HqfDbx/bo629rdacls7ZQhkSQKrMSu7hwPbJqZZHSpYSrUvKpUg5pqHLaHK7JyT95p73Vkl5jjmdSpXhDSEJKLTlf3r9E9rrs+p7346+KXhX4Z2Ed54o12z0WCU4i+0yYeQ8Z2oMs2M84Bx3rG8CftBfD34n3zWHhnxTZalfgbvsh3QzMB1KxyKrMB6gGvmn4c6PYfHD9tD4hy+MbaLVrfw0j22naddDfCqxzCNW2HgjG5sEYzJn6wft4eDNE+G1j4M8b+FbG18O+IbfVBCJdOiW38wBDIrMq45UoBn0cg8V0UcjwcsRSy6pOXt6kU7q3Im48yVt35u616GVTNMSqM8ZCK9lBtW15mk7N9l6WLH/AAUC+LGnXGk6T4FsNdWO9XUkbWrKDcHiiMYePccfd+cMMZ6A9q6m1+J3wb+Afwd17VPhrqmnxXlzHJHbZM8y3d9FCCqtu74dSeg5rjP29vDujyaf8Ptej0i0ttV1bUFF7ci3QTTL5cYCyNjLYAxg9MV7Z8evhX4N0P8AZ98bGw8LaNZ/ZNLuruDybCJfKm8oDzF+X5WwijI7KK9SMsFHLcvw81PlnKXMk1aTUknzK2qv8PZHDJYmWMxdWPLeMVZ2d0rO1u2m/mUv2Vv2j9P+K3hDRbDXPEFnc+PZ/tMlzp8EXlsEWV9uAo2gCPb3orL/AGFfBWgR/A3wr4jXRbBdfc3kbamLdftDL9plXHmY3Y2gD6ACivjs+p4ajmVenhYuMVKSs7bpva1vd7H0WVzrVMHSnXabaT67WW9+vc+mKa3CnNKx2jNeEftffHZfgz8L7hbCZU8S6wGtNOA5MfA8yb/gCnj/AGmX3rzsFhKuPxEMLRV5Sdl/n6LdnZicRTwtGVaq9Iq58hft2fHX/hY3j4eFNKuC+geH3aN2Q5We66O3HULyoz/tdjXzf4d8P3vizXrDRtMtzdahfzpbwQr/ABOx2gfTP8j2qhI5kZmclixLEsc5J7n1r7Z/4J3fBH+0NQvfiPqsGYLYvZ6Usg6yEYlmH0B2A+7+lf0tXqYbhXJ/c2grL+9J/wCb1fl6H4vSjWzzMPe+07vyX/AWn3H1j8N/Bmjfs/8AwfttP8xUstHs3u766UEmVwpeWX1OSDj2AFflD8WfiJe/Fb4ha34pvyyy305aOJv+WUQG2OMf7qhR9c+tftDPbpNDJHKqyxuu10dchgeCCPSvzS/bJ/ZZk+FOrSeLfDNqzeEL6X99CnP9nyn+E/8ATNj909iMHHy5/M+B8xw/9oVvrb/fVdpPrrdr1b187W3PtOJsHW+qU1QX7uG6/BP0X6ny96V9pf8ABPP45f2Nq118ONWuB9kvWa60pnP3JsZkiz6MBuA9Qeu6viz19Ku6PrF54f1az1PT7h7S/s5lngnjOGSRW3KQfriv2DOMtp5tgp4Sp12fZrZ/10uj8+y/Gzy/Exrx6b+a6n7jK+44xT684+Afxas/jT8M9J8S221LmRfIvbdf+WNwgAkXHYZIYezLXo9fyfXoVMLVlQrK0ouzXmj95pVYVqcatN3TV0Nc4U14R+yr8Ddd+BeheJrHXLvT72TVNS+2Qtp8kjqqbQMNuRecjtmveDzUbRgKea1p4urRw9XDR+Gpa/8A267r8zOeHhUqwrS3he3z3PmL4S/sgD4cftBa344ku7ObQd08uj2MRbzbd5uH3gqFCqrOowTxt6V0/jr4C6z4o/ac8HfEi3v7CHSNFtBBNayl/tEjDzslQFK4/eL1PY16F4W+Mngrxp4nvfD2ieIrPUdZsg5ns4WO5NjBW7AEAnsTXaBd3HSvXxObZlHEe1xN1Nw5NVb3Wrde+9++p51HAYN0eSjrHm5tH1T/AK0PCfGnwF1rxN+1F4S+JcF9YQ6Ro9iLWa1mZ/tDtiflQFK4/fL1I6Gsn46/sz654q+IenfEf4ea7D4d8a2qrHJ9sB8idVBUE4Vvm2/KcqwIx0xX0cI8d6PLrnpZ1jKM6c4SXuR5LWVnHVtNdU7m08tw9SM4yXxS5t9VLuux458LdN+NT+KI774g6p4Zj0WG3eNdP0JJC8spxh3Z14AweFPOenArK/Zr+Aut/BnXfHt5q19p93H4gvlurcWTuWjAaU4fcowcSDpmvedp9aAu3vWdTNK04VaUYxjGokmoxSXuu6/EuGBpxlCcm5ShezbvurM8G/aP/ZtuPi5qWieKPDOtDw5430UgWl62fLkUNuVXKgkFWJIYA9SMHPHnPif4BfHv40WFt4f8f+M9AsPDEcqPcpo8bNLclTkEr5ahucEZIAODtyK+vyvY80nliurDZ7i8LThTiovk+FyinKN/5W/vMK2V4evOU3dc3xJNpS9UeMeOvAPj7wn4Y8Jab8H7/StNt9Fhe2m0/WFJjuo8IE5VD84Ksc/Lncea4Dw3+z18RfH3xk0D4hfFTU9Ftn0ML9i03QQ3zFWLqHZuihiT1YnpxX1N5fSjyx61lRzjE0KcoQjHmaac7e/aV7+9539fMupltGpNSk3yqz5b+7ptofM/xY/Zn8Vj4rf8LK+FXiK10DxJcIUvrTUAfs9xwAW4VvvBVypXqAcisFv2Y/iT8YvGWjax8ZPE2lXGj6U++HRdFVtkmSCysSqgbiBk/MSBgYr628v3o8v3OK6KfEGOpU4xjy80VyqfKudLspb9bd/MynlOGqTcnezd3G75W+9jwT9qn4E698cNP8JwaFd6fZnSL83U39oSSIGUgDC7EbnjvivWPH/hWLx54C13w3NO1smq2Mtn5yjJTehUNjvgnp3ro/LHFBjz3Iry3j8Q6VGjfSk24+TbTf4o7lhKSnUqW1nZP5Kx85/sz/CL4r/BtrPw3rWteG77wPZtcPGlmJjeFpCWABaMKF3ksRk8nr6lfRoUg5zmiljsbUzCu8RVSUnvZWu+7831Y8LhoYSkqNNtpbXd7eXoVtQv4NOsLm6u5Ut7aCNpZZZGwqIBksT6AZr8hv2kPjPcfHD4nX+uCSRdHh/0bTLd/wDlnbr0bHYscsfdsdhX6RftMfD3xp8VvAX/AAivhG+03TItQfGpXOoSyoTAMHy0CI2dx65I4BHfj5j0r/gmXrE23+0vHVlaHOT9k095v1aRK/QuD8TlOVRnjsdWSqPRKzbS6vRPV/l6nyXENHH45xw2GptwWreiu/m+n9bHyZ8N/AeofE7xxpHhjS1Ju9QnWLeBkRJ1eQ47KoZj7Ka/ZHwL4P07wD4T0nw7pUXlWGnW628Qxy2Byx/2ick+5NePfs6/sf6J+z/rV7rSaxNr+r3EH2aO4mtxCIEJy+1QzcsQuTnoPc179wprzuL+IKecV4UsLK9KHyu31s+2339zr4fymWXUpVK6tUl87Lt+v3DmG4YrO1zQbDxFo95pep2sd9p93E0M9vKuUdCMEEVcnu4rVC8siRqO7sAP1rmNW+LPgnRNy6h4v0KxYdVn1KFCPwLV8LSp1ZyTpJtrtf8AQ+oqTpxX7xpLzPzF/ak/Zxv/AIC+Lt1sJLvwpqDs2n3jclO5hc/317f3hyO4HiP8q/U74tfHT4E+M/Ceo+HfEvi7TdQsbpMFbRXuHRh910KK2GU8gj+tfmJ4nsNO0zxBqFtpGpjWdLimYWt+sTxGaPPDFHAKnGMg98iv6V4XzTF5hhvZ46lKNSP2nFpSXe/fuvn6fjGd4HD4Wtz4WacJdE02n29Ox77+w/8AHL/hVfxOXRNSn8vw74hZLeUu3yQ3HIik9uTsPqGBJ+UV+oatnGRivwsX7wI+97V+q/7Gvxy/4XH8LreHUJ/N8SaKFtL4ufmlXB8ub/gSjn/aVq+J48yXlcc0oreyn+j/AEfyPpuFcyungaj84/qv1+899Ztqk15z+0H8Sl+FPwg8SeIgypdw2zRWgY/euH+SMD15bP0Br0Vvumvib9unWtU+JXj3wX8I/DaLc6lO51CeFn2oXIYRKx7YUSMc9mWvznIsDHH5hTp1PgXvS7csdXf8vmfYZpiZYXCTnD4novV6I8l8M+FdQ/ZutPg38W5/OKaxNN/bCnJ2wzE+X9S0DF8f3lr9DvHHim88L+C9Q1zSNGn8T3dvCssGm2THzLrJAAQhW7HPQ9K+Qvi94H/aE8efCu78Oa34Z8KLolnCkyLp8p8+MQAlfLBc87QVxjkEjvXrn7IHxgtPF37Pdnc6repBN4ajawv5riQKEjiXMcjE9vL25Pcq1fW59F4/D08yk41JQm4yUZX92TcoJ226x+48DK5LC1p4OKlCMo3Tkre8laT136M5LxV+3B4o8D6eL/xB8E9d0ayZ/KWe+vTEhcjIXLQYyefyrqfHn7XVx8PPhD4V8b6r4GuIJdfnaOPS5NQCvEm1mSQt5ZzuUA42jANeeeD7a4/bN+LzeL9YjeH4V+GZzHpWnzZA1GcEHe6ngg9T6Dan941Y/wCCk1uzfC/wtKi5jj1faWUcDML4Ht0/T2q4YHLKmYYTLqmHUakneolKbS0bUNZb7N9np3JlisbHCV8XCs3FL3Lxjd6q8ttu339j6d+JHjpfh58O9c8VNZNfrpdm12bVZPLMmBnbuwcfXBrzxf2mIW/Ztk+Lf/CPyeSqB/7J+1jcc3Igx5mz33fd9vem/tMeKtLX9mHxXffbIWs7/ShFazK4ImaXaEC+ucg8e/pXhzDb/wAEz5AeAbdTzx/zE16/WvEyzLKFfC0ataGssRCm917rWq/4O6PSxuOq0q9SFOWipSl03T0f9aHpXgf9sqT4jeJfDOn6B4A1S90+/aGLVNVjkZrfTJZP4CwiIcqMZyUxnFbvxE/akfRfHNx4L8DeDr/4heJrNQ99DZTCGC0HHDSlWG7kcYwCcZzkVpfskaTbaX+zn4JS1hWET2f2iQqoG+R2Ysx98/pXyv8As7aD8RNW+JXxRsPCvjqw8I60uqySX1vf6dHczXIEkg3jeCcKSc/749RXo0sBltevi5RpqEKGlpSnaTcrc0nG8kl2j5Xe7OSeKxtOlQTm5Sq66KN17t7K9k7935n1L8D/ANpiy+LXiDVfC+qaBd+D/GWmKZLjR7595ZAQCyPtXOCVyCo+8CMjmvaq+Yvhv+zf4x0P9oC0+Ini7xvp+v6n9mkimhtrIW7zJ5RiU4XA+XK549K+na+WzingqeIX1CScXFN2u0pdUnJJtdrnuZdPEzov60rSTaV7Xa6N2ur+gUUUV4Z6gUUUUAFFFFADPL5zml28g0UUAEieYjKSQDx8pwa5TVvhjo+uMTd3OtMD1WPW7yNfyWUAfhRRWtOrUpO9OTT8iJU41FaaucVqn7JPww1uQvqGhXN656tcardyE/i0prJb9h34Mt/zKRH01C5H/tSiivTjnOZQVo4ma/7el/mcMsuwUnd0Y/8AgK/yIm/YV+C7dPCki/7up3X/AMdqFv2D/g02APDlwo9F1K4/q5oorT+3c1/6Cqn/AIHL/Mn+y8D/AM+I/wDgK/yIn/YJ+DjZA0K8Uf8AYSn/APiq6/4W/sxeB/g34il1rwtBfWV3NC0EqyXskkciEg4ZScHBAIPb8aKKzq5zmVem6VXETlF7pybTKp5dg6UlOnRimuqSPWGG5SK8x0v9nvwzpvxivviWZtQu/Et0jR/6TMrQwgoE/dqFBGEXaOTwTRRXn0cRVoKSpSa5lZ26p7r0OupRp1XF1Ffld15PuemGPOea8Gtf2L/A2n6J4o0az1DXrLSfEU0c17Z296iR5R2ZQoCcL82MHPAHpRRWuGxuIwd1Qm43te3k7r7nqiK2Go4hp1Yp2v8Ajo/vRgRf8E+/hvbpsi1TxPEvPypqKgc4/wCmftXpa/s5+EJPhInw5vI7zUvD6FnR7ufdcI5cuHEgAwwLHHHTg5FFFdtbOsxxHL7WvJ8rutdmuvqc1PLcHRuoUkrqz06djgNJ/YN+HWm6fdWVxfeINXgkhaGBdRvUdbPd95oVWNVViMjJB9q9Bb9nrww3wW/4Vf5t+PDewR+Z5y/advned9/bj74/u9KKKmtnGYYhxlVrSdmpLXZrZ+o6eX4SkmoU0rqz80+h1ngXwPYfD3wjpfhvS3mbT9NgFvCbhg0m0dNxAGT+FebfE79k3wf8TPFS+Jxd6r4Z8Scb9S0G4FvJLgYy2VPOONwwfc8UUVy0cdicPWliKVRqbvd9773738zephaFamqVSCcVsu1uxtfCf9nvQ/hLrF9rFtrGveINZvIRby3+vX32mQR7g21cKoAyB2zwOa9RoorLEYmtiqjq15c0n1ZpSo06EeSmrIKKKK5jYKKKKACiiigD/9k=;" vertex="1" parent="1">
          <mxGeometry x="-332.66" y="-720" width="155.15" height="51" as="geometry" />
        </mxCell>
        <mxCell id="F3c17p0CJjYHj5Mvr0EK-13" value="" style="group" vertex="1" connectable="0" parent="1">
          <mxGeometry x="-1230.0045714285714" y="-70" width="96.98742857142861" height="71.5" as="geometry" />
        </mxCell>
        <mxCell id="F3c17p0CJjYHj5Mvr0EK-14" value="" style="image;aspect=fixed;html=1;points=[];align=center;fontSize=12;image=img/lib/azure2/analytics/Log_Analytics_Workspaces.svg;" vertex="1" parent="F3c17p0CJjYHj5Mvr0EK-13">
          <mxGeometry x="34.16514285714282" width="43.15384615384615" height="43.15384615384615" as="geometry" />
        </mxCell>
        <mxCell id="F3c17p0CJjYHj5Mvr0EK-15" value="Log Analytics Workspace" style="text;strokeColor=none;align=center;fillColor=default;html=1;verticalAlign=middle;whiteSpace=wrap;rounded=0;" vertex="1" parent="F3c17p0CJjYHj5Mvr0EK-13">
          <mxGeometry x="3.8857142857142857" y="58.5" width="96.98742857142858" height="13" as="geometry" />
        </mxCell>
        <mxCell id="F3c17p0CJjYHj5Mvr0EK-16" value="" style="group" vertex="1" connectable="0" parent="1">
          <mxGeometry x="-989.9997142857142" y="-70" width="94.31600000000003" height="65.25" as="geometry" />
        </mxCell>
        <mxCell id="F3c17p0CJjYHj5Mvr0EK-17" value="Azure Monitor" style="text;strokeColor=none;align=center;fillColor=default;html=1;verticalAlign=middle;whiteSpace=wrap;rounded=0;" vertex="1" parent="F3c17p0CJjYHj5Mvr0EK-16">
          <mxGeometry y="52.25" width="94.316" height="13" as="geometry" />
        </mxCell>
        <mxCell id="F3c17p0CJjYHj5Mvr0EK-18" value="" style="image;aspect=fixed;html=1;points=[];align=center;fontSize=12;image=img/lib/azure2/management_governance/Monitor.svg;" vertex="1" parent="F3c17p0CJjYHj5Mvr0EK-16">
          <mxGeometry x="20.43885714285711" width="41.84615384615385" height="41.84615384615385" as="geometry" />
        </mxCell>
        <mxCell id="F3c17p0CJjYHj5Mvr0EK-19" value="" style="group" vertex="1" connectable="0" parent="1">
          <mxGeometry x="-1120" y="-74.75" width="120" height="70" as="geometry" />
        </mxCell>
        <mxCell id="F3c17p0CJjYHj5Mvr0EK-20" value="" style="image;aspect=fixed;html=1;points=[];align=center;fontSize=12;image=img/lib/azure2/management_governance/Application_Insights.svg;" vertex="1" parent="F3c17p0CJjYHj5Mvr0EK-19">
          <mxGeometry x="47.45421343873517" y="10" width="25.094180602006684" height="35.92581331711766" as="geometry" />
        </mxCell>
        <mxCell id="F3c17p0CJjYHj5Mvr0EK-21" value="Application Insights" style="text;strokeColor=none;align=center;fillColor=default;html=1;verticalAlign=middle;whiteSpace=wrap;rounded=0;" vertex="1" parent="F3c17p0CJjYHj5Mvr0EK-19">
          <mxGeometry y="56.212121212121225" width="120.00000000000001" height="13.787878787878787" as="geometry" />
        </mxCell>
        <mxCell id="F3c17p0CJjYHj5Mvr0EK-22" value="" style="endArrow=classic;html=1;rounded=0;dashed=1;entryX=0;entryY=0.5;entryDx=0;entryDy=0;dashPattern=12 12;exitX=0.5;exitY=1;exitDx=0;exitDy=0;" edge="1" parent="1" source="F3c17p0CJjYHj5Mvr0EK-7" target="F3c17p0CJjYHj5Mvr0EK-6">
          <mxGeometry width="50" height="50" relative="1" as="geometry">
            <mxPoint x="-1105" y="-670" as="sourcePoint" />
            <mxPoint x="-1170" y="-760" as="targetPoint" />
            <Array as="points">
              <mxPoint x="-1410" y="-40" />
            </Array>
          </mxGeometry>
        </mxCell>
        <mxCell id="F3c17p0CJjYHj5Mvr0EK-23" value="" style="group" vertex="1" connectable="0" parent="1">
          <mxGeometry x="-1522.83" y="304.27" width="190.76000000000005" height="80.31" as="geometry" />
        </mxCell>
        <mxCell id="F3c17p0CJjYHj5Mvr0EK-24" value="" style="rounded=0;whiteSpace=wrap;html=1;" vertex="1" parent="F3c17p0CJjYHj5Mvr0EK-23">
          <mxGeometry x="-20" y="-16.19" width="160" height="96.5" as="geometry" />
        </mxCell>
        <mxCell id="F3c17p0CJjYHj5Mvr0EK-25" value="" style="image;aspect=fixed;html=1;points=[];align=center;fontSize=12;image=img/lib/azure2/networking/NAT.svg;" vertex="1" parent="F3c17p0CJjYHj5Mvr0EK-23">
          <mxGeometry x="36.28" y="1.6" width="38.4" height="38.4" as="geometry" />
        </mxCell>
        <mxCell id="F3c17p0CJjYHj5Mvr0EK-26" value="Azure Active Directory" style="text;strokeColor=none;align=center;fillColor=none;html=1;verticalAlign=middle;whiteSpace=wrap;rounded=0;" vertex="1" parent="F3c17p0CJjYHj5Mvr0EK-23">
          <mxGeometry y="43.45650781692898" width="122.83" height="20.673492183071005" as="geometry" />
        </mxCell>
        <mxCell id="F3c17p0CJjYHj5Mvr0EK-27" value="" style="endArrow=classic;html=1;rounded=0;dashed=1;entryX=0.16;entryY=-0.04;entryDx=0;entryDy=0;dashPattern=12 12;entryPerimeter=0;exitX=0.5;exitY=1;exitDx=0;exitDy=0;" edge="1" parent="1" source="F3c17p0CJjYHj5Mvr0EK-46" target="F3c17p0CJjYHj5Mvr0EK-6">
          <mxGeometry width="50" height="50" relative="1" as="geometry">
            <mxPoint x="-630" y="-650" as="sourcePoint" />
            <mxPoint x="-990" y="-820" as="targetPoint" />
            <Array as="points">
              <mxPoint x="-868" y="-240" />
              <mxPoint x="-1180" y="-240" />
            </Array>
          </mxGeometry>
        </mxCell>
        <mxCell id="F3c17p0CJjYHj5Mvr0EK-28" value="" style="image;aspect=fixed;html=1;points=[];align=center;fontSize=12;image=img/lib/azure2/databases/Cache_Redis.svg;" vertex="1" parent="1">
          <mxGeometry x="-428.24999999999994" y="-331.95000000000005" width="49.23" height="40" as="geometry" />
        </mxCell>
        <mxCell id="F3c17p0CJjYHj5Mvr0EK-29" value="Redis Cache" style="text;strokeColor=none;align=center;fillColor=none;html=1;verticalAlign=middle;whiteSpace=wrap;rounded=0;" vertex="1" parent="1">
          <mxGeometry x="-462.63000000000005" y="-279.45000000000005" width="117.99" height="13" as="geometry" />
        </mxCell>
        <mxCell id="F3c17p0CJjYHj5Mvr0EK-30" value="" style="image;aspect=fixed;html=1;points=[];align=center;fontSize=12;image=img/lib/azure2/databases/Azure_Database_MySQL_Server.svg;movable=1;resizable=1;rotatable=1;deletable=1;editable=1;locked=0;connectable=1;" vertex="1" parent="1">
          <mxGeometry x="-418.64000000000004" y="-191.95000000000002" width="30" height="40" as="geometry" />
        </mxCell>
        <mxCell id="F3c17p0CJjYHj5Mvr0EK-31" value="Azure MySQL Database" style="text;html=1;strokeColor=none;fillColor=none;align=center;verticalAlign=middle;whiteSpace=wrap;rounded=0;movable=1;resizable=1;rotatable=1;deletable=1;editable=1;locked=0;connectable=1;" vertex="1" parent="1">
          <mxGeometry x="-468.5800000000002" y="-149.45000000000002" width="139.96" height="30" as="geometry" />
        </mxCell>
        <mxCell id="F3c17p0CJjYHj5Mvr0EK-36" style="edgeStyle=orthogonalEdgeStyle;rounded=0;orthogonalLoop=1;jettySize=auto;html=1;" edge="1" parent="1" source="F3c17p0CJjYHj5Mvr0EK-37" target="F3c17p0CJjYHj5Mvr0EK-40">
          <mxGeometry relative="1" as="geometry" />
        </mxCell>
        <mxCell id="F3c17p0CJjYHj5Mvr0EK-37" value="Internet" style="ellipse;shape=cloud;whiteSpace=wrap;html=1;" vertex="1" parent="1">
          <mxGeometry x="-2170" y="-404.08" width="120" height="80" as="geometry" />
        </mxCell>
        <mxCell id="F3c17p0CJjYHj5Mvr0EK-38" style="edgeStyle=orthogonalEdgeStyle;rounded=0;orthogonalLoop=1;jettySize=auto;html=1;entryX=0;entryY=0.479;entryDx=0;entryDy=0;entryPerimeter=0;" edge="1" parent="1" source="F3c17p0CJjYHj5Mvr0EK-40" target="F3c17p0CJjYHj5Mvr0EK-7">
          <mxGeometry relative="1" as="geometry">
            <Array as="points">
              <mxPoint x="-1582" y="-360" />
            </Array>
          </mxGeometry>
        </mxCell>
        <mxCell id="F3c17p0CJjYHj5Mvr0EK-40" value="Azure Firewall" style="image;aspect=fixed;html=1;points=[];align=center;fontSize=12;image=img/lib/azure2/networking/Firewalls.svg;" vertex="1" parent="1">
          <mxGeometry x="-1906.1899999999998" y="-393.06" width="71" height="60" as="geometry" />
        </mxCell>
        <mxCell id="F3c17p0CJjYHj5Mvr0EK-41" style="edgeStyle=orthogonalEdgeStyle;rounded=0;orthogonalLoop=1;jettySize=auto;html=1;entryX=0;entryY=0.5;entryDx=0;entryDy=0;" edge="1" parent="1" source="F3c17p0CJjYHj5Mvr0EK-42" target="F3c17p0CJjYHj5Mvr0EK-2">
          <mxGeometry relative="1" as="geometry" />
        </mxCell>
        <mxCell id="F3c17p0CJjYHj5Mvr0EK-42" value="" style="image;aspect=fixed;html=1;points=[];align=center;fontSize=12;image=img/lib/azure2/compute/Kubernetes_Services.svg;" vertex="1" parent="1">
          <mxGeometry x="-898.5500000000001" y="-449.44000000000005" width="60.85" height="53.69" as="geometry" />
        </mxCell>
        <mxCell id="F3c17p0CJjYHj5Mvr0EK-43" style="edgeStyle=orthogonalEdgeStyle;rounded=0;orthogonalLoop=1;jettySize=auto;html=1;entryX=-0.003;entryY=0.503;entryDx=0;entryDy=0;entryPerimeter=0;" edge="1" parent="1" target="F3c17p0CJjYHj5Mvr0EK-42">
          <mxGeometry relative="1" as="geometry">
            <mxPoint x="-761.1399999999998" y="-418.38" as="targetPoint" />
            <mxPoint x="-1154.1399999999999" y="-421.6923076923076" as="sourcePoint" />
          </mxGeometry>
        </mxCell>
        <mxCell id="F3c17p0CJjYHj5Mvr0EK-46" value="Kubernetes Cluster" style="text;strokeColor=#6c8ebf;align=center;fillColor=#dae8fc;html=1;verticalAlign=middle;whiteSpace=wrap;rounded=0;" vertex="1" parent="1">
          <mxGeometry x="-938.08" y="-395.38" width="139.91" height="11.47" as="geometry" />
        </mxCell>
        <mxCell id="F3c17p0CJjYHj5Mvr0EK-59" value="" style="image;aspect=fixed;html=1;points=[];align=center;fontSize=12;image=img/lib/azure2/preview/Static_Apps.svg;container=0;" vertex="1" parent="1">
          <mxGeometry x="-1350" y="-391.58000000000015" width="50" height="40" as="geometry" />
        </mxCell>
        <mxCell id="F3c17p0CJjYHj5Mvr0EK-64" style="edgeStyle=orthogonalEdgeStyle;rounded=0;orthogonalLoop=1;jettySize=auto;html=1;entryX=0.004;entryY=0.164;entryDx=0;entryDy=0;entryPerimeter=0;" edge="1" parent="1" source="F3c17p0CJjYHj5Mvr0EK-42" target="F3c17p0CJjYHj5Mvr0EK-2">
          <mxGeometry relative="1" as="geometry" />
        </mxCell>
        <mxCell id="F3c17p0CJjYHj5Mvr0EK-65" value="" style="rounded=0;whiteSpace=wrap;html=1;" vertex="1" parent="1">
          <mxGeometry x="-665" y="212.15" width="123.7" height="96.5" as="geometry" />
        </mxCell>
        <mxCell id="F3c17p0CJjYHj5Mvr0EK-66" value="" style="image;aspect=fixed;html=1;points=[];align=center;fontSize=12;image=img/lib/azure2/containers/Container_Registries.svg;" vertex="1" parent="1">
          <mxGeometry x="-629.166" y="222.15" width="52.024" height="46.666666666666664" as="geometry" />
        </mxCell>
        <mxCell id="F3c17p0CJjYHj5Mvr0EK-67" value="Containers Registry" style="text;strokeColor=none;align=center;fillColor=default;html=1;verticalAlign=middle;whiteSpace=wrap;rounded=0;" vertex="1" parent="1">
          <mxGeometry x="-663.15" y="272.14" width="120" height="14.14" as="geometry" />
        </mxCell>
        <mxCell id="F3c17p0CJjYHj5Mvr0EK-69" style="edgeStyle=orthogonalEdgeStyle;rounded=0;orthogonalLoop=1;jettySize=auto;html=1;entryX=0.97;entryY=0.484;entryDx=0;entryDy=0;entryPerimeter=0;strokeColor=#3333FF;" edge="1" parent="1" source="F3c17p0CJjYHj5Mvr0EK-65" target="F3c17p0CJjYHj5Mvr0EK-42">
          <mxGeometry relative="1" as="geometry">
            <Array as="points">
              <mxPoint x="-603" y="-423" />
            </Array>
          </mxGeometry>
        </mxCell>
        <mxCell id="F3c17p0CJjYHj5Mvr0EK-71" style="edgeStyle=orthogonalEdgeStyle;rounded=0;orthogonalLoop=1;jettySize=auto;html=1;entryX=0.75;entryY=1;entryDx=0;entryDy=0;strokeColor=#00FF00;" edge="1" parent="1" source="F3c17p0CJjYHj5Mvr0EK-73" target="F3c17p0CJjYHj5Mvr0EK-7">
          <mxGeometry relative="1" as="geometry">
            <Array as="points">
              <mxPoint x="-1135" y="240" />
              <mxPoint x="-1332" y="240" />
              <mxPoint x="-1332" y="-304" />
            </Array>
          </mxGeometry>
        </mxCell>
        <mxCell id="F3c17p0CJjYHj5Mvr0EK-72" style="edgeStyle=orthogonalEdgeStyle;rounded=0;orthogonalLoop=1;jettySize=auto;html=1;entryX=0;entryY=0.5;entryDx=0;entryDy=0;strokeColor=#00FF00;" edge="1" parent="1" source="F3c17p0CJjYHj5Mvr0EK-73" target="F3c17p0CJjYHj5Mvr0EK-65">
          <mxGeometry relative="1" as="geometry" />
        </mxCell>
        <mxCell id="F3c17p0CJjYHj5Mvr0EK-73" value="Azure Pipelines" style="image;sketch=0;aspect=fixed;html=1;points=[];align=center;fontSize=12;image=img/lib/mscae/Azure_Pipelines.svg;" vertex="1" parent="1">
          <mxGeometry x="-1160" y="300.65" width="50" height="50" as="geometry" />
        </mxCell>
        <mxCell id="F3c17p0CJjYHj5Mvr0EK-75" style="edgeStyle=orthogonalEdgeStyle;rounded=0;orthogonalLoop=1;jettySize=auto;html=1;entryX=0.018;entryY=0.529;entryDx=0;entryDy=0;entryPerimeter=0;" edge="1" parent="1" source="F3c17p0CJjYHj5Mvr0EK-7">
          <mxGeometry relative="1" as="geometry">
            <Array as="points">
              <mxPoint x="-1241.14" y="-357.75" />
              <mxPoint x="-1241.14" y="-420.75" />
            </Array>
            <mxPoint x="-1205.2039999999997" y="-420.24199999999996" as="targetPoint" />
          </mxGeometry>
        </mxCell>
        <mxCell id="F3c17p0CJjYHj5Mvr0EK-76" style="edgeStyle=orthogonalEdgeStyle;rounded=0;orthogonalLoop=1;jettySize=auto;html=1;entryX=0.01;entryY=0.399;entryDx=0;entryDy=0;entryPerimeter=0;startArrow=classic;startFill=1;endArrow=none;endFill=0;dashed=1;dashPattern=12 12;" edge="1" parent="1" source="F3c17p0CJjYHj5Mvr0EK-6" target="F3c17p0CJjYHj5Mvr0EK-2">
          <mxGeometry relative="1" as="geometry" />
        </mxCell>
        <mxCell id="F3c17p0CJjYHj5Mvr0EK-77" style="edgeStyle=orthogonalEdgeStyle;rounded=0;orthogonalLoop=1;jettySize=auto;html=1;entryX=0.5;entryY=1;entryDx=0;entryDy=0;startArrow=classic;startFill=1;" edge="1" parent="1" source="F3c17p0CJjYHj5Mvr0EK-78" target="F3c17p0CJjYHj5Mvr0EK-24">
          <mxGeometry relative="1" as="geometry" />
        </mxCell>
        <mxCell id="F3c17p0CJjYHj5Mvr0EK-78" value="Developer" style="image;sketch=0;aspect=fixed;html=1;points=[];align=center;fontSize=12;image=img/lib/mscae/Person.svg;" vertex="1" parent="1">
          <mxGeometry x="-1481.33" y="440.65" width="37" height="50" as="geometry" />
        </mxCell>
        <mxCell id="F3c17p0CJjYHj5Mvr0EK-79" value="" style="group" vertex="1" connectable="0" parent="1">
          <mxGeometry x="-1334.9988517264721" y="300.65000000000003" width="119.66" height="67.75" as="geometry" />
        </mxCell>
        <mxCell id="F3c17p0CJjYHj5Mvr0EK-80" value="" style="image;aspect=fixed;html=1;points=[];align=center;fontSize=12;image=img/lib/azure2/devops/Azure_DevOps.svg;" vertex="1" parent="F3c17p0CJjYHj5Mvr0EK-79">
          <mxGeometry x="35.54056601218677" width="43.58974358974359" height="43.58974358974359" as="geometry" />
        </mxCell>
        <mxCell id="F3c17p0CJjYHj5Mvr0EK-81" value="Azure DevOps" style="text;strokeColor=none;align=center;fillColor=default;html=1;verticalAlign=middle;whiteSpace=wrap;rounded=0;" vertex="1" parent="F3c17p0CJjYHj5Mvr0EK-79">
          <mxGeometry x="22.5" y="54.75" width="74.66" height="13" as="geometry" />
        </mxCell>
        <mxCell id="F3c17p0CJjYHj5Mvr0EK-82" style="edgeStyle=orthogonalEdgeStyle;rounded=0;orthogonalLoop=1;jettySize=auto;html=1;entryX=0;entryY=0.436;entryDx=0;entryDy=0;entryPerimeter=0;" edge="1" parent="1" source="F3c17p0CJjYHj5Mvr0EK-80" target="F3c17p0CJjYHj5Mvr0EK-73">
          <mxGeometry relative="1" as="geometry" />
        </mxCell>
        <mxCell id="F3c17p0CJjYHj5Mvr0EK-84" style="edgeStyle=orthogonalEdgeStyle;rounded=0;orthogonalLoop=1;jettySize=auto;html=1;entryX=0.148;entryY=0.978;entryDx=0;entryDy=0;entryPerimeter=0;" edge="1" parent="1" source="F3c17p0CJjYHj5Mvr0EK-78" target="F3c17p0CJjYHj5Mvr0EK-5">
          <mxGeometry relative="1" as="geometry" />
        </mxCell>
        <mxCell id="F3c17p0CJjYHj5Mvr0EK-85" value="Loadbalancer" style="image;aspect=fixed;html=1;points=[];align=center;fontSize=12;image=img/lib/azure2/networking/Load_Balancers.svg;" vertex="1" parent="1">
          <mxGeometry x="-1210.14" y="-449.44" width="60" height="60" as="geometry" />
        </mxCell>
      </root>
    </mxGraphModel>
  </diagram>
</mxfile>
